%TF.GenerationSoftware,KiCad,Pcbnew,7.0.10*%
%TF.CreationDate,2024-02-05T00:36:43+00:00*%
%TF.ProjectId,ContactlessPiPoweredDrumkit,436f6e74-6163-4746-9c65-73735069506f,rev?*%
%TF.SameCoordinates,Original*%
%TF.FileFunction,Legend,Bot*%
%TF.FilePolarity,Positive*%
%FSLAX46Y46*%
G04 Gerber Fmt 4.6, Leading zero omitted, Abs format (unit mm)*
G04 Created by KiCad (PCBNEW 7.0.10) date 2024-02-05 00:36:43*
%MOMM*%
%LPD*%
G01*
G04 APERTURE LIST*
%ADD10C,0.150000*%
%ADD11C,0.120000*%
G04 APERTURE END LIST*
D10*
X345214411Y-190687438D02*
X345309649Y-190639819D01*
X345309649Y-190639819D02*
X345452506Y-190639819D01*
X345452506Y-190639819D02*
X345595363Y-190687438D01*
X345595363Y-190687438D02*
X345690601Y-190782676D01*
X345690601Y-190782676D02*
X345738220Y-190877914D01*
X345738220Y-190877914D02*
X345785839Y-191068390D01*
X345785839Y-191068390D02*
X345785839Y-191211247D01*
X345785839Y-191211247D02*
X345738220Y-191401723D01*
X345738220Y-191401723D02*
X345690601Y-191496961D01*
X345690601Y-191496961D02*
X345595363Y-191592200D01*
X345595363Y-191592200D02*
X345452506Y-191639819D01*
X345452506Y-191639819D02*
X345357268Y-191639819D01*
X345357268Y-191639819D02*
X345214411Y-191592200D01*
X345214411Y-191592200D02*
X345166792Y-191544580D01*
X345166792Y-191544580D02*
X345166792Y-191211247D01*
X345166792Y-191211247D02*
X345357268Y-191211247D01*
X344738220Y-191639819D02*
X344738220Y-190639819D01*
X344738220Y-190639819D02*
X344404887Y-191354104D01*
X344404887Y-191354104D02*
X344071554Y-190639819D01*
X344071554Y-190639819D02*
X344071554Y-191639819D01*
X342881077Y-190735057D02*
X342833458Y-190687438D01*
X342833458Y-190687438D02*
X342738220Y-190639819D01*
X342738220Y-190639819D02*
X342500125Y-190639819D01*
X342500125Y-190639819D02*
X342404887Y-190687438D01*
X342404887Y-190687438D02*
X342357268Y-190735057D01*
X342357268Y-190735057D02*
X342309649Y-190830295D01*
X342309649Y-190830295D02*
X342309649Y-190925533D01*
X342309649Y-190925533D02*
X342357268Y-191068390D01*
X342357268Y-191068390D02*
X342928696Y-191639819D01*
X342928696Y-191639819D02*
X342309649Y-191639819D01*
X341690601Y-190639819D02*
X341595363Y-190639819D01*
X341595363Y-190639819D02*
X341500125Y-190687438D01*
X341500125Y-190687438D02*
X341452506Y-190735057D01*
X341452506Y-190735057D02*
X341404887Y-190830295D01*
X341404887Y-190830295D02*
X341357268Y-191020771D01*
X341357268Y-191020771D02*
X341357268Y-191258866D01*
X341357268Y-191258866D02*
X341404887Y-191449342D01*
X341404887Y-191449342D02*
X341452506Y-191544580D01*
X341452506Y-191544580D02*
X341500125Y-191592200D01*
X341500125Y-191592200D02*
X341595363Y-191639819D01*
X341595363Y-191639819D02*
X341690601Y-191639819D01*
X341690601Y-191639819D02*
X341785839Y-191592200D01*
X341785839Y-191592200D02*
X341833458Y-191544580D01*
X341833458Y-191544580D02*
X341881077Y-191449342D01*
X341881077Y-191449342D02*
X341928696Y-191258866D01*
X341928696Y-191258866D02*
X341928696Y-191020771D01*
X341928696Y-191020771D02*
X341881077Y-190830295D01*
X341881077Y-190830295D02*
X341833458Y-190735057D01*
X341833458Y-190735057D02*
X341785839Y-190687438D01*
X341785839Y-190687438D02*
X341690601Y-190639819D01*
X340976315Y-190735057D02*
X340928696Y-190687438D01*
X340928696Y-190687438D02*
X340833458Y-190639819D01*
X340833458Y-190639819D02*
X340595363Y-190639819D01*
X340595363Y-190639819D02*
X340500125Y-190687438D01*
X340500125Y-190687438D02*
X340452506Y-190735057D01*
X340452506Y-190735057D02*
X340404887Y-190830295D01*
X340404887Y-190830295D02*
X340404887Y-190925533D01*
X340404887Y-190925533D02*
X340452506Y-191068390D01*
X340452506Y-191068390D02*
X341023934Y-191639819D01*
X341023934Y-191639819D02*
X340404887Y-191639819D01*
X339547744Y-190973152D02*
X339547744Y-191639819D01*
X339785839Y-190592200D02*
X340023934Y-191306485D01*
X340023934Y-191306485D02*
X339404887Y-191306485D01*
X49529904Y-176070819D02*
X49529904Y-176880342D01*
X49529904Y-176880342D02*
X49482285Y-176975580D01*
X49482285Y-176975580D02*
X49434666Y-177023200D01*
X49434666Y-177023200D02*
X49339428Y-177070819D01*
X49339428Y-177070819D02*
X49148952Y-177070819D01*
X49148952Y-177070819D02*
X49053714Y-177023200D01*
X49053714Y-177023200D02*
X49006095Y-176975580D01*
X49006095Y-176975580D02*
X48958476Y-176880342D01*
X48958476Y-176880342D02*
X48958476Y-176070819D01*
X48053714Y-176070819D02*
X48244190Y-176070819D01*
X48244190Y-176070819D02*
X48339428Y-176118438D01*
X48339428Y-176118438D02*
X48387047Y-176166057D01*
X48387047Y-176166057D02*
X48482285Y-176308914D01*
X48482285Y-176308914D02*
X48529904Y-176499390D01*
X48529904Y-176499390D02*
X48529904Y-176880342D01*
X48529904Y-176880342D02*
X48482285Y-176975580D01*
X48482285Y-176975580D02*
X48434666Y-177023200D01*
X48434666Y-177023200D02*
X48339428Y-177070819D01*
X48339428Y-177070819D02*
X48148952Y-177070819D01*
X48148952Y-177070819D02*
X48053714Y-177023200D01*
X48053714Y-177023200D02*
X48006095Y-176975580D01*
X48006095Y-176975580D02*
X47958476Y-176880342D01*
X47958476Y-176880342D02*
X47958476Y-176642247D01*
X47958476Y-176642247D02*
X48006095Y-176547009D01*
X48006095Y-176547009D02*
X48053714Y-176499390D01*
X48053714Y-176499390D02*
X48148952Y-176451771D01*
X48148952Y-176451771D02*
X48339428Y-176451771D01*
X48339428Y-176451771D02*
X48434666Y-176499390D01*
X48434666Y-176499390D02*
X48482285Y-176547009D01*
X48482285Y-176547009D02*
X48529904Y-176642247D01*
X58685580Y-177932142D02*
X58733200Y-177884523D01*
X58733200Y-177884523D02*
X58780819Y-177741666D01*
X58780819Y-177741666D02*
X58780819Y-177646428D01*
X58780819Y-177646428D02*
X58733200Y-177503571D01*
X58733200Y-177503571D02*
X58637961Y-177408333D01*
X58637961Y-177408333D02*
X58542723Y-177360714D01*
X58542723Y-177360714D02*
X58352247Y-177313095D01*
X58352247Y-177313095D02*
X58209390Y-177313095D01*
X58209390Y-177313095D02*
X58018914Y-177360714D01*
X58018914Y-177360714D02*
X57923676Y-177408333D01*
X57923676Y-177408333D02*
X57828438Y-177503571D01*
X57828438Y-177503571D02*
X57780819Y-177646428D01*
X57780819Y-177646428D02*
X57780819Y-177741666D01*
X57780819Y-177741666D02*
X57828438Y-177884523D01*
X57828438Y-177884523D02*
X57876057Y-177932142D01*
X58780819Y-178884523D02*
X58780819Y-178313095D01*
X58780819Y-178598809D02*
X57780819Y-178598809D01*
X57780819Y-178598809D02*
X57923676Y-178503571D01*
X57923676Y-178503571D02*
X58018914Y-178408333D01*
X58018914Y-178408333D02*
X58066533Y-178313095D01*
X57780819Y-179503571D02*
X57780819Y-179598809D01*
X57780819Y-179598809D02*
X57828438Y-179694047D01*
X57828438Y-179694047D02*
X57876057Y-179741666D01*
X57876057Y-179741666D02*
X57971295Y-179789285D01*
X57971295Y-179789285D02*
X58161771Y-179836904D01*
X58161771Y-179836904D02*
X58399866Y-179836904D01*
X58399866Y-179836904D02*
X58590342Y-179789285D01*
X58590342Y-179789285D02*
X58685580Y-179741666D01*
X58685580Y-179741666D02*
X58733200Y-179694047D01*
X58733200Y-179694047D02*
X58780819Y-179598809D01*
X58780819Y-179598809D02*
X58780819Y-179503571D01*
X58780819Y-179503571D02*
X58733200Y-179408333D01*
X58733200Y-179408333D02*
X58685580Y-179360714D01*
X58685580Y-179360714D02*
X58590342Y-179313095D01*
X58590342Y-179313095D02*
X58399866Y-179265476D01*
X58399866Y-179265476D02*
X58161771Y-179265476D01*
X58161771Y-179265476D02*
X57971295Y-179313095D01*
X57971295Y-179313095D02*
X57876057Y-179360714D01*
X57876057Y-179360714D02*
X57828438Y-179408333D01*
X57828438Y-179408333D02*
X57780819Y-179503571D01*
X362977580Y-178408333D02*
X363025200Y-178360714D01*
X363025200Y-178360714D02*
X363072819Y-178217857D01*
X363072819Y-178217857D02*
X363072819Y-178122619D01*
X363072819Y-178122619D02*
X363025200Y-177979762D01*
X363025200Y-177979762D02*
X362929961Y-177884524D01*
X362929961Y-177884524D02*
X362834723Y-177836905D01*
X362834723Y-177836905D02*
X362644247Y-177789286D01*
X362644247Y-177789286D02*
X362501390Y-177789286D01*
X362501390Y-177789286D02*
X362310914Y-177836905D01*
X362310914Y-177836905D02*
X362215676Y-177884524D01*
X362215676Y-177884524D02*
X362120438Y-177979762D01*
X362120438Y-177979762D02*
X362072819Y-178122619D01*
X362072819Y-178122619D02*
X362072819Y-178217857D01*
X362072819Y-178217857D02*
X362120438Y-178360714D01*
X362120438Y-178360714D02*
X362168057Y-178408333D01*
X362072819Y-178741667D02*
X362072819Y-179360714D01*
X362072819Y-179360714D02*
X362453771Y-179027381D01*
X362453771Y-179027381D02*
X362453771Y-179170238D01*
X362453771Y-179170238D02*
X362501390Y-179265476D01*
X362501390Y-179265476D02*
X362549009Y-179313095D01*
X362549009Y-179313095D02*
X362644247Y-179360714D01*
X362644247Y-179360714D02*
X362882342Y-179360714D01*
X362882342Y-179360714D02*
X362977580Y-179313095D01*
X362977580Y-179313095D02*
X363025200Y-179265476D01*
X363025200Y-179265476D02*
X363072819Y-179170238D01*
X363072819Y-179170238D02*
X363072819Y-178884524D01*
X363072819Y-178884524D02*
X363025200Y-178789286D01*
X363025200Y-178789286D02*
X362977580Y-178741667D01*
X345385580Y-178408333D02*
X345433200Y-178360714D01*
X345433200Y-178360714D02*
X345480819Y-178217857D01*
X345480819Y-178217857D02*
X345480819Y-178122619D01*
X345480819Y-178122619D02*
X345433200Y-177979762D01*
X345433200Y-177979762D02*
X345337961Y-177884524D01*
X345337961Y-177884524D02*
X345242723Y-177836905D01*
X345242723Y-177836905D02*
X345052247Y-177789286D01*
X345052247Y-177789286D02*
X344909390Y-177789286D01*
X344909390Y-177789286D02*
X344718914Y-177836905D01*
X344718914Y-177836905D02*
X344623676Y-177884524D01*
X344623676Y-177884524D02*
X344528438Y-177979762D01*
X344528438Y-177979762D02*
X344480819Y-178122619D01*
X344480819Y-178122619D02*
X344480819Y-178217857D01*
X344480819Y-178217857D02*
X344528438Y-178360714D01*
X344528438Y-178360714D02*
X344576057Y-178408333D01*
X345480819Y-179360714D02*
X345480819Y-178789286D01*
X345480819Y-179075000D02*
X344480819Y-179075000D01*
X344480819Y-179075000D02*
X344623676Y-178979762D01*
X344623676Y-178979762D02*
X344718914Y-178884524D01*
X344718914Y-178884524D02*
X344766533Y-178789286D01*
X40077580Y-178173142D02*
X40125200Y-178125523D01*
X40125200Y-178125523D02*
X40172819Y-177982666D01*
X40172819Y-177982666D02*
X40172819Y-177887428D01*
X40172819Y-177887428D02*
X40125200Y-177744571D01*
X40125200Y-177744571D02*
X40029961Y-177649333D01*
X40029961Y-177649333D02*
X39934723Y-177601714D01*
X39934723Y-177601714D02*
X39744247Y-177554095D01*
X39744247Y-177554095D02*
X39601390Y-177554095D01*
X39601390Y-177554095D02*
X39410914Y-177601714D01*
X39410914Y-177601714D02*
X39315676Y-177649333D01*
X39315676Y-177649333D02*
X39220438Y-177744571D01*
X39220438Y-177744571D02*
X39172819Y-177887428D01*
X39172819Y-177887428D02*
X39172819Y-177982666D01*
X39172819Y-177982666D02*
X39220438Y-178125523D01*
X39220438Y-178125523D02*
X39268057Y-178173142D01*
X40172819Y-179125523D02*
X40172819Y-178554095D01*
X40172819Y-178839809D02*
X39172819Y-178839809D01*
X39172819Y-178839809D02*
X39315676Y-178744571D01*
X39315676Y-178744571D02*
X39410914Y-178649333D01*
X39410914Y-178649333D02*
X39458533Y-178554095D01*
X39268057Y-179506476D02*
X39220438Y-179554095D01*
X39220438Y-179554095D02*
X39172819Y-179649333D01*
X39172819Y-179649333D02*
X39172819Y-179887428D01*
X39172819Y-179887428D02*
X39220438Y-179982666D01*
X39220438Y-179982666D02*
X39268057Y-180030285D01*
X39268057Y-180030285D02*
X39363295Y-180077904D01*
X39363295Y-180077904D02*
X39458533Y-180077904D01*
X39458533Y-180077904D02*
X39601390Y-180030285D01*
X39601390Y-180030285D02*
X40172819Y-179458857D01*
X40172819Y-179458857D02*
X40172819Y-180077904D01*
X354621904Y-175854819D02*
X354621904Y-176664342D01*
X354621904Y-176664342D02*
X354574285Y-176759580D01*
X354574285Y-176759580D02*
X354526666Y-176807200D01*
X354526666Y-176807200D02*
X354431428Y-176854819D01*
X354431428Y-176854819D02*
X354240952Y-176854819D01*
X354240952Y-176854819D02*
X354145714Y-176807200D01*
X354145714Y-176807200D02*
X354098095Y-176759580D01*
X354098095Y-176759580D02*
X354050476Y-176664342D01*
X354050476Y-176664342D02*
X354050476Y-175854819D01*
X353050476Y-176854819D02*
X353621904Y-176854819D01*
X353336190Y-176854819D02*
X353336190Y-175854819D01*
X353336190Y-175854819D02*
X353431428Y-175997676D01*
X353431428Y-175997676D02*
X353526666Y-176092914D01*
X353526666Y-176092914D02*
X353621904Y-176140533D01*
X343131733Y-172354019D02*
X343131733Y-173068304D01*
X343131733Y-173068304D02*
X343179352Y-173211161D01*
X343179352Y-173211161D02*
X343274590Y-173306400D01*
X343274590Y-173306400D02*
X343417447Y-173354019D01*
X343417447Y-173354019D02*
X343512685Y-173354019D01*
X342703161Y-172449257D02*
X342655542Y-172401638D01*
X342655542Y-172401638D02*
X342560304Y-172354019D01*
X342560304Y-172354019D02*
X342322209Y-172354019D01*
X342322209Y-172354019D02*
X342226971Y-172401638D01*
X342226971Y-172401638D02*
X342179352Y-172449257D01*
X342179352Y-172449257D02*
X342131733Y-172544495D01*
X342131733Y-172544495D02*
X342131733Y-172639733D01*
X342131733Y-172639733D02*
X342179352Y-172782590D01*
X342179352Y-172782590D02*
X342750780Y-173354019D01*
X342750780Y-173354019D02*
X342131733Y-173354019D01*
X38280933Y-172455619D02*
X38280933Y-173169904D01*
X38280933Y-173169904D02*
X38328552Y-173312761D01*
X38328552Y-173312761D02*
X38423790Y-173408000D01*
X38423790Y-173408000D02*
X38566647Y-173455619D01*
X38566647Y-173455619D02*
X38661885Y-173455619D01*
X37899980Y-172455619D02*
X37233314Y-172455619D01*
X37233314Y-172455619D02*
X37661885Y-173455619D01*
X383238333Y-151322819D02*
X383238333Y-152037104D01*
X383238333Y-152037104D02*
X383285952Y-152179961D01*
X383285952Y-152179961D02*
X383381190Y-152275200D01*
X383381190Y-152275200D02*
X383524047Y-152322819D01*
X383524047Y-152322819D02*
X383619285Y-152322819D01*
X382238333Y-152322819D02*
X382809761Y-152322819D01*
X382524047Y-152322819D02*
X382524047Y-151322819D01*
X382524047Y-151322819D02*
X382619285Y-151465676D01*
X382619285Y-151465676D02*
X382714523Y-151560914D01*
X382714523Y-151560914D02*
X382809761Y-151608533D01*
D11*
%TO.C,U6*%
X51568000Y-178016000D02*
X51568000Y-177216000D01*
X51568000Y-177216000D02*
X50768000Y-177216000D01*
X51318000Y-180166000D02*
X46218000Y-180166000D01*
X51318000Y-177466000D02*
X51318000Y-180166000D01*
X46218000Y-180166000D02*
X46218000Y-177466000D01*
X46218000Y-177466000D02*
X51318000Y-177466000D01*
%TO.C,C10*%
X56386000Y-178715580D02*
X56386000Y-178434420D01*
X57406000Y-178715580D02*
X57406000Y-178434420D01*
%TO.C,C3*%
X360678000Y-178715580D02*
X360678000Y-178434420D01*
X361698000Y-178715580D02*
X361698000Y-178434420D01*
%TO.C,C1*%
X345946000Y-178434420D02*
X345946000Y-178715580D01*
X346966000Y-178434420D02*
X346966000Y-178715580D01*
%TO.C,C12*%
X41658000Y-178675420D02*
X41658000Y-178956580D01*
X40638000Y-178675420D02*
X40638000Y-178956580D01*
%TO.C,U1*%
X356660000Y-177800000D02*
X356660000Y-177000000D01*
X356660000Y-177000000D02*
X355860000Y-177000000D01*
X356410000Y-179950000D02*
X351310000Y-179950000D01*
X356410000Y-177250000D02*
X356410000Y-179950000D01*
X351310000Y-179950000D02*
X351310000Y-177250000D01*
X351310000Y-177250000D02*
X356410000Y-177250000D01*
%TO.C,J2*%
X341468400Y-156099200D02*
X344128400Y-156099200D01*
X341468400Y-168859200D02*
X341468400Y-156099200D01*
X341468400Y-168859200D02*
X344128400Y-168859200D01*
X342798400Y-171459200D02*
X344128400Y-171459200D01*
X344128400Y-168859200D02*
X344128400Y-156099200D01*
X344128400Y-171459200D02*
X344128400Y-170129200D01*
%TO.C,J7*%
X36617600Y-156200800D02*
X39277600Y-156200800D01*
X36617600Y-168960800D02*
X36617600Y-156200800D01*
X36617600Y-168960800D02*
X39277600Y-168960800D01*
X37947600Y-171560800D02*
X39277600Y-171560800D01*
X39277600Y-168960800D02*
X39277600Y-156200800D01*
X39277600Y-171560800D02*
X39277600Y-170230800D01*
%TO.C,J1*%
X380305000Y-99508000D02*
X385505000Y-99508000D01*
X380305000Y-150428000D02*
X380305000Y-99508000D01*
X380305000Y-150428000D02*
X382905000Y-150428000D01*
X382905000Y-147828000D02*
X385505000Y-147828000D01*
X382905000Y-150428000D02*
X382905000Y-147828000D01*
X384175000Y-150428000D02*
X385505000Y-150428000D01*
X385505000Y-147828000D02*
X385505000Y-99508000D01*
X385505000Y-150428000D02*
X385505000Y-149098000D01*
%TD*%
M02*
