M48
; DRILL file {KiCad 7.0.10} date Mon Feb  5 00:37:39 2024
; FORMAT={-:-/ absolute / inch / decimal}
; #@! TF.CreationDate,2024-02-05T00:37:39+00:00
; #@! TF.GenerationSoftware,Kicad,Pcbnew,7.0.10
; #@! TF.FileFunction,Plated,1,2,PTH
FMAT,2
INCH
; #@! TA.AperFunction,Plated,PTH,ViaDrill
T1C0.0157
; #@! TA.AperFunction,Plated,PTH,ComponentDrill
T2C0.0394
; #@! TA.AperFunction,Plated,PTH,ComponentDrill
T3C0.1693
%
G90
G05
T1
X1.41Y-5.515
X1.465Y-4.225
X1.465Y-5.515
X1.465Y-5.565
X1.5Y-4.255
X1.5Y-5.94
X1.53Y-7.01
X1.545Y-4.205
X1.6553Y-5.9748
X1.705Y-4.03
X1.7063Y-4.2146
X1.7124Y-6.4
X1.745Y-6.305
X1.78Y-6.205
X1.92Y-4.08
X2.0863Y-4.1446
X2.15Y-6.98
X2.185Y-5.48
X2.2303Y-4.3036
X2.2403Y-4.8556
X2.33Y-4.6
X2.41Y-6.97
X2.44Y-4.82
X2.5Y-6.93
X2.5128Y-4.8628
X2.61Y-4.6
X5.269Y-5.4634
X5.27Y-4.0606
X5.325Y-4.0456
X5.325Y-5.9423
X5.535Y-4.205
X5.659Y-5.9748
X5.71Y-4.2156
X5.925Y-4.075
X6.09Y-4.1456
X6.189Y-5.4638
X6.234Y-4.3046
X6.244Y-4.8556
X6.375Y-4.715
X6.59Y-4.715
X9.265Y-5.4638
X9.266Y-4.061
X9.321Y-4.046
X9.325Y-5.9423
X9.535Y-4.205
X9.655Y-5.9748
X9.706Y-4.216
X9.92Y-4.07
X10.086Y-4.146
X10.185Y-5.505
X10.23Y-4.305
X10.24Y-4.8556
X10.728Y-5.9748
X10.73Y-5.05
X10.905Y-5.05
X10.906Y-5.9423
X11.095Y-5.05
X11.095Y-5.442
X11.27Y-5.05
X11.27Y-5.385
X11.445Y-5.05
X11.445Y-5.415
X11.62Y-5.05
X11.62Y-5.3756
X12.155Y-5.53
X12.16Y-5.05
X12.335Y-5.05
X12.335Y-5.4638
X12.54Y-5.045
X12.565Y-5.5507
X12.71Y-5.485
X12.715Y-5.05
X13.275Y-4.06
X13.275Y-4.4144
X13.33Y-4.045
X13.33Y-5.9423
X13.545Y-4.205
X13.625Y-5.9423
X13.625Y-6.37
X13.665Y-5.9748
X13.665Y-6.46
X13.7Y-7.09
X13.71Y-6.37
X13.715Y-4.215
X13.75Y-6.298
X13.78Y-5.395
X13.785Y-6.2
X13.925Y-4.54
X13.93Y-4.08
X14.095Y-4.145
X14.13Y-4.76
X14.15Y-5.02
X14.15Y-5.5074
X14.15Y-6.295
X14.215Y-4.8556
X14.22Y-4.29
X14.33Y-5.03
X14.364Y-5.1391
X14.385Y-4.605
X14.436Y-6.8438
X14.4699Y-6.8707
X14.47Y-6.9712
X14.47Y-5.795
X14.485Y-4.735
X14.495Y-5.03
X14.575Y-5.485
X14.6Y-4.77
X14.6Y-4.945
X14.665Y-5.0674
X14.675Y-4.59
X14.7Y-5.34
X14.705Y-5.1
X14.715Y-4.615
X14.745Y-5.12
X14.75Y-4.645
X14.785Y-5.145
X14.79Y-4.675
X14.795Y-5.9423
X14.81Y-5.622
X14.825Y-5.1706
X14.83Y-4.7049
X14.8374Y-5.7974
X14.8674Y-4.8676
X14.87Y-4.82
T2
X1.43Y-3.92
X1.494Y-6.202
X1.494Y-6.302
X1.494Y-6.402
X1.494Y-6.502
X1.494Y-6.602
X1.494Y-6.702
X1.53Y-3.92
X1.63Y-3.92
X1.73Y-3.92
X1.83Y-3.92
X1.93Y-3.92
X5.07Y-3.92
X5.17Y-3.92
X5.27Y-3.92
X5.37Y-3.92
X5.47Y-3.92
X5.57Y-3.92
X9.064Y-3.921
X9.164Y-3.921
X9.264Y-3.921
X9.364Y-3.921
X9.464Y-3.921
X9.564Y-3.921
X13.074Y-3.921
X13.174Y-3.921
X13.274Y-3.921
X13.374Y-3.921
X13.474Y-3.921
X13.496Y-6.198
X13.496Y-6.298
X13.496Y-6.398
X13.496Y-6.498
X13.496Y-6.598
X13.496Y-6.698
X13.574Y-3.921
X15.025Y-3.97
X15.025Y-4.07
X15.025Y-4.17
X15.025Y-4.27
X15.025Y-4.37
X15.025Y-4.47
X15.025Y-4.57
X15.025Y-4.67
X15.025Y-4.77
X15.025Y-4.87
X15.025Y-4.97
X15.025Y-5.07
X15.025Y-5.17
X15.025Y-5.27
X15.025Y-5.37
X15.025Y-5.47
X15.025Y-5.57
X15.025Y-5.67
X15.025Y-5.77
X15.025Y-5.87
X15.125Y-3.97
X15.125Y-4.07
X15.125Y-4.17
X15.125Y-4.27
X15.125Y-4.37
X15.125Y-4.47
X15.125Y-4.57
X15.125Y-4.67
X15.125Y-4.77
X15.125Y-4.87
X15.125Y-4.97
X15.125Y-5.07
X15.125Y-5.17
X15.125Y-5.27
X15.125Y-5.37
X15.125Y-5.47
X15.125Y-5.57
X15.125Y-5.67
X15.125Y-5.77
X15.125Y-5.87
T3
X2.365Y-7.365
X2.788Y-4.095
X7.922Y-5.748
X7.925Y-4.1
X12.224Y-4.096
X14.37Y-7.38
M30
