%TF.GenerationSoftware,KiCad,Pcbnew,7.0.10*%
%TF.CreationDate,2024-02-05T00:36:43+00:00*%
%TF.ProjectId,ContactlessPiPoweredDrumkit,436f6e74-6163-4746-9c65-73735069506f,rev?*%
%TF.SameCoordinates,Original*%
%TF.FileFunction,Profile,NP*%
%FSLAX46Y46*%
G04 Gerber Fmt 4.6, Leading zero omitted, Abs format (unit mm)*
G04 Created by KiCad (PCBNEW 7.0.10) date 2024-02-05 00:36:43*
%MOMM*%
%LPD*%
G01*
G04 APERTURE LIST*
%TA.AperFunction,Profile*%
%ADD10C,0.100000*%
%TD*%
G04 APERTURE END LIST*
D10*
X367475000Y-194310000D02*
G75*
G03*
X371475000Y-190310000I0J4000000D01*
G01*
X62675000Y-194310000D02*
G75*
G03*
X66675000Y-190310000I0J4000000D01*
G01*
X66675000Y-157670000D02*
X66675000Y-161290000D01*
X111315000Y-96520000D02*
X37465000Y-96520000D01*
X335915000Y-190310000D02*
G75*
G03*
X339915000Y-194310000I4000000J0D01*
G01*
X387985000Y-100520000D02*
G75*
G03*
X383985000Y-96520000I-4000000J0D01*
G01*
X375475000Y-153670000D02*
G75*
G03*
X371475000Y-157670000I0J-4000000D01*
G01*
X37465000Y-96520000D02*
X35115000Y-96520000D01*
X31115000Y-190310000D02*
G75*
G03*
X35115000Y-194310000I4000000J0D01*
G01*
X383985000Y-96520000D02*
X112395000Y-96520000D01*
X111315000Y-96520000D02*
X112395000Y-96520000D01*
X190945000Y-153670000D02*
X264795000Y-153670000D01*
X387985000Y-100520000D02*
X387985000Y-149670000D01*
X371475000Y-157670000D02*
X371475000Y-190310000D01*
X367475000Y-194310000D02*
X339915000Y-194310000D01*
X383985000Y-153670000D02*
G75*
G03*
X387985000Y-149670000I0J4000000D01*
G01*
X335915000Y-157670000D02*
G75*
G03*
X331915000Y-153670000I-4000000J0D01*
G01*
X35115000Y-96520000D02*
G75*
G03*
X31115000Y-100520000I0J-4000000D01*
G01*
X335915000Y-157670000D02*
X335915000Y-190310000D01*
X331915000Y-153670000D02*
X264795000Y-153670000D01*
X31115000Y-100520000D02*
X31115000Y-104140000D01*
X77025000Y-153670000D02*
X70675000Y-153670000D01*
X62675000Y-194310000D02*
X35115000Y-194310000D01*
X70675000Y-153670000D02*
G75*
G03*
X66675000Y-157670000I0J-4000000D01*
G01*
X383985000Y-153670000D02*
X375475000Y-153670000D01*
X77025000Y-153670000D02*
X190945000Y-153670000D01*
X66675000Y-190310000D02*
X66675000Y-161290000D01*
X31115000Y-190310000D02*
X31115000Y-104140000D01*
M02*
