%TF.GenerationSoftware,KiCad,Pcbnew,7.0.10*%
%TF.CreationDate,2024-02-05T00:36:43+00:00*%
%TF.ProjectId,ContactlessPiPoweredDrumkit,436f6e74-6163-4746-9c65-73735069506f,rev?*%
%TF.SameCoordinates,Original*%
%TF.FileFunction,Soldermask,Bot*%
%TF.FilePolarity,Negative*%
%FSLAX46Y46*%
G04 Gerber Fmt 4.6, Leading zero omitted, Abs format (unit mm)*
G04 Created by KiCad (PCBNEW 7.0.10) date 2024-02-05 00:36:43*
%MOMM*%
%LPD*%
G01*
G04 APERTURE LIST*
G04 Aperture macros list*
%AMRoundRect*
0 Rectangle with rounded corners*
0 $1 Rounding radius*
0 $2 $3 $4 $5 $6 $7 $8 $9 X,Y pos of 4 corners*
0 Add a 4 corners polygon primitive as box body*
4,1,4,$2,$3,$4,$5,$6,$7,$8,$9,$2,$3,0*
0 Add four circle primitives for the rounded corners*
1,1,$1+$1,$2,$3*
1,1,$1+$1,$4,$5*
1,1,$1+$1,$6,$7*
1,1,$1+$1,$8,$9*
0 Add four rect primitives between the rounded corners*
20,1,$1+$1,$2,$3,$4,$5,0*
20,1,$1+$1,$4,$5,$6,$7,0*
20,1,$1+$1,$6,$7,$8,$9,0*
20,1,$1+$1,$8,$9,$2,$3,0*%
G04 Aperture macros list end*
%ADD10R,1.700000X1.700000*%
%ADD11O,1.700000X1.700000*%
%ADD12C,4.700000*%
%ADD13C,7.500000*%
%ADD14RoundRect,0.062500X0.127500X0.062500X-0.127500X0.062500X-0.127500X-0.062500X0.127500X-0.062500X0*%
%ADD15RoundRect,0.125000X0.125000X0.125000X-0.125000X0.125000X-0.125000X-0.125000X0.125000X-0.125000X0*%
%ADD16RoundRect,0.225000X0.250000X-0.225000X0.250000X0.225000X-0.250000X0.225000X-0.250000X-0.225000X0*%
%ADD17RoundRect,0.225000X-0.250000X0.225000X-0.250000X-0.225000X0.250000X-0.225000X0.250000X0.225000X0*%
G04 APERTURE END LIST*
D10*
%TO.C,J6*%
X49022000Y-99568000D03*
D11*
X46482000Y-99568000D03*
X43942000Y-99568000D03*
X41402000Y-99568000D03*
X38862000Y-99568000D03*
X36322000Y-99568000D03*
%TD*%
D10*
%TO.C,J3*%
X344780000Y-99593000D03*
D11*
X342240000Y-99593000D03*
X339700000Y-99593000D03*
X337160000Y-99593000D03*
X334620000Y-99593000D03*
X332080000Y-99593000D03*
%TD*%
D12*
%TO.C,H1*%
X60071000Y-187071000D03*
D13*
X60071000Y-187071000D03*
%TD*%
D12*
%TO.C,H3*%
X201295000Y-104140000D03*
D13*
X201295000Y-104140000D03*
%TD*%
D10*
%TO.C,J5*%
X141478000Y-99568000D03*
D11*
X138938000Y-99568000D03*
X136398000Y-99568000D03*
X133858000Y-99568000D03*
X131318000Y-99568000D03*
X128778000Y-99568000D03*
%TD*%
D12*
%TO.C,H4*%
X201218800Y-145999200D03*
D13*
X201218800Y-145999200D03*
%TD*%
D10*
%TO.C,J4*%
X242926000Y-99593000D03*
D11*
X240386000Y-99593000D03*
X237846000Y-99593000D03*
X235306000Y-99593000D03*
X232766000Y-99593000D03*
X230226000Y-99593000D03*
%TD*%
D12*
%TO.C,H5*%
X310489600Y-104038400D03*
D13*
X310489600Y-104038400D03*
%TD*%
D12*
%TO.C,H6*%
X364998000Y-187452000D03*
D13*
X364998000Y-187452000D03*
%TD*%
D12*
%TO.C,H2*%
X70815200Y-104013000D03*
D13*
X70815200Y-104013000D03*
%TD*%
D14*
%TO.C,U6*%
X50508000Y-178141000D03*
D15*
X50368000Y-178016000D03*
X49568000Y-178016000D03*
X48768000Y-178016000D03*
X47968000Y-178016000D03*
X47168000Y-178016000D03*
X47168000Y-178816000D03*
X47168000Y-179616000D03*
X47968000Y-179616000D03*
X48768000Y-179616000D03*
X49568000Y-179616000D03*
X50368000Y-179616000D03*
X50368000Y-178816000D03*
%TD*%
D16*
%TO.C,C10*%
X56896000Y-179350000D03*
X56896000Y-177800000D03*
%TD*%
%TO.C,C3*%
X361188000Y-179350000D03*
X361188000Y-177800000D03*
%TD*%
D17*
%TO.C,C1*%
X346456000Y-179350000D03*
X346456000Y-177800000D03*
%TD*%
%TO.C,C12*%
X41148000Y-178041000D03*
X41148000Y-179591000D03*
%TD*%
D14*
%TO.C,U1*%
X355600000Y-177925000D03*
D15*
X355460000Y-177800000D03*
X354660000Y-177800000D03*
X353860000Y-177800000D03*
X353060000Y-177800000D03*
X352260000Y-177800000D03*
X352260000Y-178600000D03*
X352260000Y-179400000D03*
X353060000Y-179400000D03*
X353860000Y-179400000D03*
X354660000Y-179400000D03*
X355460000Y-179400000D03*
X355460000Y-178600000D03*
%TD*%
D10*
%TO.C,J2*%
X342798400Y-170129200D03*
D11*
X342798400Y-167589200D03*
X342798400Y-165049200D03*
X342798400Y-162509200D03*
X342798400Y-159969200D03*
X342798400Y-157429200D03*
%TD*%
D10*
%TO.C,J7*%
X37947600Y-170230800D03*
D11*
X37947600Y-167690800D03*
X37947600Y-165150800D03*
X37947600Y-162610800D03*
X37947600Y-160070800D03*
X37947600Y-157530800D03*
%TD*%
D10*
%TO.C,J1*%
X384175000Y-149098000D03*
D11*
X381635000Y-149098000D03*
X384175000Y-146558000D03*
X381635000Y-146558000D03*
X384175000Y-144018000D03*
X381635000Y-144018000D03*
X384175000Y-141478000D03*
X381635000Y-141478000D03*
X384175000Y-138938000D03*
X381635000Y-138938000D03*
X384175000Y-136398000D03*
X381635000Y-136398000D03*
X384175000Y-133858000D03*
X381635000Y-133858000D03*
X384175000Y-131318000D03*
X381635000Y-131318000D03*
X384175000Y-128778000D03*
X381635000Y-128778000D03*
X384175000Y-126238000D03*
X381635000Y-126238000D03*
X384175000Y-123698000D03*
X381635000Y-123698000D03*
X384175000Y-121158000D03*
X381635000Y-121158000D03*
X384175000Y-118618000D03*
X381635000Y-118618000D03*
X384175000Y-116078000D03*
X381635000Y-116078000D03*
X384175000Y-113538000D03*
X381635000Y-113538000D03*
X384175000Y-110998000D03*
X381635000Y-110998000D03*
X384175000Y-108458000D03*
X381635000Y-108458000D03*
X384175000Y-105918000D03*
X381635000Y-105918000D03*
X384175000Y-103378000D03*
X381635000Y-103378000D03*
X384175000Y-100838000D03*
X381635000Y-100838000D03*
%TD*%
M02*
