%TF.GenerationSoftware,KiCad,Pcbnew,7.0.10*%
%TF.CreationDate,2024-02-06T20:08:38+00:00*%
%TF.ProjectId,ContactlessPiPoweredDrumkit,436f6e74-6163-4746-9c65-73735069506f,REVA*%
%TF.SameCoordinates,Original*%
%TF.FileFunction,Paste,Bot*%
%TF.FilePolarity,Positive*%
%FSLAX46Y46*%
G04 Gerber Fmt 4.6, Leading zero omitted, Abs format (unit mm)*
G04 Created by KiCad (PCBNEW 7.0.10) date 2024-02-06 20:08:38*
%MOMM*%
%LPD*%
G01*
G04 APERTURE LIST*
G04 Aperture macros list*
%AMRoundRect*
0 Rectangle with rounded corners*
0 $1 Rounding radius*
0 $2 $3 $4 $5 $6 $7 $8 $9 X,Y pos of 4 corners*
0 Add a 4 corners polygon primitive as box body*
4,1,4,$2,$3,$4,$5,$6,$7,$8,$9,$2,$3,0*
0 Add four circle primitives for the rounded corners*
1,1,$1+$1,$2,$3*
1,1,$1+$1,$4,$5*
1,1,$1+$1,$6,$7*
1,1,$1+$1,$8,$9*
0 Add four rect primitives between the rounded corners*
20,1,$1+$1,$2,$3,$4,$5,0*
20,1,$1+$1,$4,$5,$6,$7,0*
20,1,$1+$1,$6,$7,$8,$9,0*
20,1,$1+$1,$8,$9,$2,$3,0*%
G04 Aperture macros list end*
%ADD10C,0.100000*%
%ADD11C,0.150000*%
%ADD12C,0.300000*%
%ADD13C,0.400000*%
%ADD14RoundRect,0.062500X0.127500X0.062500X-0.127500X0.062500X-0.127500X-0.062500X0.127500X-0.062500X0*%
%ADD15RoundRect,0.125000X0.125000X0.125000X-0.125000X0.125000X-0.125000X-0.125000X0.125000X-0.125000X0*%
%ADD16RoundRect,0.225000X0.250000X-0.225000X0.250000X0.225000X-0.250000X0.225000X-0.250000X-0.225000X0*%
%ADD17RoundRect,0.225000X-0.250000X0.225000X-0.250000X-0.225000X0.250000X-0.225000X0.250000X0.225000X0*%
G04 APERTURE END LIST*
D10*
D11*
X299989000Y-253002200D02*
X407989000Y-253002200D01*
X407989000Y-285002200D01*
X299989000Y-285002200D01*
X299989000Y-253002200D01*
D10*
D11*
X10000000Y-10000000D02*
X409989000Y-10000000D01*
X409989000Y-287002200D01*
X10000000Y-287002200D01*
X10000000Y-10000000D01*
D10*
D11*
X12000000Y-12000000D02*
X407989000Y-12000000D01*
X407989000Y-285002200D01*
X12000000Y-285002200D01*
X12000000Y-12000000D01*
D10*
D11*
X60000000Y-12000000D02*
X60000000Y-10000000D01*
D10*
D11*
X110000000Y-12000000D02*
X110000000Y-10000000D01*
D10*
D11*
X160000000Y-12000000D02*
X160000000Y-10000000D01*
D10*
D11*
X210000000Y-12000000D02*
X210000000Y-10000000D01*
D10*
D11*
X260000000Y-12000000D02*
X260000000Y-10000000D01*
D10*
D11*
X310000000Y-12000000D02*
X310000000Y-10000000D01*
D10*
D11*
X360000000Y-12000000D02*
X360000000Y-10000000D01*
D10*
D11*
X36089160Y-11593604D02*
X35346303Y-11593604D01*
X35717731Y-11593604D02*
X35717731Y-10293604D01*
X35717731Y-10293604D02*
X35593922Y-10479319D01*
X35593922Y-10479319D02*
X35470112Y-10603128D01*
X35470112Y-10603128D02*
X35346303Y-10665033D01*
D10*
D11*
X85346303Y-10417414D02*
X85408207Y-10355509D01*
X85408207Y-10355509D02*
X85532017Y-10293604D01*
X85532017Y-10293604D02*
X85841541Y-10293604D01*
X85841541Y-10293604D02*
X85965350Y-10355509D01*
X85965350Y-10355509D02*
X86027255Y-10417414D01*
X86027255Y-10417414D02*
X86089160Y-10541223D01*
X86089160Y-10541223D02*
X86089160Y-10665033D01*
X86089160Y-10665033D02*
X86027255Y-10850747D01*
X86027255Y-10850747D02*
X85284398Y-11593604D01*
X85284398Y-11593604D02*
X86089160Y-11593604D01*
D10*
D11*
X135284398Y-10293604D02*
X136089160Y-10293604D01*
X136089160Y-10293604D02*
X135655826Y-10788842D01*
X135655826Y-10788842D02*
X135841541Y-10788842D01*
X135841541Y-10788842D02*
X135965350Y-10850747D01*
X135965350Y-10850747D02*
X136027255Y-10912652D01*
X136027255Y-10912652D02*
X136089160Y-11036461D01*
X136089160Y-11036461D02*
X136089160Y-11345985D01*
X136089160Y-11345985D02*
X136027255Y-11469795D01*
X136027255Y-11469795D02*
X135965350Y-11531700D01*
X135965350Y-11531700D02*
X135841541Y-11593604D01*
X135841541Y-11593604D02*
X135470112Y-11593604D01*
X135470112Y-11593604D02*
X135346303Y-11531700D01*
X135346303Y-11531700D02*
X135284398Y-11469795D01*
D10*
D11*
X185965350Y-10726938D02*
X185965350Y-11593604D01*
X185655826Y-10231700D02*
X185346303Y-11160271D01*
X185346303Y-11160271D02*
X186151064Y-11160271D01*
D10*
D11*
X236027255Y-10293604D02*
X235408207Y-10293604D01*
X235408207Y-10293604D02*
X235346303Y-10912652D01*
X235346303Y-10912652D02*
X235408207Y-10850747D01*
X235408207Y-10850747D02*
X235532017Y-10788842D01*
X235532017Y-10788842D02*
X235841541Y-10788842D01*
X235841541Y-10788842D02*
X235965350Y-10850747D01*
X235965350Y-10850747D02*
X236027255Y-10912652D01*
X236027255Y-10912652D02*
X236089160Y-11036461D01*
X236089160Y-11036461D02*
X236089160Y-11345985D01*
X236089160Y-11345985D02*
X236027255Y-11469795D01*
X236027255Y-11469795D02*
X235965350Y-11531700D01*
X235965350Y-11531700D02*
X235841541Y-11593604D01*
X235841541Y-11593604D02*
X235532017Y-11593604D01*
X235532017Y-11593604D02*
X235408207Y-11531700D01*
X235408207Y-11531700D02*
X235346303Y-11469795D01*
D10*
D11*
X285965350Y-10293604D02*
X285717731Y-10293604D01*
X285717731Y-10293604D02*
X285593922Y-10355509D01*
X285593922Y-10355509D02*
X285532017Y-10417414D01*
X285532017Y-10417414D02*
X285408207Y-10603128D01*
X285408207Y-10603128D02*
X285346303Y-10850747D01*
X285346303Y-10850747D02*
X285346303Y-11345985D01*
X285346303Y-11345985D02*
X285408207Y-11469795D01*
X285408207Y-11469795D02*
X285470112Y-11531700D01*
X285470112Y-11531700D02*
X285593922Y-11593604D01*
X285593922Y-11593604D02*
X285841541Y-11593604D01*
X285841541Y-11593604D02*
X285965350Y-11531700D01*
X285965350Y-11531700D02*
X286027255Y-11469795D01*
X286027255Y-11469795D02*
X286089160Y-11345985D01*
X286089160Y-11345985D02*
X286089160Y-11036461D01*
X286089160Y-11036461D02*
X286027255Y-10912652D01*
X286027255Y-10912652D02*
X285965350Y-10850747D01*
X285965350Y-10850747D02*
X285841541Y-10788842D01*
X285841541Y-10788842D02*
X285593922Y-10788842D01*
X285593922Y-10788842D02*
X285470112Y-10850747D01*
X285470112Y-10850747D02*
X285408207Y-10912652D01*
X285408207Y-10912652D02*
X285346303Y-11036461D01*
D10*
D11*
X335284398Y-10293604D02*
X336151064Y-10293604D01*
X336151064Y-10293604D02*
X335593922Y-11593604D01*
D10*
D11*
X385593922Y-10850747D02*
X385470112Y-10788842D01*
X385470112Y-10788842D02*
X385408207Y-10726938D01*
X385408207Y-10726938D02*
X385346303Y-10603128D01*
X385346303Y-10603128D02*
X385346303Y-10541223D01*
X385346303Y-10541223D02*
X385408207Y-10417414D01*
X385408207Y-10417414D02*
X385470112Y-10355509D01*
X385470112Y-10355509D02*
X385593922Y-10293604D01*
X385593922Y-10293604D02*
X385841541Y-10293604D01*
X385841541Y-10293604D02*
X385965350Y-10355509D01*
X385965350Y-10355509D02*
X386027255Y-10417414D01*
X386027255Y-10417414D02*
X386089160Y-10541223D01*
X386089160Y-10541223D02*
X386089160Y-10603128D01*
X386089160Y-10603128D02*
X386027255Y-10726938D01*
X386027255Y-10726938D02*
X385965350Y-10788842D01*
X385965350Y-10788842D02*
X385841541Y-10850747D01*
X385841541Y-10850747D02*
X385593922Y-10850747D01*
X385593922Y-10850747D02*
X385470112Y-10912652D01*
X385470112Y-10912652D02*
X385408207Y-10974557D01*
X385408207Y-10974557D02*
X385346303Y-11098366D01*
X385346303Y-11098366D02*
X385346303Y-11345985D01*
X385346303Y-11345985D02*
X385408207Y-11469795D01*
X385408207Y-11469795D02*
X385470112Y-11531700D01*
X385470112Y-11531700D02*
X385593922Y-11593604D01*
X385593922Y-11593604D02*
X385841541Y-11593604D01*
X385841541Y-11593604D02*
X385965350Y-11531700D01*
X385965350Y-11531700D02*
X386027255Y-11469795D01*
X386027255Y-11469795D02*
X386089160Y-11345985D01*
X386089160Y-11345985D02*
X386089160Y-11098366D01*
X386089160Y-11098366D02*
X386027255Y-10974557D01*
X386027255Y-10974557D02*
X385965350Y-10912652D01*
X385965350Y-10912652D02*
X385841541Y-10850747D01*
D10*
D11*
X60000000Y-285002200D02*
X60000000Y-287002200D01*
D10*
D11*
X110000000Y-285002200D02*
X110000000Y-287002200D01*
D10*
D11*
X160000000Y-285002200D02*
X160000000Y-287002200D01*
D10*
D11*
X210000000Y-285002200D02*
X210000000Y-287002200D01*
D10*
D11*
X260000000Y-285002200D02*
X260000000Y-287002200D01*
D10*
D11*
X310000000Y-285002200D02*
X310000000Y-287002200D01*
D10*
D11*
X360000000Y-285002200D02*
X360000000Y-287002200D01*
D10*
D11*
X36089160Y-286595804D02*
X35346303Y-286595804D01*
X35717731Y-286595804D02*
X35717731Y-285295804D01*
X35717731Y-285295804D02*
X35593922Y-285481519D01*
X35593922Y-285481519D02*
X35470112Y-285605328D01*
X35470112Y-285605328D02*
X35346303Y-285667233D01*
D10*
D11*
X85346303Y-285419614D02*
X85408207Y-285357709D01*
X85408207Y-285357709D02*
X85532017Y-285295804D01*
X85532017Y-285295804D02*
X85841541Y-285295804D01*
X85841541Y-285295804D02*
X85965350Y-285357709D01*
X85965350Y-285357709D02*
X86027255Y-285419614D01*
X86027255Y-285419614D02*
X86089160Y-285543423D01*
X86089160Y-285543423D02*
X86089160Y-285667233D01*
X86089160Y-285667233D02*
X86027255Y-285852947D01*
X86027255Y-285852947D02*
X85284398Y-286595804D01*
X85284398Y-286595804D02*
X86089160Y-286595804D01*
D10*
D11*
X135284398Y-285295804D02*
X136089160Y-285295804D01*
X136089160Y-285295804D02*
X135655826Y-285791042D01*
X135655826Y-285791042D02*
X135841541Y-285791042D01*
X135841541Y-285791042D02*
X135965350Y-285852947D01*
X135965350Y-285852947D02*
X136027255Y-285914852D01*
X136027255Y-285914852D02*
X136089160Y-286038661D01*
X136089160Y-286038661D02*
X136089160Y-286348185D01*
X136089160Y-286348185D02*
X136027255Y-286471995D01*
X136027255Y-286471995D02*
X135965350Y-286533900D01*
X135965350Y-286533900D02*
X135841541Y-286595804D01*
X135841541Y-286595804D02*
X135470112Y-286595804D01*
X135470112Y-286595804D02*
X135346303Y-286533900D01*
X135346303Y-286533900D02*
X135284398Y-286471995D01*
D10*
D11*
X185965350Y-285729138D02*
X185965350Y-286595804D01*
X185655826Y-285233900D02*
X185346303Y-286162471D01*
X185346303Y-286162471D02*
X186151064Y-286162471D01*
D10*
D11*
X236027255Y-285295804D02*
X235408207Y-285295804D01*
X235408207Y-285295804D02*
X235346303Y-285914852D01*
X235346303Y-285914852D02*
X235408207Y-285852947D01*
X235408207Y-285852947D02*
X235532017Y-285791042D01*
X235532017Y-285791042D02*
X235841541Y-285791042D01*
X235841541Y-285791042D02*
X235965350Y-285852947D01*
X235965350Y-285852947D02*
X236027255Y-285914852D01*
X236027255Y-285914852D02*
X236089160Y-286038661D01*
X236089160Y-286038661D02*
X236089160Y-286348185D01*
X236089160Y-286348185D02*
X236027255Y-286471995D01*
X236027255Y-286471995D02*
X235965350Y-286533900D01*
X235965350Y-286533900D02*
X235841541Y-286595804D01*
X235841541Y-286595804D02*
X235532017Y-286595804D01*
X235532017Y-286595804D02*
X235408207Y-286533900D01*
X235408207Y-286533900D02*
X235346303Y-286471995D01*
D10*
D11*
X285965350Y-285295804D02*
X285717731Y-285295804D01*
X285717731Y-285295804D02*
X285593922Y-285357709D01*
X285593922Y-285357709D02*
X285532017Y-285419614D01*
X285532017Y-285419614D02*
X285408207Y-285605328D01*
X285408207Y-285605328D02*
X285346303Y-285852947D01*
X285346303Y-285852947D02*
X285346303Y-286348185D01*
X285346303Y-286348185D02*
X285408207Y-286471995D01*
X285408207Y-286471995D02*
X285470112Y-286533900D01*
X285470112Y-286533900D02*
X285593922Y-286595804D01*
X285593922Y-286595804D02*
X285841541Y-286595804D01*
X285841541Y-286595804D02*
X285965350Y-286533900D01*
X285965350Y-286533900D02*
X286027255Y-286471995D01*
X286027255Y-286471995D02*
X286089160Y-286348185D01*
X286089160Y-286348185D02*
X286089160Y-286038661D01*
X286089160Y-286038661D02*
X286027255Y-285914852D01*
X286027255Y-285914852D02*
X285965350Y-285852947D01*
X285965350Y-285852947D02*
X285841541Y-285791042D01*
X285841541Y-285791042D02*
X285593922Y-285791042D01*
X285593922Y-285791042D02*
X285470112Y-285852947D01*
X285470112Y-285852947D02*
X285408207Y-285914852D01*
X285408207Y-285914852D02*
X285346303Y-286038661D01*
D10*
D11*
X335284398Y-285295804D02*
X336151064Y-285295804D01*
X336151064Y-285295804D02*
X335593922Y-286595804D01*
D10*
D11*
X385593922Y-285852947D02*
X385470112Y-285791042D01*
X385470112Y-285791042D02*
X385408207Y-285729138D01*
X385408207Y-285729138D02*
X385346303Y-285605328D01*
X385346303Y-285605328D02*
X385346303Y-285543423D01*
X385346303Y-285543423D02*
X385408207Y-285419614D01*
X385408207Y-285419614D02*
X385470112Y-285357709D01*
X385470112Y-285357709D02*
X385593922Y-285295804D01*
X385593922Y-285295804D02*
X385841541Y-285295804D01*
X385841541Y-285295804D02*
X385965350Y-285357709D01*
X385965350Y-285357709D02*
X386027255Y-285419614D01*
X386027255Y-285419614D02*
X386089160Y-285543423D01*
X386089160Y-285543423D02*
X386089160Y-285605328D01*
X386089160Y-285605328D02*
X386027255Y-285729138D01*
X386027255Y-285729138D02*
X385965350Y-285791042D01*
X385965350Y-285791042D02*
X385841541Y-285852947D01*
X385841541Y-285852947D02*
X385593922Y-285852947D01*
X385593922Y-285852947D02*
X385470112Y-285914852D01*
X385470112Y-285914852D02*
X385408207Y-285976757D01*
X385408207Y-285976757D02*
X385346303Y-286100566D01*
X385346303Y-286100566D02*
X385346303Y-286348185D01*
X385346303Y-286348185D02*
X385408207Y-286471995D01*
X385408207Y-286471995D02*
X385470112Y-286533900D01*
X385470112Y-286533900D02*
X385593922Y-286595804D01*
X385593922Y-286595804D02*
X385841541Y-286595804D01*
X385841541Y-286595804D02*
X385965350Y-286533900D01*
X385965350Y-286533900D02*
X386027255Y-286471995D01*
X386027255Y-286471995D02*
X386089160Y-286348185D01*
X386089160Y-286348185D02*
X386089160Y-286100566D01*
X386089160Y-286100566D02*
X386027255Y-285976757D01*
X386027255Y-285976757D02*
X385965350Y-285914852D01*
X385965350Y-285914852D02*
X385841541Y-285852947D01*
D10*
D11*
X10000000Y-60000000D02*
X12000000Y-60000000D01*
D10*
D11*
X10000000Y-110000000D02*
X12000000Y-110000000D01*
D10*
D11*
X10000000Y-160000000D02*
X12000000Y-160000000D01*
D10*
D11*
X10000000Y-210000000D02*
X12000000Y-210000000D01*
D10*
D11*
X10000000Y-260000000D02*
X12000000Y-260000000D01*
D10*
D11*
X10690476Y-35222176D02*
X11309523Y-35222176D01*
X10566666Y-35593604D02*
X10999999Y-34293604D01*
X10999999Y-34293604D02*
X11433333Y-35593604D01*
D10*
D11*
X11092857Y-84912652D02*
X11278571Y-84974557D01*
X11278571Y-84974557D02*
X11340476Y-85036461D01*
X11340476Y-85036461D02*
X11402380Y-85160271D01*
X11402380Y-85160271D02*
X11402380Y-85345985D01*
X11402380Y-85345985D02*
X11340476Y-85469795D01*
X11340476Y-85469795D02*
X11278571Y-85531700D01*
X11278571Y-85531700D02*
X11154761Y-85593604D01*
X11154761Y-85593604D02*
X10659523Y-85593604D01*
X10659523Y-85593604D02*
X10659523Y-84293604D01*
X10659523Y-84293604D02*
X11092857Y-84293604D01*
X11092857Y-84293604D02*
X11216666Y-84355509D01*
X11216666Y-84355509D02*
X11278571Y-84417414D01*
X11278571Y-84417414D02*
X11340476Y-84541223D01*
X11340476Y-84541223D02*
X11340476Y-84665033D01*
X11340476Y-84665033D02*
X11278571Y-84788842D01*
X11278571Y-84788842D02*
X11216666Y-84850747D01*
X11216666Y-84850747D02*
X11092857Y-84912652D01*
X11092857Y-84912652D02*
X10659523Y-84912652D01*
D10*
D11*
X11402380Y-135469795D02*
X11340476Y-135531700D01*
X11340476Y-135531700D02*
X11154761Y-135593604D01*
X11154761Y-135593604D02*
X11030952Y-135593604D01*
X11030952Y-135593604D02*
X10845238Y-135531700D01*
X10845238Y-135531700D02*
X10721428Y-135407890D01*
X10721428Y-135407890D02*
X10659523Y-135284080D01*
X10659523Y-135284080D02*
X10597619Y-135036461D01*
X10597619Y-135036461D02*
X10597619Y-134850747D01*
X10597619Y-134850747D02*
X10659523Y-134603128D01*
X10659523Y-134603128D02*
X10721428Y-134479319D01*
X10721428Y-134479319D02*
X10845238Y-134355509D01*
X10845238Y-134355509D02*
X11030952Y-134293604D01*
X11030952Y-134293604D02*
X11154761Y-134293604D01*
X11154761Y-134293604D02*
X11340476Y-134355509D01*
X11340476Y-134355509D02*
X11402380Y-134417414D01*
D10*
D11*
X10659523Y-185593604D02*
X10659523Y-184293604D01*
X10659523Y-184293604D02*
X10969047Y-184293604D01*
X10969047Y-184293604D02*
X11154761Y-184355509D01*
X11154761Y-184355509D02*
X11278571Y-184479319D01*
X11278571Y-184479319D02*
X11340476Y-184603128D01*
X11340476Y-184603128D02*
X11402380Y-184850747D01*
X11402380Y-184850747D02*
X11402380Y-185036461D01*
X11402380Y-185036461D02*
X11340476Y-185284080D01*
X11340476Y-185284080D02*
X11278571Y-185407890D01*
X11278571Y-185407890D02*
X11154761Y-185531700D01*
X11154761Y-185531700D02*
X10969047Y-185593604D01*
X10969047Y-185593604D02*
X10659523Y-185593604D01*
D10*
D11*
X10721428Y-234912652D02*
X11154762Y-234912652D01*
X11340476Y-235593604D02*
X10721428Y-235593604D01*
X10721428Y-235593604D02*
X10721428Y-234293604D01*
X10721428Y-234293604D02*
X11340476Y-234293604D01*
D10*
D11*
X11185714Y-284912652D02*
X10752380Y-284912652D01*
X10752380Y-285593604D02*
X10752380Y-284293604D01*
X10752380Y-284293604D02*
X11371428Y-284293604D01*
D10*
D11*
X409989000Y-60000000D02*
X407989000Y-60000000D01*
D10*
D11*
X409989000Y-110000000D02*
X407989000Y-110000000D01*
D10*
D11*
X409989000Y-160000000D02*
X407989000Y-160000000D01*
D10*
D11*
X409989000Y-210000000D02*
X407989000Y-210000000D01*
D10*
D11*
X409989000Y-260000000D02*
X407989000Y-260000000D01*
D10*
D11*
X408679476Y-35222176D02*
X409298523Y-35222176D01*
X408555666Y-35593604D02*
X408988999Y-34293604D01*
X408988999Y-34293604D02*
X409422333Y-35593604D01*
D10*
D11*
X409081857Y-84912652D02*
X409267571Y-84974557D01*
X409267571Y-84974557D02*
X409329476Y-85036461D01*
X409329476Y-85036461D02*
X409391380Y-85160271D01*
X409391380Y-85160271D02*
X409391380Y-85345985D01*
X409391380Y-85345985D02*
X409329476Y-85469795D01*
X409329476Y-85469795D02*
X409267571Y-85531700D01*
X409267571Y-85531700D02*
X409143761Y-85593604D01*
X409143761Y-85593604D02*
X408648523Y-85593604D01*
X408648523Y-85593604D02*
X408648523Y-84293604D01*
X408648523Y-84293604D02*
X409081857Y-84293604D01*
X409081857Y-84293604D02*
X409205666Y-84355509D01*
X409205666Y-84355509D02*
X409267571Y-84417414D01*
X409267571Y-84417414D02*
X409329476Y-84541223D01*
X409329476Y-84541223D02*
X409329476Y-84665033D01*
X409329476Y-84665033D02*
X409267571Y-84788842D01*
X409267571Y-84788842D02*
X409205666Y-84850747D01*
X409205666Y-84850747D02*
X409081857Y-84912652D01*
X409081857Y-84912652D02*
X408648523Y-84912652D01*
D10*
D11*
X409391380Y-135469795D02*
X409329476Y-135531700D01*
X409329476Y-135531700D02*
X409143761Y-135593604D01*
X409143761Y-135593604D02*
X409019952Y-135593604D01*
X409019952Y-135593604D02*
X408834238Y-135531700D01*
X408834238Y-135531700D02*
X408710428Y-135407890D01*
X408710428Y-135407890D02*
X408648523Y-135284080D01*
X408648523Y-135284080D02*
X408586619Y-135036461D01*
X408586619Y-135036461D02*
X408586619Y-134850747D01*
X408586619Y-134850747D02*
X408648523Y-134603128D01*
X408648523Y-134603128D02*
X408710428Y-134479319D01*
X408710428Y-134479319D02*
X408834238Y-134355509D01*
X408834238Y-134355509D02*
X409019952Y-134293604D01*
X409019952Y-134293604D02*
X409143761Y-134293604D01*
X409143761Y-134293604D02*
X409329476Y-134355509D01*
X409329476Y-134355509D02*
X409391380Y-134417414D01*
D10*
D11*
X408648523Y-185593604D02*
X408648523Y-184293604D01*
X408648523Y-184293604D02*
X408958047Y-184293604D01*
X408958047Y-184293604D02*
X409143761Y-184355509D01*
X409143761Y-184355509D02*
X409267571Y-184479319D01*
X409267571Y-184479319D02*
X409329476Y-184603128D01*
X409329476Y-184603128D02*
X409391380Y-184850747D01*
X409391380Y-184850747D02*
X409391380Y-185036461D01*
X409391380Y-185036461D02*
X409329476Y-185284080D01*
X409329476Y-185284080D02*
X409267571Y-185407890D01*
X409267571Y-185407890D02*
X409143761Y-185531700D01*
X409143761Y-185531700D02*
X408958047Y-185593604D01*
X408958047Y-185593604D02*
X408648523Y-185593604D01*
D10*
D11*
X408710428Y-234912652D02*
X409143762Y-234912652D01*
X409329476Y-235593604D02*
X408710428Y-235593604D01*
X408710428Y-235593604D02*
X408710428Y-234293604D01*
X408710428Y-234293604D02*
X409329476Y-234293604D01*
D10*
D11*
X409174714Y-284912652D02*
X408741380Y-284912652D01*
X408741380Y-285593604D02*
X408741380Y-284293604D01*
X408741380Y-284293604D02*
X409360428Y-284293604D01*
D10*
D11*
X323444826Y-280788328D02*
X323444826Y-279288328D01*
X323444826Y-279288328D02*
X323801969Y-279288328D01*
X323801969Y-279288328D02*
X324016255Y-279359757D01*
X324016255Y-279359757D02*
X324159112Y-279502614D01*
X324159112Y-279502614D02*
X324230541Y-279645471D01*
X324230541Y-279645471D02*
X324301969Y-279931185D01*
X324301969Y-279931185D02*
X324301969Y-280145471D01*
X324301969Y-280145471D02*
X324230541Y-280431185D01*
X324230541Y-280431185D02*
X324159112Y-280574042D01*
X324159112Y-280574042D02*
X324016255Y-280716900D01*
X324016255Y-280716900D02*
X323801969Y-280788328D01*
X323801969Y-280788328D02*
X323444826Y-280788328D01*
X325587684Y-280788328D02*
X325587684Y-280002614D01*
X325587684Y-280002614D02*
X325516255Y-279859757D01*
X325516255Y-279859757D02*
X325373398Y-279788328D01*
X325373398Y-279788328D02*
X325087684Y-279788328D01*
X325087684Y-279788328D02*
X324944826Y-279859757D01*
X325587684Y-280716900D02*
X325444826Y-280788328D01*
X325444826Y-280788328D02*
X325087684Y-280788328D01*
X325087684Y-280788328D02*
X324944826Y-280716900D01*
X324944826Y-280716900D02*
X324873398Y-280574042D01*
X324873398Y-280574042D02*
X324873398Y-280431185D01*
X324873398Y-280431185D02*
X324944826Y-280288328D01*
X324944826Y-280288328D02*
X325087684Y-280216900D01*
X325087684Y-280216900D02*
X325444826Y-280216900D01*
X325444826Y-280216900D02*
X325587684Y-280145471D01*
X326087684Y-279788328D02*
X326659112Y-279788328D01*
X326301969Y-279288328D02*
X326301969Y-280574042D01*
X326301969Y-280574042D02*
X326373398Y-280716900D01*
X326373398Y-280716900D02*
X326516255Y-280788328D01*
X326516255Y-280788328D02*
X326659112Y-280788328D01*
X327730541Y-280716900D02*
X327587684Y-280788328D01*
X327587684Y-280788328D02*
X327301970Y-280788328D01*
X327301970Y-280788328D02*
X327159112Y-280716900D01*
X327159112Y-280716900D02*
X327087684Y-280574042D01*
X327087684Y-280574042D02*
X327087684Y-280002614D01*
X327087684Y-280002614D02*
X327159112Y-279859757D01*
X327159112Y-279859757D02*
X327301970Y-279788328D01*
X327301970Y-279788328D02*
X327587684Y-279788328D01*
X327587684Y-279788328D02*
X327730541Y-279859757D01*
X327730541Y-279859757D02*
X327801970Y-280002614D01*
X327801970Y-280002614D02*
X327801970Y-280145471D01*
X327801970Y-280145471D02*
X327087684Y-280288328D01*
X328444826Y-280645471D02*
X328516255Y-280716900D01*
X328516255Y-280716900D02*
X328444826Y-280788328D01*
X328444826Y-280788328D02*
X328373398Y-280716900D01*
X328373398Y-280716900D02*
X328444826Y-280645471D01*
X328444826Y-280645471D02*
X328444826Y-280788328D01*
X328444826Y-279859757D02*
X328516255Y-279931185D01*
X328516255Y-279931185D02*
X328444826Y-280002614D01*
X328444826Y-280002614D02*
X328373398Y-279931185D01*
X328373398Y-279931185D02*
X328444826Y-279859757D01*
X328444826Y-279859757D02*
X328444826Y-280002614D01*
X330230541Y-279431185D02*
X330301969Y-279359757D01*
X330301969Y-279359757D02*
X330444827Y-279288328D01*
X330444827Y-279288328D02*
X330801969Y-279288328D01*
X330801969Y-279288328D02*
X330944827Y-279359757D01*
X330944827Y-279359757D02*
X331016255Y-279431185D01*
X331016255Y-279431185D02*
X331087684Y-279574042D01*
X331087684Y-279574042D02*
X331087684Y-279716900D01*
X331087684Y-279716900D02*
X331016255Y-279931185D01*
X331016255Y-279931185D02*
X330159112Y-280788328D01*
X330159112Y-280788328D02*
X331087684Y-280788328D01*
X332801969Y-279216900D02*
X331516255Y-281145471D01*
X333944827Y-279788328D02*
X333944827Y-280788328D01*
X333587684Y-279216900D02*
X333230541Y-280288328D01*
X333230541Y-280288328D02*
X334159112Y-280288328D01*
X335801969Y-279216900D02*
X334516255Y-281145471D01*
X336230541Y-279431185D02*
X336301969Y-279359757D01*
X336301969Y-279359757D02*
X336444827Y-279288328D01*
X336444827Y-279288328D02*
X336801969Y-279288328D01*
X336801969Y-279288328D02*
X336944827Y-279359757D01*
X336944827Y-279359757D02*
X337016255Y-279431185D01*
X337016255Y-279431185D02*
X337087684Y-279574042D01*
X337087684Y-279574042D02*
X337087684Y-279716900D01*
X337087684Y-279716900D02*
X337016255Y-279931185D01*
X337016255Y-279931185D02*
X336159112Y-280788328D01*
X336159112Y-280788328D02*
X337087684Y-280788328D01*
X338016255Y-279288328D02*
X338159112Y-279288328D01*
X338159112Y-279288328D02*
X338301969Y-279359757D01*
X338301969Y-279359757D02*
X338373398Y-279431185D01*
X338373398Y-279431185D02*
X338444826Y-279574042D01*
X338444826Y-279574042D02*
X338516255Y-279859757D01*
X338516255Y-279859757D02*
X338516255Y-280216900D01*
X338516255Y-280216900D02*
X338444826Y-280502614D01*
X338444826Y-280502614D02*
X338373398Y-280645471D01*
X338373398Y-280645471D02*
X338301969Y-280716900D01*
X338301969Y-280716900D02*
X338159112Y-280788328D01*
X338159112Y-280788328D02*
X338016255Y-280788328D01*
X338016255Y-280788328D02*
X337873398Y-280716900D01*
X337873398Y-280716900D02*
X337801969Y-280645471D01*
X337801969Y-280645471D02*
X337730540Y-280502614D01*
X337730540Y-280502614D02*
X337659112Y-280216900D01*
X337659112Y-280216900D02*
X337659112Y-279859757D01*
X337659112Y-279859757D02*
X337730540Y-279574042D01*
X337730540Y-279574042D02*
X337801969Y-279431185D01*
X337801969Y-279431185D02*
X337873398Y-279359757D01*
X337873398Y-279359757D02*
X338016255Y-279288328D01*
X339087683Y-279431185D02*
X339159111Y-279359757D01*
X339159111Y-279359757D02*
X339301969Y-279288328D01*
X339301969Y-279288328D02*
X339659111Y-279288328D01*
X339659111Y-279288328D02*
X339801969Y-279359757D01*
X339801969Y-279359757D02*
X339873397Y-279431185D01*
X339873397Y-279431185D02*
X339944826Y-279574042D01*
X339944826Y-279574042D02*
X339944826Y-279716900D01*
X339944826Y-279716900D02*
X339873397Y-279931185D01*
X339873397Y-279931185D02*
X339016254Y-280788328D01*
X339016254Y-280788328D02*
X339944826Y-280788328D01*
X341230540Y-279788328D02*
X341230540Y-280788328D01*
X340873397Y-279216900D02*
X340516254Y-280288328D01*
X340516254Y-280288328D02*
X341444825Y-280288328D01*
D10*
D11*
X299989000Y-281502200D02*
X407989000Y-281502200D01*
D10*
D11*
X301444826Y-283588328D02*
X301444826Y-282088328D01*
X302301969Y-283588328D02*
X301659112Y-282731185D01*
X302301969Y-282088328D02*
X301444826Y-282945471D01*
X302944826Y-283588328D02*
X302944826Y-282588328D01*
X302944826Y-282088328D02*
X302873398Y-282159757D01*
X302873398Y-282159757D02*
X302944826Y-282231185D01*
X302944826Y-282231185D02*
X303016255Y-282159757D01*
X303016255Y-282159757D02*
X302944826Y-282088328D01*
X302944826Y-282088328D02*
X302944826Y-282231185D01*
X304516255Y-283445471D02*
X304444827Y-283516900D01*
X304444827Y-283516900D02*
X304230541Y-283588328D01*
X304230541Y-283588328D02*
X304087684Y-283588328D01*
X304087684Y-283588328D02*
X303873398Y-283516900D01*
X303873398Y-283516900D02*
X303730541Y-283374042D01*
X303730541Y-283374042D02*
X303659112Y-283231185D01*
X303659112Y-283231185D02*
X303587684Y-282945471D01*
X303587684Y-282945471D02*
X303587684Y-282731185D01*
X303587684Y-282731185D02*
X303659112Y-282445471D01*
X303659112Y-282445471D02*
X303730541Y-282302614D01*
X303730541Y-282302614D02*
X303873398Y-282159757D01*
X303873398Y-282159757D02*
X304087684Y-282088328D01*
X304087684Y-282088328D02*
X304230541Y-282088328D01*
X304230541Y-282088328D02*
X304444827Y-282159757D01*
X304444827Y-282159757D02*
X304516255Y-282231185D01*
X305801970Y-283588328D02*
X305801970Y-282802614D01*
X305801970Y-282802614D02*
X305730541Y-282659757D01*
X305730541Y-282659757D02*
X305587684Y-282588328D01*
X305587684Y-282588328D02*
X305301970Y-282588328D01*
X305301970Y-282588328D02*
X305159112Y-282659757D01*
X305801970Y-283516900D02*
X305659112Y-283588328D01*
X305659112Y-283588328D02*
X305301970Y-283588328D01*
X305301970Y-283588328D02*
X305159112Y-283516900D01*
X305159112Y-283516900D02*
X305087684Y-283374042D01*
X305087684Y-283374042D02*
X305087684Y-283231185D01*
X305087684Y-283231185D02*
X305159112Y-283088328D01*
X305159112Y-283088328D02*
X305301970Y-283016900D01*
X305301970Y-283016900D02*
X305659112Y-283016900D01*
X305659112Y-283016900D02*
X305801970Y-282945471D01*
X307159113Y-283588328D02*
X307159113Y-282088328D01*
X307159113Y-283516900D02*
X307016255Y-283588328D01*
X307016255Y-283588328D02*
X306730541Y-283588328D01*
X306730541Y-283588328D02*
X306587684Y-283516900D01*
X306587684Y-283516900D02*
X306516255Y-283445471D01*
X306516255Y-283445471D02*
X306444827Y-283302614D01*
X306444827Y-283302614D02*
X306444827Y-282874042D01*
X306444827Y-282874042D02*
X306516255Y-282731185D01*
X306516255Y-282731185D02*
X306587684Y-282659757D01*
X306587684Y-282659757D02*
X306730541Y-282588328D01*
X306730541Y-282588328D02*
X307016255Y-282588328D01*
X307016255Y-282588328D02*
X307159113Y-282659757D01*
X309016255Y-282802614D02*
X309516255Y-282802614D01*
X309730541Y-283588328D02*
X309016255Y-283588328D01*
X309016255Y-283588328D02*
X309016255Y-282088328D01*
X309016255Y-282088328D02*
X309730541Y-282088328D01*
X310373398Y-283445471D02*
X310444827Y-283516900D01*
X310444827Y-283516900D02*
X310373398Y-283588328D01*
X310373398Y-283588328D02*
X310301970Y-283516900D01*
X310301970Y-283516900D02*
X310373398Y-283445471D01*
X310373398Y-283445471D02*
X310373398Y-283588328D01*
X311087684Y-283588328D02*
X311087684Y-282088328D01*
X311087684Y-282088328D02*
X311444827Y-282088328D01*
X311444827Y-282088328D02*
X311659113Y-282159757D01*
X311659113Y-282159757D02*
X311801970Y-282302614D01*
X311801970Y-282302614D02*
X311873399Y-282445471D01*
X311873399Y-282445471D02*
X311944827Y-282731185D01*
X311944827Y-282731185D02*
X311944827Y-282945471D01*
X311944827Y-282945471D02*
X311873399Y-283231185D01*
X311873399Y-283231185D02*
X311801970Y-283374042D01*
X311801970Y-283374042D02*
X311659113Y-283516900D01*
X311659113Y-283516900D02*
X311444827Y-283588328D01*
X311444827Y-283588328D02*
X311087684Y-283588328D01*
X312587684Y-283445471D02*
X312659113Y-283516900D01*
X312659113Y-283516900D02*
X312587684Y-283588328D01*
X312587684Y-283588328D02*
X312516256Y-283516900D01*
X312516256Y-283516900D02*
X312587684Y-283445471D01*
X312587684Y-283445471D02*
X312587684Y-283588328D01*
X313230542Y-283159757D02*
X313944828Y-283159757D01*
X313087685Y-283588328D02*
X313587685Y-282088328D01*
X313587685Y-282088328D02*
X314087685Y-283588328D01*
X314587684Y-283445471D02*
X314659113Y-283516900D01*
X314659113Y-283516900D02*
X314587684Y-283588328D01*
X314587684Y-283588328D02*
X314516256Y-283516900D01*
X314516256Y-283516900D02*
X314587684Y-283445471D01*
X314587684Y-283445471D02*
X314587684Y-283588328D01*
X317587684Y-283588328D02*
X317587684Y-282088328D01*
X317730542Y-283016900D02*
X318159113Y-283588328D01*
X318159113Y-282588328D02*
X317587684Y-283159757D01*
X318801970Y-283588328D02*
X318801970Y-282588328D01*
X318801970Y-282088328D02*
X318730542Y-282159757D01*
X318730542Y-282159757D02*
X318801970Y-282231185D01*
X318801970Y-282231185D02*
X318873399Y-282159757D01*
X318873399Y-282159757D02*
X318801970Y-282088328D01*
X318801970Y-282088328D02*
X318801970Y-282231185D01*
X320159114Y-283516900D02*
X320016256Y-283588328D01*
X320016256Y-283588328D02*
X319730542Y-283588328D01*
X319730542Y-283588328D02*
X319587685Y-283516900D01*
X319587685Y-283516900D02*
X319516256Y-283445471D01*
X319516256Y-283445471D02*
X319444828Y-283302614D01*
X319444828Y-283302614D02*
X319444828Y-282874042D01*
X319444828Y-282874042D02*
X319516256Y-282731185D01*
X319516256Y-282731185D02*
X319587685Y-282659757D01*
X319587685Y-282659757D02*
X319730542Y-282588328D01*
X319730542Y-282588328D02*
X320016256Y-282588328D01*
X320016256Y-282588328D02*
X320159114Y-282659757D01*
X321444828Y-283588328D02*
X321444828Y-282802614D01*
X321444828Y-282802614D02*
X321373399Y-282659757D01*
X321373399Y-282659757D02*
X321230542Y-282588328D01*
X321230542Y-282588328D02*
X320944828Y-282588328D01*
X320944828Y-282588328D02*
X320801970Y-282659757D01*
X321444828Y-283516900D02*
X321301970Y-283588328D01*
X321301970Y-283588328D02*
X320944828Y-283588328D01*
X320944828Y-283588328D02*
X320801970Y-283516900D01*
X320801970Y-283516900D02*
X320730542Y-283374042D01*
X320730542Y-283374042D02*
X320730542Y-283231185D01*
X320730542Y-283231185D02*
X320801970Y-283088328D01*
X320801970Y-283088328D02*
X320944828Y-283016900D01*
X320944828Y-283016900D02*
X321301970Y-283016900D01*
X321301970Y-283016900D02*
X321444828Y-282945471D01*
X322801971Y-283588328D02*
X322801971Y-282088328D01*
X322801971Y-283516900D02*
X322659113Y-283588328D01*
X322659113Y-283588328D02*
X322373399Y-283588328D01*
X322373399Y-283588328D02*
X322230542Y-283516900D01*
X322230542Y-283516900D02*
X322159113Y-283445471D01*
X322159113Y-283445471D02*
X322087685Y-283302614D01*
X322087685Y-283302614D02*
X322087685Y-282874042D01*
X322087685Y-282874042D02*
X322159113Y-282731185D01*
X322159113Y-282731185D02*
X322230542Y-282659757D01*
X322230542Y-282659757D02*
X322373399Y-282588328D01*
X322373399Y-282588328D02*
X322659113Y-282588328D01*
X322659113Y-282588328D02*
X322801971Y-282659757D01*
X324516256Y-282088328D02*
X325516256Y-282088328D01*
X325516256Y-282088328D02*
X324873399Y-283588328D01*
X326087684Y-283445471D02*
X326159113Y-283516900D01*
X326159113Y-283516900D02*
X326087684Y-283588328D01*
X326087684Y-283588328D02*
X326016256Y-283516900D01*
X326016256Y-283516900D02*
X326087684Y-283445471D01*
X326087684Y-283445471D02*
X326087684Y-283588328D01*
X327087685Y-282088328D02*
X327230542Y-282088328D01*
X327230542Y-282088328D02*
X327373399Y-282159757D01*
X327373399Y-282159757D02*
X327444828Y-282231185D01*
X327444828Y-282231185D02*
X327516256Y-282374042D01*
X327516256Y-282374042D02*
X327587685Y-282659757D01*
X327587685Y-282659757D02*
X327587685Y-283016900D01*
X327587685Y-283016900D02*
X327516256Y-283302614D01*
X327516256Y-283302614D02*
X327444828Y-283445471D01*
X327444828Y-283445471D02*
X327373399Y-283516900D01*
X327373399Y-283516900D02*
X327230542Y-283588328D01*
X327230542Y-283588328D02*
X327087685Y-283588328D01*
X327087685Y-283588328D02*
X326944828Y-283516900D01*
X326944828Y-283516900D02*
X326873399Y-283445471D01*
X326873399Y-283445471D02*
X326801970Y-283302614D01*
X326801970Y-283302614D02*
X326730542Y-283016900D01*
X326730542Y-283016900D02*
X326730542Y-282659757D01*
X326730542Y-282659757D02*
X326801970Y-282374042D01*
X326801970Y-282374042D02*
X326873399Y-282231185D01*
X326873399Y-282231185D02*
X326944828Y-282159757D01*
X326944828Y-282159757D02*
X327087685Y-282088328D01*
X328230541Y-283445471D02*
X328301970Y-283516900D01*
X328301970Y-283516900D02*
X328230541Y-283588328D01*
X328230541Y-283588328D02*
X328159113Y-283516900D01*
X328159113Y-283516900D02*
X328230541Y-283445471D01*
X328230541Y-283445471D02*
X328230541Y-283588328D01*
X329730542Y-283588328D02*
X328873399Y-283588328D01*
X329301970Y-283588328D02*
X329301970Y-282088328D01*
X329301970Y-282088328D02*
X329159113Y-282302614D01*
X329159113Y-282302614D02*
X329016256Y-282445471D01*
X329016256Y-282445471D02*
X328873399Y-282516900D01*
X330659113Y-282088328D02*
X330801970Y-282088328D01*
X330801970Y-282088328D02*
X330944827Y-282159757D01*
X330944827Y-282159757D02*
X331016256Y-282231185D01*
X331016256Y-282231185D02*
X331087684Y-282374042D01*
X331087684Y-282374042D02*
X331159113Y-282659757D01*
X331159113Y-282659757D02*
X331159113Y-283016900D01*
X331159113Y-283016900D02*
X331087684Y-283302614D01*
X331087684Y-283302614D02*
X331016256Y-283445471D01*
X331016256Y-283445471D02*
X330944827Y-283516900D01*
X330944827Y-283516900D02*
X330801970Y-283588328D01*
X330801970Y-283588328D02*
X330659113Y-283588328D01*
X330659113Y-283588328D02*
X330516256Y-283516900D01*
X330516256Y-283516900D02*
X330444827Y-283445471D01*
X330444827Y-283445471D02*
X330373398Y-283302614D01*
X330373398Y-283302614D02*
X330301970Y-283016900D01*
X330301970Y-283016900D02*
X330301970Y-282659757D01*
X330301970Y-282659757D02*
X330373398Y-282374042D01*
X330373398Y-282374042D02*
X330444827Y-282231185D01*
X330444827Y-282231185D02*
X330516256Y-282159757D01*
X330516256Y-282159757D02*
X330659113Y-282088328D01*
D10*
D11*
X299989000Y-278502200D02*
X407989000Y-278502200D01*
D10*
D12*
X387400653Y-280780528D02*
X386900653Y-280066242D01*
X386543510Y-280780528D02*
X386543510Y-279280528D01*
X386543510Y-279280528D02*
X387114939Y-279280528D01*
X387114939Y-279280528D02*
X387257796Y-279351957D01*
X387257796Y-279351957D02*
X387329225Y-279423385D01*
X387329225Y-279423385D02*
X387400653Y-279566242D01*
X387400653Y-279566242D02*
X387400653Y-279780528D01*
X387400653Y-279780528D02*
X387329225Y-279923385D01*
X387329225Y-279923385D02*
X387257796Y-279994814D01*
X387257796Y-279994814D02*
X387114939Y-280066242D01*
X387114939Y-280066242D02*
X386543510Y-280066242D01*
X388614939Y-280709100D02*
X388472082Y-280780528D01*
X388472082Y-280780528D02*
X388186368Y-280780528D01*
X388186368Y-280780528D02*
X388043510Y-280709100D01*
X388043510Y-280709100D02*
X387972082Y-280566242D01*
X387972082Y-280566242D02*
X387972082Y-279994814D01*
X387972082Y-279994814D02*
X388043510Y-279851957D01*
X388043510Y-279851957D02*
X388186368Y-279780528D01*
X388186368Y-279780528D02*
X388472082Y-279780528D01*
X388472082Y-279780528D02*
X388614939Y-279851957D01*
X388614939Y-279851957D02*
X388686368Y-279994814D01*
X388686368Y-279994814D02*
X388686368Y-280137671D01*
X388686368Y-280137671D02*
X387972082Y-280280528D01*
X389186367Y-279780528D02*
X389543510Y-280780528D01*
X389543510Y-280780528D02*
X389900653Y-279780528D01*
X390472081Y-280637671D02*
X390543510Y-280709100D01*
X390543510Y-280709100D02*
X390472081Y-280780528D01*
X390472081Y-280780528D02*
X390400653Y-280709100D01*
X390400653Y-280709100D02*
X390472081Y-280637671D01*
X390472081Y-280637671D02*
X390472081Y-280780528D01*
X390472081Y-279851957D02*
X390543510Y-279923385D01*
X390543510Y-279923385D02*
X390472081Y-279994814D01*
X390472081Y-279994814D02*
X390400653Y-279923385D01*
X390400653Y-279923385D02*
X390472081Y-279851957D01*
X390472081Y-279851957D02*
X390472081Y-279994814D01*
X393186367Y-280780528D02*
X392686367Y-280066242D01*
X392329224Y-280780528D02*
X392329224Y-279280528D01*
X392329224Y-279280528D02*
X392900653Y-279280528D01*
X392900653Y-279280528D02*
X393043510Y-279351957D01*
X393043510Y-279351957D02*
X393114939Y-279423385D01*
X393114939Y-279423385D02*
X393186367Y-279566242D01*
X393186367Y-279566242D02*
X393186367Y-279780528D01*
X393186367Y-279780528D02*
X393114939Y-279923385D01*
X393114939Y-279923385D02*
X393043510Y-279994814D01*
X393043510Y-279994814D02*
X392900653Y-280066242D01*
X392900653Y-280066242D02*
X392329224Y-280066242D01*
X393829224Y-279994814D02*
X394329224Y-279994814D01*
X394543510Y-280780528D02*
X393829224Y-280780528D01*
X393829224Y-280780528D02*
X393829224Y-279280528D01*
X393829224Y-279280528D02*
X394543510Y-279280528D01*
X394972082Y-279280528D02*
X395472082Y-280780528D01*
X395472082Y-280780528D02*
X395972082Y-279280528D01*
X396400653Y-280351957D02*
X397114939Y-280351957D01*
X396257796Y-280780528D02*
X396757796Y-279280528D01*
X396757796Y-279280528D02*
X397257796Y-280780528D01*
D10*
D11*
X301373398Y-280716900D02*
X301587684Y-280788328D01*
X301587684Y-280788328D02*
X301944826Y-280788328D01*
X301944826Y-280788328D02*
X302087684Y-280716900D01*
X302087684Y-280716900D02*
X302159112Y-280645471D01*
X302159112Y-280645471D02*
X302230541Y-280502614D01*
X302230541Y-280502614D02*
X302230541Y-280359757D01*
X302230541Y-280359757D02*
X302159112Y-280216900D01*
X302159112Y-280216900D02*
X302087684Y-280145471D01*
X302087684Y-280145471D02*
X301944826Y-280074042D01*
X301944826Y-280074042D02*
X301659112Y-280002614D01*
X301659112Y-280002614D02*
X301516255Y-279931185D01*
X301516255Y-279931185D02*
X301444826Y-279859757D01*
X301444826Y-279859757D02*
X301373398Y-279716900D01*
X301373398Y-279716900D02*
X301373398Y-279574042D01*
X301373398Y-279574042D02*
X301444826Y-279431185D01*
X301444826Y-279431185D02*
X301516255Y-279359757D01*
X301516255Y-279359757D02*
X301659112Y-279288328D01*
X301659112Y-279288328D02*
X302016255Y-279288328D01*
X302016255Y-279288328D02*
X302230541Y-279359757D01*
X302873397Y-280788328D02*
X302873397Y-279788328D01*
X302873397Y-279288328D02*
X302801969Y-279359757D01*
X302801969Y-279359757D02*
X302873397Y-279431185D01*
X302873397Y-279431185D02*
X302944826Y-279359757D01*
X302944826Y-279359757D02*
X302873397Y-279288328D01*
X302873397Y-279288328D02*
X302873397Y-279431185D01*
X303444826Y-279788328D02*
X304230541Y-279788328D01*
X304230541Y-279788328D02*
X303444826Y-280788328D01*
X303444826Y-280788328D02*
X304230541Y-280788328D01*
X305373398Y-280716900D02*
X305230541Y-280788328D01*
X305230541Y-280788328D02*
X304944827Y-280788328D01*
X304944827Y-280788328D02*
X304801969Y-280716900D01*
X304801969Y-280716900D02*
X304730541Y-280574042D01*
X304730541Y-280574042D02*
X304730541Y-280002614D01*
X304730541Y-280002614D02*
X304801969Y-279859757D01*
X304801969Y-279859757D02*
X304944827Y-279788328D01*
X304944827Y-279788328D02*
X305230541Y-279788328D01*
X305230541Y-279788328D02*
X305373398Y-279859757D01*
X305373398Y-279859757D02*
X305444827Y-280002614D01*
X305444827Y-280002614D02*
X305444827Y-280145471D01*
X305444827Y-280145471D02*
X304730541Y-280288328D01*
X306087683Y-280645471D02*
X306159112Y-280716900D01*
X306159112Y-280716900D02*
X306087683Y-280788328D01*
X306087683Y-280788328D02*
X306016255Y-280716900D01*
X306016255Y-280716900D02*
X306087683Y-280645471D01*
X306087683Y-280645471D02*
X306087683Y-280788328D01*
X306087683Y-279859757D02*
X306159112Y-279931185D01*
X306159112Y-279931185D02*
X306087683Y-280002614D01*
X306087683Y-280002614D02*
X306016255Y-279931185D01*
X306016255Y-279931185D02*
X306087683Y-279859757D01*
X306087683Y-279859757D02*
X306087683Y-280002614D01*
X307873398Y-280359757D02*
X308587684Y-280359757D01*
X307730541Y-280788328D02*
X308230541Y-279288328D01*
X308230541Y-279288328D02*
X308730541Y-280788328D01*
X309087683Y-279288328D02*
X310016255Y-279288328D01*
X310016255Y-279288328D02*
X309516255Y-279859757D01*
X309516255Y-279859757D02*
X309730540Y-279859757D01*
X309730540Y-279859757D02*
X309873398Y-279931185D01*
X309873398Y-279931185D02*
X309944826Y-280002614D01*
X309944826Y-280002614D02*
X310016255Y-280145471D01*
X310016255Y-280145471D02*
X310016255Y-280502614D01*
X310016255Y-280502614D02*
X309944826Y-280645471D01*
X309944826Y-280645471D02*
X309873398Y-280716900D01*
X309873398Y-280716900D02*
X309730540Y-280788328D01*
X309730540Y-280788328D02*
X309301969Y-280788328D01*
X309301969Y-280788328D02*
X309159112Y-280716900D01*
X309159112Y-280716900D02*
X309087683Y-280645471D01*
D10*
D11*
X386444826Y-283588328D02*
X386444826Y-282088328D01*
X387801970Y-283588328D02*
X387801970Y-282088328D01*
X387801970Y-283516900D02*
X387659112Y-283588328D01*
X387659112Y-283588328D02*
X387373398Y-283588328D01*
X387373398Y-283588328D02*
X387230541Y-283516900D01*
X387230541Y-283516900D02*
X387159112Y-283445471D01*
X387159112Y-283445471D02*
X387087684Y-283302614D01*
X387087684Y-283302614D02*
X387087684Y-282874042D01*
X387087684Y-282874042D02*
X387159112Y-282731185D01*
X387159112Y-282731185D02*
X387230541Y-282659757D01*
X387230541Y-282659757D02*
X387373398Y-282588328D01*
X387373398Y-282588328D02*
X387659112Y-282588328D01*
X387659112Y-282588328D02*
X387801970Y-282659757D01*
X388516255Y-283445471D02*
X388587684Y-283516900D01*
X388587684Y-283516900D02*
X388516255Y-283588328D01*
X388516255Y-283588328D02*
X388444827Y-283516900D01*
X388444827Y-283516900D02*
X388516255Y-283445471D01*
X388516255Y-283445471D02*
X388516255Y-283588328D01*
X388516255Y-282659757D02*
X388587684Y-282731185D01*
X388587684Y-282731185D02*
X388516255Y-282802614D01*
X388516255Y-282802614D02*
X388444827Y-282731185D01*
X388444827Y-282731185D02*
X388516255Y-282659757D01*
X388516255Y-282659757D02*
X388516255Y-282802614D01*
X391159113Y-283588328D02*
X390301970Y-283588328D01*
X390730541Y-283588328D02*
X390730541Y-282088328D01*
X390730541Y-282088328D02*
X390587684Y-282302614D01*
X390587684Y-282302614D02*
X390444827Y-282445471D01*
X390444827Y-282445471D02*
X390301970Y-282516900D01*
X392873398Y-282016900D02*
X391587684Y-283945471D01*
X394159113Y-283588328D02*
X393301970Y-283588328D01*
X393730541Y-283588328D02*
X393730541Y-282088328D01*
X393730541Y-282088328D02*
X393587684Y-282302614D01*
X393587684Y-282302614D02*
X393444827Y-282445471D01*
X393444827Y-282445471D02*
X393301970Y-282516900D01*
D10*
D11*
X299989000Y-274502200D02*
X407989000Y-274502200D01*
D10*
D13*
X301680728Y-275206638D02*
X302823585Y-275206638D01*
X302002157Y-277206638D02*
X302252157Y-275206638D01*
X303240252Y-277206638D02*
X303406919Y-275873304D01*
X303490252Y-275206638D02*
X303383109Y-275301876D01*
X303383109Y-275301876D02*
X303466443Y-275397114D01*
X303466443Y-275397114D02*
X303573586Y-275301876D01*
X303573586Y-275301876D02*
X303490252Y-275206638D01*
X303490252Y-275206638D02*
X303466443Y-275397114D01*
X304073586Y-275873304D02*
X304835490Y-275873304D01*
X304442633Y-275206638D02*
X304228348Y-276920923D01*
X304228348Y-276920923D02*
X304299776Y-277111400D01*
X304299776Y-277111400D02*
X304478348Y-277206638D01*
X304478348Y-277206638D02*
X304668824Y-277206638D01*
X305621205Y-277206638D02*
X305442633Y-277111400D01*
X305442633Y-277111400D02*
X305371205Y-276920923D01*
X305371205Y-276920923D02*
X305585490Y-275206638D01*
X307156919Y-277111400D02*
X306954538Y-277206638D01*
X306954538Y-277206638D02*
X306573585Y-277206638D01*
X306573585Y-277206638D02*
X306395014Y-277111400D01*
X306395014Y-277111400D02*
X306323585Y-276920923D01*
X306323585Y-276920923D02*
X306418824Y-276159019D01*
X306418824Y-276159019D02*
X306537871Y-275968542D01*
X306537871Y-275968542D02*
X306740252Y-275873304D01*
X306740252Y-275873304D02*
X307121204Y-275873304D01*
X307121204Y-275873304D02*
X307299776Y-275968542D01*
X307299776Y-275968542D02*
X307371204Y-276159019D01*
X307371204Y-276159019D02*
X307347395Y-276349495D01*
X307347395Y-276349495D02*
X306371204Y-276539971D01*
X308121205Y-277016161D02*
X308204538Y-277111400D01*
X308204538Y-277111400D02*
X308097395Y-277206638D01*
X308097395Y-277206638D02*
X308014062Y-277111400D01*
X308014062Y-277111400D02*
X308121205Y-277016161D01*
X308121205Y-277016161D02*
X308097395Y-277206638D01*
X308252157Y-275968542D02*
X308335490Y-276063780D01*
X308335490Y-276063780D02*
X308228348Y-276159019D01*
X308228348Y-276159019D02*
X308145014Y-276063780D01*
X308145014Y-276063780D02*
X308252157Y-275968542D01*
X308252157Y-275968542D02*
X308228348Y-276159019D01*
X311049777Y-277968542D02*
X310966443Y-277873304D01*
X310966443Y-277873304D02*
X310811681Y-277587590D01*
X310811681Y-277587590D02*
X310740253Y-277397114D01*
X310740253Y-277397114D02*
X310680729Y-277111400D01*
X310680729Y-277111400D02*
X310645015Y-276635209D01*
X310645015Y-276635209D02*
X310692634Y-276254257D01*
X310692634Y-276254257D02*
X310847396Y-275778066D01*
X310847396Y-275778066D02*
X310978348Y-275492352D01*
X310978348Y-275492352D02*
X311097396Y-275301876D01*
X311097396Y-275301876D02*
X311323586Y-275016161D01*
X311323586Y-275016161D02*
X311430729Y-274920923D01*
X311906919Y-277206638D02*
X312156919Y-275206638D01*
X312061681Y-275968542D02*
X312264062Y-275873304D01*
X312264062Y-275873304D02*
X312645014Y-275873304D01*
X312645014Y-275873304D02*
X312823586Y-275968542D01*
X312823586Y-275968542D02*
X312906919Y-276063780D01*
X312906919Y-276063780D02*
X312978348Y-276254257D01*
X312978348Y-276254257D02*
X312906919Y-276825685D01*
X312906919Y-276825685D02*
X312787872Y-277016161D01*
X312787872Y-277016161D02*
X312680729Y-277111400D01*
X312680729Y-277111400D02*
X312478348Y-277206638D01*
X312478348Y-277206638D02*
X312097395Y-277206638D01*
X312097395Y-277206638D02*
X311918824Y-277111400D01*
X313692634Y-275873304D02*
X314002158Y-277206638D01*
X314645015Y-275873304D02*
X314002158Y-277206638D01*
X314002158Y-277206638D02*
X313752158Y-277682828D01*
X313752158Y-277682828D02*
X313645015Y-277778066D01*
X313645015Y-277778066D02*
X313442634Y-277873304D01*
X315121206Y-275873304D02*
X315883110Y-275873304D01*
X315490253Y-275206638D02*
X315275968Y-276920923D01*
X315275968Y-276920923D02*
X315347396Y-277111400D01*
X315347396Y-277111400D02*
X315525968Y-277206638D01*
X315525968Y-277206638D02*
X315716444Y-277206638D01*
X317156920Y-277111400D02*
X316954539Y-277206638D01*
X316954539Y-277206638D02*
X316573586Y-277206638D01*
X316573586Y-277206638D02*
X316395015Y-277111400D01*
X316395015Y-277111400D02*
X316323586Y-276920923D01*
X316323586Y-276920923D02*
X316418825Y-276159019D01*
X316418825Y-276159019D02*
X316537872Y-275968542D01*
X316537872Y-275968542D02*
X316740253Y-275873304D01*
X316740253Y-275873304D02*
X317121205Y-275873304D01*
X317121205Y-275873304D02*
X317299777Y-275968542D01*
X317299777Y-275968542D02*
X317371205Y-276159019D01*
X317371205Y-276159019D02*
X317347396Y-276349495D01*
X317347396Y-276349495D02*
X316371205Y-276539971D01*
X317811682Y-277968542D02*
X317918825Y-277873304D01*
X317918825Y-277873304D02*
X318145015Y-277587590D01*
X318145015Y-277587590D02*
X318264063Y-277397114D01*
X318264063Y-277397114D02*
X318395015Y-277111400D01*
X318395015Y-277111400D02*
X318549777Y-276635209D01*
X318549777Y-276635209D02*
X318597396Y-276254257D01*
X318597396Y-276254257D02*
X318561682Y-275778066D01*
X318561682Y-275778066D02*
X318502158Y-275492352D01*
X318502158Y-275492352D02*
X318430730Y-275301876D01*
X318430730Y-275301876D02*
X318275968Y-275016161D01*
X318275968Y-275016161D02*
X318192634Y-274920923D01*
X319454539Y-277016161D02*
X319537872Y-277111400D01*
X319537872Y-277111400D02*
X319430729Y-277206638D01*
X319430729Y-277206638D02*
X319347396Y-277111400D01*
X319347396Y-277111400D02*
X319454539Y-277016161D01*
X319454539Y-277016161D02*
X319430729Y-277206638D01*
X320264063Y-275873304D02*
X321025967Y-275873304D01*
X320633110Y-275206638D02*
X320418825Y-276920923D01*
X320418825Y-276920923D02*
X320490253Y-277111400D01*
X320490253Y-277111400D02*
X320668825Y-277206638D01*
X320668825Y-277206638D02*
X320859301Y-277206638D01*
X321525967Y-277206638D02*
X321775967Y-275206638D01*
X322383110Y-277206638D02*
X322514062Y-276159019D01*
X322514062Y-276159019D02*
X322442634Y-275968542D01*
X322442634Y-275968542D02*
X322264062Y-275873304D01*
X322264062Y-275873304D02*
X321978348Y-275873304D01*
X321978348Y-275873304D02*
X321775967Y-275968542D01*
X321775967Y-275968542D02*
X321668824Y-276063780D01*
X323335491Y-277206638D02*
X323502158Y-275873304D01*
X323585491Y-275206638D02*
X323478348Y-275301876D01*
X323478348Y-275301876D02*
X323561682Y-275397114D01*
X323561682Y-275397114D02*
X323668825Y-275301876D01*
X323668825Y-275301876D02*
X323585491Y-275206638D01*
X323585491Y-275206638D02*
X323561682Y-275397114D01*
X324204539Y-277111400D02*
X324383110Y-277206638D01*
X324383110Y-277206638D02*
X324764063Y-277206638D01*
X324764063Y-277206638D02*
X324966444Y-277111400D01*
X324966444Y-277111400D02*
X325085491Y-276920923D01*
X325085491Y-276920923D02*
X325097396Y-276825685D01*
X325097396Y-276825685D02*
X325025967Y-276635209D01*
X325025967Y-276635209D02*
X324847396Y-276539971D01*
X324847396Y-276539971D02*
X324561682Y-276539971D01*
X324561682Y-276539971D02*
X324383110Y-276444733D01*
X324383110Y-276444733D02*
X324311682Y-276254257D01*
X324311682Y-276254257D02*
X324323587Y-276159019D01*
X324323587Y-276159019D02*
X324442634Y-275968542D01*
X324442634Y-275968542D02*
X324645015Y-275873304D01*
X324645015Y-275873304D02*
X324930729Y-275873304D01*
X324930729Y-275873304D02*
X325109301Y-275968542D01*
X325930730Y-277016161D02*
X326014063Y-277111400D01*
X326014063Y-277111400D02*
X325906920Y-277206638D01*
X325906920Y-277206638D02*
X325823587Y-277111400D01*
X325823587Y-277111400D02*
X325930730Y-277016161D01*
X325930730Y-277016161D02*
X325906920Y-277206638D01*
X326859301Y-277206638D02*
X327109301Y-275206638D01*
X327014063Y-275968542D02*
X327216444Y-275873304D01*
X327216444Y-275873304D02*
X327597396Y-275873304D01*
X327597396Y-275873304D02*
X327775968Y-275968542D01*
X327775968Y-275968542D02*
X327859301Y-276063780D01*
X327859301Y-276063780D02*
X327930730Y-276254257D01*
X327930730Y-276254257D02*
X327859301Y-276825685D01*
X327859301Y-276825685D02*
X327740254Y-277016161D01*
X327740254Y-277016161D02*
X327633111Y-277111400D01*
X327633111Y-277111400D02*
X327430730Y-277206638D01*
X327430730Y-277206638D02*
X327049777Y-277206638D01*
X327049777Y-277206638D02*
X326871206Y-277111400D01*
X329442635Y-277111400D02*
X329240254Y-277206638D01*
X329240254Y-277206638D02*
X328859301Y-277206638D01*
X328859301Y-277206638D02*
X328680730Y-277111400D01*
X328680730Y-277111400D02*
X328609301Y-276920923D01*
X328609301Y-276920923D02*
X328704540Y-276159019D01*
X328704540Y-276159019D02*
X328823587Y-275968542D01*
X328823587Y-275968542D02*
X329025968Y-275873304D01*
X329025968Y-275873304D02*
X329406920Y-275873304D01*
X329406920Y-275873304D02*
X329585492Y-275968542D01*
X329585492Y-275968542D02*
X329656920Y-276159019D01*
X329656920Y-276159019D02*
X329633111Y-276349495D01*
X329633111Y-276349495D02*
X328656920Y-276539971D01*
X331240254Y-277206638D02*
X331371206Y-276159019D01*
X331371206Y-276159019D02*
X331299778Y-275968542D01*
X331299778Y-275968542D02*
X331121206Y-275873304D01*
X331121206Y-275873304D02*
X330740254Y-275873304D01*
X330740254Y-275873304D02*
X330537873Y-275968542D01*
X331252159Y-277111400D02*
X331049778Y-277206638D01*
X331049778Y-277206638D02*
X330573587Y-277206638D01*
X330573587Y-277206638D02*
X330395016Y-277111400D01*
X330395016Y-277111400D02*
X330323587Y-276920923D01*
X330323587Y-276920923D02*
X330347397Y-276730447D01*
X330347397Y-276730447D02*
X330466445Y-276539971D01*
X330466445Y-276539971D02*
X330668826Y-276444733D01*
X330668826Y-276444733D02*
X331145016Y-276444733D01*
X331145016Y-276444733D02*
X331347397Y-276349495D01*
X332073588Y-275873304D02*
X332835492Y-275873304D01*
X332442635Y-275206638D02*
X332228350Y-276920923D01*
X332228350Y-276920923D02*
X332299778Y-277111400D01*
X332299778Y-277111400D02*
X332478350Y-277206638D01*
X332478350Y-277206638D02*
X332668826Y-277206638D01*
D10*
D11*
X301944826Y-272602614D02*
X301444826Y-272602614D01*
X301444826Y-273388328D02*
X301444826Y-271888328D01*
X301444826Y-271888328D02*
X302159112Y-271888328D01*
X302730540Y-273388328D02*
X302730540Y-272388328D01*
X302730540Y-271888328D02*
X302659112Y-271959757D01*
X302659112Y-271959757D02*
X302730540Y-272031185D01*
X302730540Y-272031185D02*
X302801969Y-271959757D01*
X302801969Y-271959757D02*
X302730540Y-271888328D01*
X302730540Y-271888328D02*
X302730540Y-272031185D01*
X303659112Y-273388328D02*
X303516255Y-273316900D01*
X303516255Y-273316900D02*
X303444826Y-273174042D01*
X303444826Y-273174042D02*
X303444826Y-271888328D01*
X304801969Y-273316900D02*
X304659112Y-273388328D01*
X304659112Y-273388328D02*
X304373398Y-273388328D01*
X304373398Y-273388328D02*
X304230540Y-273316900D01*
X304230540Y-273316900D02*
X304159112Y-273174042D01*
X304159112Y-273174042D02*
X304159112Y-272602614D01*
X304159112Y-272602614D02*
X304230540Y-272459757D01*
X304230540Y-272459757D02*
X304373398Y-272388328D01*
X304373398Y-272388328D02*
X304659112Y-272388328D01*
X304659112Y-272388328D02*
X304801969Y-272459757D01*
X304801969Y-272459757D02*
X304873398Y-272602614D01*
X304873398Y-272602614D02*
X304873398Y-272745471D01*
X304873398Y-272745471D02*
X304159112Y-272888328D01*
X305516254Y-273245471D02*
X305587683Y-273316900D01*
X305587683Y-273316900D02*
X305516254Y-273388328D01*
X305516254Y-273388328D02*
X305444826Y-273316900D01*
X305444826Y-273316900D02*
X305516254Y-273245471D01*
X305516254Y-273245471D02*
X305516254Y-273388328D01*
X305516254Y-272459757D02*
X305587683Y-272531185D01*
X305587683Y-272531185D02*
X305516254Y-272602614D01*
X305516254Y-272602614D02*
X305444826Y-272531185D01*
X305444826Y-272531185D02*
X305516254Y-272459757D01*
X305516254Y-272459757D02*
X305516254Y-272602614D01*
X308230540Y-273245471D02*
X308159112Y-273316900D01*
X308159112Y-273316900D02*
X307944826Y-273388328D01*
X307944826Y-273388328D02*
X307801969Y-273388328D01*
X307801969Y-273388328D02*
X307587683Y-273316900D01*
X307587683Y-273316900D02*
X307444826Y-273174042D01*
X307444826Y-273174042D02*
X307373397Y-273031185D01*
X307373397Y-273031185D02*
X307301969Y-272745471D01*
X307301969Y-272745471D02*
X307301969Y-272531185D01*
X307301969Y-272531185D02*
X307373397Y-272245471D01*
X307373397Y-272245471D02*
X307444826Y-272102614D01*
X307444826Y-272102614D02*
X307587683Y-271959757D01*
X307587683Y-271959757D02*
X307801969Y-271888328D01*
X307801969Y-271888328D02*
X307944826Y-271888328D01*
X307944826Y-271888328D02*
X308159112Y-271959757D01*
X308159112Y-271959757D02*
X308230540Y-272031185D01*
X309087683Y-273388328D02*
X308944826Y-273316900D01*
X308944826Y-273316900D02*
X308873397Y-273245471D01*
X308873397Y-273245471D02*
X308801969Y-273102614D01*
X308801969Y-273102614D02*
X308801969Y-272674042D01*
X308801969Y-272674042D02*
X308873397Y-272531185D01*
X308873397Y-272531185D02*
X308944826Y-272459757D01*
X308944826Y-272459757D02*
X309087683Y-272388328D01*
X309087683Y-272388328D02*
X309301969Y-272388328D01*
X309301969Y-272388328D02*
X309444826Y-272459757D01*
X309444826Y-272459757D02*
X309516255Y-272531185D01*
X309516255Y-272531185D02*
X309587683Y-272674042D01*
X309587683Y-272674042D02*
X309587683Y-273102614D01*
X309587683Y-273102614D02*
X309516255Y-273245471D01*
X309516255Y-273245471D02*
X309444826Y-273316900D01*
X309444826Y-273316900D02*
X309301969Y-273388328D01*
X309301969Y-273388328D02*
X309087683Y-273388328D01*
X310230540Y-272388328D02*
X310230540Y-273388328D01*
X310230540Y-272531185D02*
X310301969Y-272459757D01*
X310301969Y-272459757D02*
X310444826Y-272388328D01*
X310444826Y-272388328D02*
X310659112Y-272388328D01*
X310659112Y-272388328D02*
X310801969Y-272459757D01*
X310801969Y-272459757D02*
X310873398Y-272602614D01*
X310873398Y-272602614D02*
X310873398Y-273388328D01*
X311373398Y-272388328D02*
X311944826Y-272388328D01*
X311587683Y-271888328D02*
X311587683Y-273174042D01*
X311587683Y-273174042D02*
X311659112Y-273316900D01*
X311659112Y-273316900D02*
X311801969Y-273388328D01*
X311801969Y-273388328D02*
X311944826Y-273388328D01*
X313087684Y-273388328D02*
X313087684Y-272602614D01*
X313087684Y-272602614D02*
X313016255Y-272459757D01*
X313016255Y-272459757D02*
X312873398Y-272388328D01*
X312873398Y-272388328D02*
X312587684Y-272388328D01*
X312587684Y-272388328D02*
X312444826Y-272459757D01*
X313087684Y-273316900D02*
X312944826Y-273388328D01*
X312944826Y-273388328D02*
X312587684Y-273388328D01*
X312587684Y-273388328D02*
X312444826Y-273316900D01*
X312444826Y-273316900D02*
X312373398Y-273174042D01*
X312373398Y-273174042D02*
X312373398Y-273031185D01*
X312373398Y-273031185D02*
X312444826Y-272888328D01*
X312444826Y-272888328D02*
X312587684Y-272816900D01*
X312587684Y-272816900D02*
X312944826Y-272816900D01*
X312944826Y-272816900D02*
X313087684Y-272745471D01*
X314444827Y-273316900D02*
X314301969Y-273388328D01*
X314301969Y-273388328D02*
X314016255Y-273388328D01*
X314016255Y-273388328D02*
X313873398Y-273316900D01*
X313873398Y-273316900D02*
X313801969Y-273245471D01*
X313801969Y-273245471D02*
X313730541Y-273102614D01*
X313730541Y-273102614D02*
X313730541Y-272674042D01*
X313730541Y-272674042D02*
X313801969Y-272531185D01*
X313801969Y-272531185D02*
X313873398Y-272459757D01*
X313873398Y-272459757D02*
X314016255Y-272388328D01*
X314016255Y-272388328D02*
X314301969Y-272388328D01*
X314301969Y-272388328D02*
X314444827Y-272459757D01*
X314873398Y-272388328D02*
X315444826Y-272388328D01*
X315087683Y-271888328D02*
X315087683Y-273174042D01*
X315087683Y-273174042D02*
X315159112Y-273316900D01*
X315159112Y-273316900D02*
X315301969Y-273388328D01*
X315301969Y-273388328D02*
X315444826Y-273388328D01*
X316159112Y-273388328D02*
X316016255Y-273316900D01*
X316016255Y-273316900D02*
X315944826Y-273174042D01*
X315944826Y-273174042D02*
X315944826Y-271888328D01*
X317301969Y-273316900D02*
X317159112Y-273388328D01*
X317159112Y-273388328D02*
X316873398Y-273388328D01*
X316873398Y-273388328D02*
X316730540Y-273316900D01*
X316730540Y-273316900D02*
X316659112Y-273174042D01*
X316659112Y-273174042D02*
X316659112Y-272602614D01*
X316659112Y-272602614D02*
X316730540Y-272459757D01*
X316730540Y-272459757D02*
X316873398Y-272388328D01*
X316873398Y-272388328D02*
X317159112Y-272388328D01*
X317159112Y-272388328D02*
X317301969Y-272459757D01*
X317301969Y-272459757D02*
X317373398Y-272602614D01*
X317373398Y-272602614D02*
X317373398Y-272745471D01*
X317373398Y-272745471D02*
X316659112Y-272888328D01*
X317944826Y-273316900D02*
X318087683Y-273388328D01*
X318087683Y-273388328D02*
X318373397Y-273388328D01*
X318373397Y-273388328D02*
X318516254Y-273316900D01*
X318516254Y-273316900D02*
X318587683Y-273174042D01*
X318587683Y-273174042D02*
X318587683Y-273102614D01*
X318587683Y-273102614D02*
X318516254Y-272959757D01*
X318516254Y-272959757D02*
X318373397Y-272888328D01*
X318373397Y-272888328D02*
X318159112Y-272888328D01*
X318159112Y-272888328D02*
X318016254Y-272816900D01*
X318016254Y-272816900D02*
X317944826Y-272674042D01*
X317944826Y-272674042D02*
X317944826Y-272602614D01*
X317944826Y-272602614D02*
X318016254Y-272459757D01*
X318016254Y-272459757D02*
X318159112Y-272388328D01*
X318159112Y-272388328D02*
X318373397Y-272388328D01*
X318373397Y-272388328D02*
X318516254Y-272459757D01*
X319159112Y-273316900D02*
X319301969Y-273388328D01*
X319301969Y-273388328D02*
X319587683Y-273388328D01*
X319587683Y-273388328D02*
X319730540Y-273316900D01*
X319730540Y-273316900D02*
X319801969Y-273174042D01*
X319801969Y-273174042D02*
X319801969Y-273102614D01*
X319801969Y-273102614D02*
X319730540Y-272959757D01*
X319730540Y-272959757D02*
X319587683Y-272888328D01*
X319587683Y-272888328D02*
X319373398Y-272888328D01*
X319373398Y-272888328D02*
X319230540Y-272816900D01*
X319230540Y-272816900D02*
X319159112Y-272674042D01*
X319159112Y-272674042D02*
X319159112Y-272602614D01*
X319159112Y-272602614D02*
X319230540Y-272459757D01*
X319230540Y-272459757D02*
X319373398Y-272388328D01*
X319373398Y-272388328D02*
X319587683Y-272388328D01*
X319587683Y-272388328D02*
X319730540Y-272459757D01*
X320444826Y-273388328D02*
X320444826Y-271888328D01*
X320444826Y-271888328D02*
X321016255Y-271888328D01*
X321016255Y-271888328D02*
X321159112Y-271959757D01*
X321159112Y-271959757D02*
X321230541Y-272031185D01*
X321230541Y-272031185D02*
X321301969Y-272174042D01*
X321301969Y-272174042D02*
X321301969Y-272388328D01*
X321301969Y-272388328D02*
X321230541Y-272531185D01*
X321230541Y-272531185D02*
X321159112Y-272602614D01*
X321159112Y-272602614D02*
X321016255Y-272674042D01*
X321016255Y-272674042D02*
X320444826Y-272674042D01*
X321944826Y-273388328D02*
X321944826Y-272388328D01*
X321944826Y-271888328D02*
X321873398Y-271959757D01*
X321873398Y-271959757D02*
X321944826Y-272031185D01*
X321944826Y-272031185D02*
X322016255Y-271959757D01*
X322016255Y-271959757D02*
X321944826Y-271888328D01*
X321944826Y-271888328D02*
X321944826Y-272031185D01*
X322659112Y-273388328D02*
X322659112Y-271888328D01*
X322659112Y-271888328D02*
X323230541Y-271888328D01*
X323230541Y-271888328D02*
X323373398Y-271959757D01*
X323373398Y-271959757D02*
X323444827Y-272031185D01*
X323444827Y-272031185D02*
X323516255Y-272174042D01*
X323516255Y-272174042D02*
X323516255Y-272388328D01*
X323516255Y-272388328D02*
X323444827Y-272531185D01*
X323444827Y-272531185D02*
X323373398Y-272602614D01*
X323373398Y-272602614D02*
X323230541Y-272674042D01*
X323230541Y-272674042D02*
X322659112Y-272674042D01*
X324373398Y-273388328D02*
X324230541Y-273316900D01*
X324230541Y-273316900D02*
X324159112Y-273245471D01*
X324159112Y-273245471D02*
X324087684Y-273102614D01*
X324087684Y-273102614D02*
X324087684Y-272674042D01*
X324087684Y-272674042D02*
X324159112Y-272531185D01*
X324159112Y-272531185D02*
X324230541Y-272459757D01*
X324230541Y-272459757D02*
X324373398Y-272388328D01*
X324373398Y-272388328D02*
X324587684Y-272388328D01*
X324587684Y-272388328D02*
X324730541Y-272459757D01*
X324730541Y-272459757D02*
X324801970Y-272531185D01*
X324801970Y-272531185D02*
X324873398Y-272674042D01*
X324873398Y-272674042D02*
X324873398Y-273102614D01*
X324873398Y-273102614D02*
X324801970Y-273245471D01*
X324801970Y-273245471D02*
X324730541Y-273316900D01*
X324730541Y-273316900D02*
X324587684Y-273388328D01*
X324587684Y-273388328D02*
X324373398Y-273388328D01*
X325373398Y-272388328D02*
X325659113Y-273388328D01*
X325659113Y-273388328D02*
X325944827Y-272674042D01*
X325944827Y-272674042D02*
X326230541Y-273388328D01*
X326230541Y-273388328D02*
X326516255Y-272388328D01*
X327659113Y-273316900D02*
X327516256Y-273388328D01*
X327516256Y-273388328D02*
X327230542Y-273388328D01*
X327230542Y-273388328D02*
X327087684Y-273316900D01*
X327087684Y-273316900D02*
X327016256Y-273174042D01*
X327016256Y-273174042D02*
X327016256Y-272602614D01*
X327016256Y-272602614D02*
X327087684Y-272459757D01*
X327087684Y-272459757D02*
X327230542Y-272388328D01*
X327230542Y-272388328D02*
X327516256Y-272388328D01*
X327516256Y-272388328D02*
X327659113Y-272459757D01*
X327659113Y-272459757D02*
X327730542Y-272602614D01*
X327730542Y-272602614D02*
X327730542Y-272745471D01*
X327730542Y-272745471D02*
X327016256Y-272888328D01*
X328373398Y-273388328D02*
X328373398Y-272388328D01*
X328373398Y-272674042D02*
X328444827Y-272531185D01*
X328444827Y-272531185D02*
X328516256Y-272459757D01*
X328516256Y-272459757D02*
X328659113Y-272388328D01*
X328659113Y-272388328D02*
X328801970Y-272388328D01*
X329873398Y-273316900D02*
X329730541Y-273388328D01*
X329730541Y-273388328D02*
X329444827Y-273388328D01*
X329444827Y-273388328D02*
X329301969Y-273316900D01*
X329301969Y-273316900D02*
X329230541Y-273174042D01*
X329230541Y-273174042D02*
X329230541Y-272602614D01*
X329230541Y-272602614D02*
X329301969Y-272459757D01*
X329301969Y-272459757D02*
X329444827Y-272388328D01*
X329444827Y-272388328D02*
X329730541Y-272388328D01*
X329730541Y-272388328D02*
X329873398Y-272459757D01*
X329873398Y-272459757D02*
X329944827Y-272602614D01*
X329944827Y-272602614D02*
X329944827Y-272745471D01*
X329944827Y-272745471D02*
X329230541Y-272888328D01*
X331230541Y-273388328D02*
X331230541Y-271888328D01*
X331230541Y-273316900D02*
X331087683Y-273388328D01*
X331087683Y-273388328D02*
X330801969Y-273388328D01*
X330801969Y-273388328D02*
X330659112Y-273316900D01*
X330659112Y-273316900D02*
X330587683Y-273245471D01*
X330587683Y-273245471D02*
X330516255Y-273102614D01*
X330516255Y-273102614D02*
X330516255Y-272674042D01*
X330516255Y-272674042D02*
X330587683Y-272531185D01*
X330587683Y-272531185D02*
X330659112Y-272459757D01*
X330659112Y-272459757D02*
X330801969Y-272388328D01*
X330801969Y-272388328D02*
X331087683Y-272388328D01*
X331087683Y-272388328D02*
X331230541Y-272459757D01*
X331944826Y-273388328D02*
X331944826Y-271888328D01*
X331944826Y-271888328D02*
X332301969Y-271888328D01*
X332301969Y-271888328D02*
X332516255Y-271959757D01*
X332516255Y-271959757D02*
X332659112Y-272102614D01*
X332659112Y-272102614D02*
X332730541Y-272245471D01*
X332730541Y-272245471D02*
X332801969Y-272531185D01*
X332801969Y-272531185D02*
X332801969Y-272745471D01*
X332801969Y-272745471D02*
X332730541Y-273031185D01*
X332730541Y-273031185D02*
X332659112Y-273174042D01*
X332659112Y-273174042D02*
X332516255Y-273316900D01*
X332516255Y-273316900D02*
X332301969Y-273388328D01*
X332301969Y-273388328D02*
X331944826Y-273388328D01*
X333444826Y-273388328D02*
X333444826Y-272388328D01*
X333444826Y-272674042D02*
X333516255Y-272531185D01*
X333516255Y-272531185D02*
X333587684Y-272459757D01*
X333587684Y-272459757D02*
X333730541Y-272388328D01*
X333730541Y-272388328D02*
X333873398Y-272388328D01*
X335016255Y-272388328D02*
X335016255Y-273388328D01*
X334373397Y-272388328D02*
X334373397Y-273174042D01*
X334373397Y-273174042D02*
X334444826Y-273316900D01*
X334444826Y-273316900D02*
X334587683Y-273388328D01*
X334587683Y-273388328D02*
X334801969Y-273388328D01*
X334801969Y-273388328D02*
X334944826Y-273316900D01*
X334944826Y-273316900D02*
X335016255Y-273245471D01*
X335730540Y-273388328D02*
X335730540Y-272388328D01*
X335730540Y-272531185D02*
X335801969Y-272459757D01*
X335801969Y-272459757D02*
X335944826Y-272388328D01*
X335944826Y-272388328D02*
X336159112Y-272388328D01*
X336159112Y-272388328D02*
X336301969Y-272459757D01*
X336301969Y-272459757D02*
X336373398Y-272602614D01*
X336373398Y-272602614D02*
X336373398Y-273388328D01*
X336373398Y-272602614D02*
X336444826Y-272459757D01*
X336444826Y-272459757D02*
X336587683Y-272388328D01*
X336587683Y-272388328D02*
X336801969Y-272388328D01*
X336801969Y-272388328D02*
X336944826Y-272459757D01*
X336944826Y-272459757D02*
X337016255Y-272602614D01*
X337016255Y-272602614D02*
X337016255Y-273388328D01*
X337730540Y-273388328D02*
X337730540Y-271888328D01*
X337873398Y-272816900D02*
X338301969Y-273388328D01*
X338301969Y-272388328D02*
X337730540Y-272959757D01*
X338944826Y-273388328D02*
X338944826Y-272388328D01*
X338944826Y-271888328D02*
X338873398Y-271959757D01*
X338873398Y-271959757D02*
X338944826Y-272031185D01*
X338944826Y-272031185D02*
X339016255Y-271959757D01*
X339016255Y-271959757D02*
X338944826Y-271888328D01*
X338944826Y-271888328D02*
X338944826Y-272031185D01*
X339444827Y-272388328D02*
X340016255Y-272388328D01*
X339659112Y-271888328D02*
X339659112Y-273174042D01*
X339659112Y-273174042D02*
X339730541Y-273316900D01*
X339730541Y-273316900D02*
X339873398Y-273388328D01*
X339873398Y-273388328D02*
X340016255Y-273388328D01*
X340516255Y-273245471D02*
X340587684Y-273316900D01*
X340587684Y-273316900D02*
X340516255Y-273388328D01*
X340516255Y-273388328D02*
X340444827Y-273316900D01*
X340444827Y-273316900D02*
X340516255Y-273245471D01*
X340516255Y-273245471D02*
X340516255Y-273388328D01*
X341230541Y-273388328D02*
X341230541Y-271888328D01*
X341373399Y-272816900D02*
X341801970Y-273388328D01*
X341801970Y-272388328D02*
X341230541Y-272959757D01*
X342444827Y-273388328D02*
X342444827Y-272388328D01*
X342444827Y-271888328D02*
X342373399Y-271959757D01*
X342373399Y-271959757D02*
X342444827Y-272031185D01*
X342444827Y-272031185D02*
X342516256Y-271959757D01*
X342516256Y-271959757D02*
X342444827Y-271888328D01*
X342444827Y-271888328D02*
X342444827Y-272031185D01*
X343801971Y-273316900D02*
X343659113Y-273388328D01*
X343659113Y-273388328D02*
X343373399Y-273388328D01*
X343373399Y-273388328D02*
X343230542Y-273316900D01*
X343230542Y-273316900D02*
X343159113Y-273245471D01*
X343159113Y-273245471D02*
X343087685Y-273102614D01*
X343087685Y-273102614D02*
X343087685Y-272674042D01*
X343087685Y-272674042D02*
X343159113Y-272531185D01*
X343159113Y-272531185D02*
X343230542Y-272459757D01*
X343230542Y-272459757D02*
X343373399Y-272388328D01*
X343373399Y-272388328D02*
X343659113Y-272388328D01*
X343659113Y-272388328D02*
X343801971Y-272459757D01*
X345087685Y-273388328D02*
X345087685Y-272602614D01*
X345087685Y-272602614D02*
X345016256Y-272459757D01*
X345016256Y-272459757D02*
X344873399Y-272388328D01*
X344873399Y-272388328D02*
X344587685Y-272388328D01*
X344587685Y-272388328D02*
X344444827Y-272459757D01*
X345087685Y-273316900D02*
X344944827Y-273388328D01*
X344944827Y-273388328D02*
X344587685Y-273388328D01*
X344587685Y-273388328D02*
X344444827Y-273316900D01*
X344444827Y-273316900D02*
X344373399Y-273174042D01*
X344373399Y-273174042D02*
X344373399Y-273031185D01*
X344373399Y-273031185D02*
X344444827Y-272888328D01*
X344444827Y-272888328D02*
X344587685Y-272816900D01*
X344587685Y-272816900D02*
X344944827Y-272816900D01*
X344944827Y-272816900D02*
X345087685Y-272745471D01*
X346444828Y-273388328D02*
X346444828Y-271888328D01*
X346444828Y-273316900D02*
X346301970Y-273388328D01*
X346301970Y-273388328D02*
X346016256Y-273388328D01*
X346016256Y-273388328D02*
X345873399Y-273316900D01*
X345873399Y-273316900D02*
X345801970Y-273245471D01*
X345801970Y-273245471D02*
X345730542Y-273102614D01*
X345730542Y-273102614D02*
X345730542Y-272674042D01*
X345730542Y-272674042D02*
X345801970Y-272531185D01*
X345801970Y-272531185D02*
X345873399Y-272459757D01*
X345873399Y-272459757D02*
X346016256Y-272388328D01*
X346016256Y-272388328D02*
X346301970Y-272388328D01*
X346301970Y-272388328D02*
X346444828Y-272459757D01*
X346801971Y-273531185D02*
X347944828Y-273531185D01*
X348301970Y-272388328D02*
X348301970Y-273888328D01*
X348301970Y-272459757D02*
X348444828Y-272388328D01*
X348444828Y-272388328D02*
X348730542Y-272388328D01*
X348730542Y-272388328D02*
X348873399Y-272459757D01*
X348873399Y-272459757D02*
X348944828Y-272531185D01*
X348944828Y-272531185D02*
X349016256Y-272674042D01*
X349016256Y-272674042D02*
X349016256Y-273102614D01*
X349016256Y-273102614D02*
X348944828Y-273245471D01*
X348944828Y-273245471D02*
X348873399Y-273316900D01*
X348873399Y-273316900D02*
X348730542Y-273388328D01*
X348730542Y-273388328D02*
X348444828Y-273388328D01*
X348444828Y-273388328D02*
X348301970Y-273316900D01*
X350301971Y-273316900D02*
X350159113Y-273388328D01*
X350159113Y-273388328D02*
X349873399Y-273388328D01*
X349873399Y-273388328D02*
X349730542Y-273316900D01*
X349730542Y-273316900D02*
X349659113Y-273245471D01*
X349659113Y-273245471D02*
X349587685Y-273102614D01*
X349587685Y-273102614D02*
X349587685Y-272674042D01*
X349587685Y-272674042D02*
X349659113Y-272531185D01*
X349659113Y-272531185D02*
X349730542Y-272459757D01*
X349730542Y-272459757D02*
X349873399Y-272388328D01*
X349873399Y-272388328D02*
X350159113Y-272388328D01*
X350159113Y-272388328D02*
X350301971Y-272459757D01*
X350944827Y-273388328D02*
X350944827Y-271888328D01*
X350944827Y-272459757D02*
X351087685Y-272388328D01*
X351087685Y-272388328D02*
X351373399Y-272388328D01*
X351373399Y-272388328D02*
X351516256Y-272459757D01*
X351516256Y-272459757D02*
X351587685Y-272531185D01*
X351587685Y-272531185D02*
X351659113Y-272674042D01*
X351659113Y-272674042D02*
X351659113Y-273102614D01*
X351659113Y-273102614D02*
X351587685Y-273245471D01*
X351587685Y-273245471D02*
X351516256Y-273316900D01*
X351516256Y-273316900D02*
X351373399Y-273388328D01*
X351373399Y-273388328D02*
X351087685Y-273388328D01*
X351087685Y-273388328D02*
X350944827Y-273316900D01*
D10*
D11*
X299989000Y-268502200D02*
X407989000Y-268502200D01*
D10*
D11*
X301373398Y-270616900D02*
X301587684Y-270688328D01*
X301587684Y-270688328D02*
X301944826Y-270688328D01*
X301944826Y-270688328D02*
X302087684Y-270616900D01*
X302087684Y-270616900D02*
X302159112Y-270545471D01*
X302159112Y-270545471D02*
X302230541Y-270402614D01*
X302230541Y-270402614D02*
X302230541Y-270259757D01*
X302230541Y-270259757D02*
X302159112Y-270116900D01*
X302159112Y-270116900D02*
X302087684Y-270045471D01*
X302087684Y-270045471D02*
X301944826Y-269974042D01*
X301944826Y-269974042D02*
X301659112Y-269902614D01*
X301659112Y-269902614D02*
X301516255Y-269831185D01*
X301516255Y-269831185D02*
X301444826Y-269759757D01*
X301444826Y-269759757D02*
X301373398Y-269616900D01*
X301373398Y-269616900D02*
X301373398Y-269474042D01*
X301373398Y-269474042D02*
X301444826Y-269331185D01*
X301444826Y-269331185D02*
X301516255Y-269259757D01*
X301516255Y-269259757D02*
X301659112Y-269188328D01*
X301659112Y-269188328D02*
X302016255Y-269188328D01*
X302016255Y-269188328D02*
X302230541Y-269259757D01*
X302873397Y-270688328D02*
X302873397Y-269188328D01*
X303516255Y-270688328D02*
X303516255Y-269902614D01*
X303516255Y-269902614D02*
X303444826Y-269759757D01*
X303444826Y-269759757D02*
X303301969Y-269688328D01*
X303301969Y-269688328D02*
X303087683Y-269688328D01*
X303087683Y-269688328D02*
X302944826Y-269759757D01*
X302944826Y-269759757D02*
X302873397Y-269831185D01*
X304801969Y-270616900D02*
X304659112Y-270688328D01*
X304659112Y-270688328D02*
X304373398Y-270688328D01*
X304373398Y-270688328D02*
X304230540Y-270616900D01*
X304230540Y-270616900D02*
X304159112Y-270474042D01*
X304159112Y-270474042D02*
X304159112Y-269902614D01*
X304159112Y-269902614D02*
X304230540Y-269759757D01*
X304230540Y-269759757D02*
X304373398Y-269688328D01*
X304373398Y-269688328D02*
X304659112Y-269688328D01*
X304659112Y-269688328D02*
X304801969Y-269759757D01*
X304801969Y-269759757D02*
X304873398Y-269902614D01*
X304873398Y-269902614D02*
X304873398Y-270045471D01*
X304873398Y-270045471D02*
X304159112Y-270188328D01*
X306087683Y-270616900D02*
X305944826Y-270688328D01*
X305944826Y-270688328D02*
X305659112Y-270688328D01*
X305659112Y-270688328D02*
X305516254Y-270616900D01*
X305516254Y-270616900D02*
X305444826Y-270474042D01*
X305444826Y-270474042D02*
X305444826Y-269902614D01*
X305444826Y-269902614D02*
X305516254Y-269759757D01*
X305516254Y-269759757D02*
X305659112Y-269688328D01*
X305659112Y-269688328D02*
X305944826Y-269688328D01*
X305944826Y-269688328D02*
X306087683Y-269759757D01*
X306087683Y-269759757D02*
X306159112Y-269902614D01*
X306159112Y-269902614D02*
X306159112Y-270045471D01*
X306159112Y-270045471D02*
X305444826Y-270188328D01*
X306587683Y-269688328D02*
X307159111Y-269688328D01*
X306801968Y-269188328D02*
X306801968Y-270474042D01*
X306801968Y-270474042D02*
X306873397Y-270616900D01*
X306873397Y-270616900D02*
X307016254Y-270688328D01*
X307016254Y-270688328D02*
X307159111Y-270688328D01*
X307659111Y-270545471D02*
X307730540Y-270616900D01*
X307730540Y-270616900D02*
X307659111Y-270688328D01*
X307659111Y-270688328D02*
X307587683Y-270616900D01*
X307587683Y-270616900D02*
X307659111Y-270545471D01*
X307659111Y-270545471D02*
X307659111Y-270688328D01*
X307659111Y-269759757D02*
X307730540Y-269831185D01*
X307730540Y-269831185D02*
X307659111Y-269902614D01*
X307659111Y-269902614D02*
X307587683Y-269831185D01*
X307587683Y-269831185D02*
X307659111Y-269759757D01*
X307659111Y-269759757D02*
X307659111Y-269902614D01*
D10*
D12*
D10*
D11*
D10*
D11*
D10*
D11*
D10*
D11*
D10*
D11*
X319989000Y-278502200D02*
X319989000Y-281502200D01*
D10*
D11*
X383989000Y-278502200D02*
X383989000Y-285002200D01*
D14*
%TO.C,U6*%
X50508000Y-178141000D03*
D15*
X50368000Y-178016000D03*
X49568000Y-178016000D03*
X48768000Y-178016000D03*
X47968000Y-178016000D03*
X47168000Y-178016000D03*
X47168000Y-178816000D03*
X47168000Y-179616000D03*
X47968000Y-179616000D03*
X48768000Y-179616000D03*
X49568000Y-179616000D03*
X50368000Y-179616000D03*
X50368000Y-178816000D03*
%TD*%
D16*
%TO.C,C10*%
X56896000Y-179350000D03*
X56896000Y-177800000D03*
%TD*%
%TO.C,C3*%
X361188000Y-179350000D03*
X361188000Y-177800000D03*
%TD*%
D17*
%TO.C,C1*%
X346456000Y-177800000D03*
X346456000Y-179350000D03*
%TD*%
%TO.C,C12*%
X41148000Y-178041000D03*
X41148000Y-179591000D03*
%TD*%
D14*
%TO.C,U1*%
X355600000Y-177925000D03*
D15*
X355460000Y-177800000D03*
X354660000Y-177800000D03*
X353860000Y-177800000D03*
X353060000Y-177800000D03*
X352260000Y-177800000D03*
X352260000Y-178600000D03*
X352260000Y-179400000D03*
X353060000Y-179400000D03*
X353860000Y-179400000D03*
X354660000Y-179400000D03*
X355460000Y-179400000D03*
X355460000Y-178600000D03*
%TD*%
M02*
