%TF.GenerationSoftware,KiCad,Pcbnew,7.0.10*%
%TF.CreationDate,2024-02-05T23:16:51+00:00*%
%TF.ProjectId,ContactlessPiPoweredDrumkit,436f6e74-6163-4746-9c65-73735069506f,REVA*%
%TF.SameCoordinates,Original*%
%TF.FileFunction,Paste,Top*%
%TF.FilePolarity,Positive*%
%FSLAX46Y46*%
G04 Gerber Fmt 4.6, Leading zero omitted, Abs format (unit mm)*
G04 Created by KiCad (PCBNEW 7.0.10) date 2024-02-05 23:16:51*
%MOMM*%
%LPD*%
G01*
G04 APERTURE LIST*
G04 Aperture macros list*
%AMRoundRect*
0 Rectangle with rounded corners*
0 $1 Rounding radius*
0 $2 $3 $4 $5 $6 $7 $8 $9 X,Y pos of 4 corners*
0 Add a 4 corners polygon primitive as box body*
4,1,4,$2,$3,$4,$5,$6,$7,$8,$9,$2,$3,0*
0 Add four circle primitives for the rounded corners*
1,1,$1+$1,$2,$3*
1,1,$1+$1,$4,$5*
1,1,$1+$1,$6,$7*
1,1,$1+$1,$8,$9*
0 Add four rect primitives between the rounded corners*
20,1,$1+$1,$2,$3,$4,$5,0*
20,1,$1+$1,$4,$5,$6,$7,0*
20,1,$1+$1,$6,$7,$8,$9,0*
20,1,$1+$1,$8,$9,$2,$3,0*%
G04 Aperture macros list end*
%ADD10C,0.100000*%
%ADD11C,0.150000*%
%ADD12C,0.300000*%
%ADD13C,0.400000*%
%ADD14RoundRect,0.200000X-0.275000X0.200000X-0.275000X-0.200000X0.275000X-0.200000X0.275000X0.200000X0*%
%ADD15RoundRect,0.225000X-0.250000X0.225000X-0.250000X-0.225000X0.250000X-0.225000X0.250000X0.225000X0*%
%ADD16R,1.500000X1.000000*%
%ADD17RoundRect,0.062500X-0.127500X-0.062500X0.127500X-0.062500X0.127500X0.062500X-0.127500X0.062500X0*%
%ADD18RoundRect,0.125000X-0.125000X-0.125000X0.125000X-0.125000X0.125000X0.125000X-0.125000X0.125000X0*%
%ADD19RoundRect,0.200000X0.200000X0.275000X-0.200000X0.275000X-0.200000X-0.275000X0.200000X-0.275000X0*%
%ADD20RoundRect,0.225000X0.250000X-0.225000X0.250000X0.225000X-0.250000X0.225000X-0.250000X-0.225000X0*%
%ADD21R,0.650000X0.400000*%
G04 APERTURE END LIST*
D10*
D11*
X299989000Y-253002200D02*
X407989000Y-253002200D01*
X407989000Y-285002200D01*
X299989000Y-285002200D01*
X299989000Y-253002200D01*
D10*
D11*
X10000000Y-10000000D02*
X409989000Y-10000000D01*
X409989000Y-287002200D01*
X10000000Y-287002200D01*
X10000000Y-10000000D01*
D10*
D11*
X12000000Y-12000000D02*
X407989000Y-12000000D01*
X407989000Y-285002200D01*
X12000000Y-285002200D01*
X12000000Y-12000000D01*
D10*
D11*
X60000000Y-12000000D02*
X60000000Y-10000000D01*
D10*
D11*
X110000000Y-12000000D02*
X110000000Y-10000000D01*
D10*
D11*
X160000000Y-12000000D02*
X160000000Y-10000000D01*
D10*
D11*
X210000000Y-12000000D02*
X210000000Y-10000000D01*
D10*
D11*
X260000000Y-12000000D02*
X260000000Y-10000000D01*
D10*
D11*
X310000000Y-12000000D02*
X310000000Y-10000000D01*
D10*
D11*
X360000000Y-12000000D02*
X360000000Y-10000000D01*
D10*
D11*
X36089160Y-11593604D02*
X35346303Y-11593604D01*
X35717731Y-11593604D02*
X35717731Y-10293604D01*
X35717731Y-10293604D02*
X35593922Y-10479319D01*
X35593922Y-10479319D02*
X35470112Y-10603128D01*
X35470112Y-10603128D02*
X35346303Y-10665033D01*
D10*
D11*
X85346303Y-10417414D02*
X85408207Y-10355509D01*
X85408207Y-10355509D02*
X85532017Y-10293604D01*
X85532017Y-10293604D02*
X85841541Y-10293604D01*
X85841541Y-10293604D02*
X85965350Y-10355509D01*
X85965350Y-10355509D02*
X86027255Y-10417414D01*
X86027255Y-10417414D02*
X86089160Y-10541223D01*
X86089160Y-10541223D02*
X86089160Y-10665033D01*
X86089160Y-10665033D02*
X86027255Y-10850747D01*
X86027255Y-10850747D02*
X85284398Y-11593604D01*
X85284398Y-11593604D02*
X86089160Y-11593604D01*
D10*
D11*
X135284398Y-10293604D02*
X136089160Y-10293604D01*
X136089160Y-10293604D02*
X135655826Y-10788842D01*
X135655826Y-10788842D02*
X135841541Y-10788842D01*
X135841541Y-10788842D02*
X135965350Y-10850747D01*
X135965350Y-10850747D02*
X136027255Y-10912652D01*
X136027255Y-10912652D02*
X136089160Y-11036461D01*
X136089160Y-11036461D02*
X136089160Y-11345985D01*
X136089160Y-11345985D02*
X136027255Y-11469795D01*
X136027255Y-11469795D02*
X135965350Y-11531700D01*
X135965350Y-11531700D02*
X135841541Y-11593604D01*
X135841541Y-11593604D02*
X135470112Y-11593604D01*
X135470112Y-11593604D02*
X135346303Y-11531700D01*
X135346303Y-11531700D02*
X135284398Y-11469795D01*
D10*
D11*
X185965350Y-10726938D02*
X185965350Y-11593604D01*
X185655826Y-10231700D02*
X185346303Y-11160271D01*
X185346303Y-11160271D02*
X186151064Y-11160271D01*
D10*
D11*
X236027255Y-10293604D02*
X235408207Y-10293604D01*
X235408207Y-10293604D02*
X235346303Y-10912652D01*
X235346303Y-10912652D02*
X235408207Y-10850747D01*
X235408207Y-10850747D02*
X235532017Y-10788842D01*
X235532017Y-10788842D02*
X235841541Y-10788842D01*
X235841541Y-10788842D02*
X235965350Y-10850747D01*
X235965350Y-10850747D02*
X236027255Y-10912652D01*
X236027255Y-10912652D02*
X236089160Y-11036461D01*
X236089160Y-11036461D02*
X236089160Y-11345985D01*
X236089160Y-11345985D02*
X236027255Y-11469795D01*
X236027255Y-11469795D02*
X235965350Y-11531700D01*
X235965350Y-11531700D02*
X235841541Y-11593604D01*
X235841541Y-11593604D02*
X235532017Y-11593604D01*
X235532017Y-11593604D02*
X235408207Y-11531700D01*
X235408207Y-11531700D02*
X235346303Y-11469795D01*
D10*
D11*
X285965350Y-10293604D02*
X285717731Y-10293604D01*
X285717731Y-10293604D02*
X285593922Y-10355509D01*
X285593922Y-10355509D02*
X285532017Y-10417414D01*
X285532017Y-10417414D02*
X285408207Y-10603128D01*
X285408207Y-10603128D02*
X285346303Y-10850747D01*
X285346303Y-10850747D02*
X285346303Y-11345985D01*
X285346303Y-11345985D02*
X285408207Y-11469795D01*
X285408207Y-11469795D02*
X285470112Y-11531700D01*
X285470112Y-11531700D02*
X285593922Y-11593604D01*
X285593922Y-11593604D02*
X285841541Y-11593604D01*
X285841541Y-11593604D02*
X285965350Y-11531700D01*
X285965350Y-11531700D02*
X286027255Y-11469795D01*
X286027255Y-11469795D02*
X286089160Y-11345985D01*
X286089160Y-11345985D02*
X286089160Y-11036461D01*
X286089160Y-11036461D02*
X286027255Y-10912652D01*
X286027255Y-10912652D02*
X285965350Y-10850747D01*
X285965350Y-10850747D02*
X285841541Y-10788842D01*
X285841541Y-10788842D02*
X285593922Y-10788842D01*
X285593922Y-10788842D02*
X285470112Y-10850747D01*
X285470112Y-10850747D02*
X285408207Y-10912652D01*
X285408207Y-10912652D02*
X285346303Y-11036461D01*
D10*
D11*
X335284398Y-10293604D02*
X336151064Y-10293604D01*
X336151064Y-10293604D02*
X335593922Y-11593604D01*
D10*
D11*
X385593922Y-10850747D02*
X385470112Y-10788842D01*
X385470112Y-10788842D02*
X385408207Y-10726938D01*
X385408207Y-10726938D02*
X385346303Y-10603128D01*
X385346303Y-10603128D02*
X385346303Y-10541223D01*
X385346303Y-10541223D02*
X385408207Y-10417414D01*
X385408207Y-10417414D02*
X385470112Y-10355509D01*
X385470112Y-10355509D02*
X385593922Y-10293604D01*
X385593922Y-10293604D02*
X385841541Y-10293604D01*
X385841541Y-10293604D02*
X385965350Y-10355509D01*
X385965350Y-10355509D02*
X386027255Y-10417414D01*
X386027255Y-10417414D02*
X386089160Y-10541223D01*
X386089160Y-10541223D02*
X386089160Y-10603128D01*
X386089160Y-10603128D02*
X386027255Y-10726938D01*
X386027255Y-10726938D02*
X385965350Y-10788842D01*
X385965350Y-10788842D02*
X385841541Y-10850747D01*
X385841541Y-10850747D02*
X385593922Y-10850747D01*
X385593922Y-10850747D02*
X385470112Y-10912652D01*
X385470112Y-10912652D02*
X385408207Y-10974557D01*
X385408207Y-10974557D02*
X385346303Y-11098366D01*
X385346303Y-11098366D02*
X385346303Y-11345985D01*
X385346303Y-11345985D02*
X385408207Y-11469795D01*
X385408207Y-11469795D02*
X385470112Y-11531700D01*
X385470112Y-11531700D02*
X385593922Y-11593604D01*
X385593922Y-11593604D02*
X385841541Y-11593604D01*
X385841541Y-11593604D02*
X385965350Y-11531700D01*
X385965350Y-11531700D02*
X386027255Y-11469795D01*
X386027255Y-11469795D02*
X386089160Y-11345985D01*
X386089160Y-11345985D02*
X386089160Y-11098366D01*
X386089160Y-11098366D02*
X386027255Y-10974557D01*
X386027255Y-10974557D02*
X385965350Y-10912652D01*
X385965350Y-10912652D02*
X385841541Y-10850747D01*
D10*
D11*
X60000000Y-285002200D02*
X60000000Y-287002200D01*
D10*
D11*
X110000000Y-285002200D02*
X110000000Y-287002200D01*
D10*
D11*
X160000000Y-285002200D02*
X160000000Y-287002200D01*
D10*
D11*
X210000000Y-285002200D02*
X210000000Y-287002200D01*
D10*
D11*
X260000000Y-285002200D02*
X260000000Y-287002200D01*
D10*
D11*
X310000000Y-285002200D02*
X310000000Y-287002200D01*
D10*
D11*
X360000000Y-285002200D02*
X360000000Y-287002200D01*
D10*
D11*
X36089160Y-286595804D02*
X35346303Y-286595804D01*
X35717731Y-286595804D02*
X35717731Y-285295804D01*
X35717731Y-285295804D02*
X35593922Y-285481519D01*
X35593922Y-285481519D02*
X35470112Y-285605328D01*
X35470112Y-285605328D02*
X35346303Y-285667233D01*
D10*
D11*
X85346303Y-285419614D02*
X85408207Y-285357709D01*
X85408207Y-285357709D02*
X85532017Y-285295804D01*
X85532017Y-285295804D02*
X85841541Y-285295804D01*
X85841541Y-285295804D02*
X85965350Y-285357709D01*
X85965350Y-285357709D02*
X86027255Y-285419614D01*
X86027255Y-285419614D02*
X86089160Y-285543423D01*
X86089160Y-285543423D02*
X86089160Y-285667233D01*
X86089160Y-285667233D02*
X86027255Y-285852947D01*
X86027255Y-285852947D02*
X85284398Y-286595804D01*
X85284398Y-286595804D02*
X86089160Y-286595804D01*
D10*
D11*
X135284398Y-285295804D02*
X136089160Y-285295804D01*
X136089160Y-285295804D02*
X135655826Y-285791042D01*
X135655826Y-285791042D02*
X135841541Y-285791042D01*
X135841541Y-285791042D02*
X135965350Y-285852947D01*
X135965350Y-285852947D02*
X136027255Y-285914852D01*
X136027255Y-285914852D02*
X136089160Y-286038661D01*
X136089160Y-286038661D02*
X136089160Y-286348185D01*
X136089160Y-286348185D02*
X136027255Y-286471995D01*
X136027255Y-286471995D02*
X135965350Y-286533900D01*
X135965350Y-286533900D02*
X135841541Y-286595804D01*
X135841541Y-286595804D02*
X135470112Y-286595804D01*
X135470112Y-286595804D02*
X135346303Y-286533900D01*
X135346303Y-286533900D02*
X135284398Y-286471995D01*
D10*
D11*
X185965350Y-285729138D02*
X185965350Y-286595804D01*
X185655826Y-285233900D02*
X185346303Y-286162471D01*
X185346303Y-286162471D02*
X186151064Y-286162471D01*
D10*
D11*
X236027255Y-285295804D02*
X235408207Y-285295804D01*
X235408207Y-285295804D02*
X235346303Y-285914852D01*
X235346303Y-285914852D02*
X235408207Y-285852947D01*
X235408207Y-285852947D02*
X235532017Y-285791042D01*
X235532017Y-285791042D02*
X235841541Y-285791042D01*
X235841541Y-285791042D02*
X235965350Y-285852947D01*
X235965350Y-285852947D02*
X236027255Y-285914852D01*
X236027255Y-285914852D02*
X236089160Y-286038661D01*
X236089160Y-286038661D02*
X236089160Y-286348185D01*
X236089160Y-286348185D02*
X236027255Y-286471995D01*
X236027255Y-286471995D02*
X235965350Y-286533900D01*
X235965350Y-286533900D02*
X235841541Y-286595804D01*
X235841541Y-286595804D02*
X235532017Y-286595804D01*
X235532017Y-286595804D02*
X235408207Y-286533900D01*
X235408207Y-286533900D02*
X235346303Y-286471995D01*
D10*
D11*
X285965350Y-285295804D02*
X285717731Y-285295804D01*
X285717731Y-285295804D02*
X285593922Y-285357709D01*
X285593922Y-285357709D02*
X285532017Y-285419614D01*
X285532017Y-285419614D02*
X285408207Y-285605328D01*
X285408207Y-285605328D02*
X285346303Y-285852947D01*
X285346303Y-285852947D02*
X285346303Y-286348185D01*
X285346303Y-286348185D02*
X285408207Y-286471995D01*
X285408207Y-286471995D02*
X285470112Y-286533900D01*
X285470112Y-286533900D02*
X285593922Y-286595804D01*
X285593922Y-286595804D02*
X285841541Y-286595804D01*
X285841541Y-286595804D02*
X285965350Y-286533900D01*
X285965350Y-286533900D02*
X286027255Y-286471995D01*
X286027255Y-286471995D02*
X286089160Y-286348185D01*
X286089160Y-286348185D02*
X286089160Y-286038661D01*
X286089160Y-286038661D02*
X286027255Y-285914852D01*
X286027255Y-285914852D02*
X285965350Y-285852947D01*
X285965350Y-285852947D02*
X285841541Y-285791042D01*
X285841541Y-285791042D02*
X285593922Y-285791042D01*
X285593922Y-285791042D02*
X285470112Y-285852947D01*
X285470112Y-285852947D02*
X285408207Y-285914852D01*
X285408207Y-285914852D02*
X285346303Y-286038661D01*
D10*
D11*
X335284398Y-285295804D02*
X336151064Y-285295804D01*
X336151064Y-285295804D02*
X335593922Y-286595804D01*
D10*
D11*
X385593922Y-285852947D02*
X385470112Y-285791042D01*
X385470112Y-285791042D02*
X385408207Y-285729138D01*
X385408207Y-285729138D02*
X385346303Y-285605328D01*
X385346303Y-285605328D02*
X385346303Y-285543423D01*
X385346303Y-285543423D02*
X385408207Y-285419614D01*
X385408207Y-285419614D02*
X385470112Y-285357709D01*
X385470112Y-285357709D02*
X385593922Y-285295804D01*
X385593922Y-285295804D02*
X385841541Y-285295804D01*
X385841541Y-285295804D02*
X385965350Y-285357709D01*
X385965350Y-285357709D02*
X386027255Y-285419614D01*
X386027255Y-285419614D02*
X386089160Y-285543423D01*
X386089160Y-285543423D02*
X386089160Y-285605328D01*
X386089160Y-285605328D02*
X386027255Y-285729138D01*
X386027255Y-285729138D02*
X385965350Y-285791042D01*
X385965350Y-285791042D02*
X385841541Y-285852947D01*
X385841541Y-285852947D02*
X385593922Y-285852947D01*
X385593922Y-285852947D02*
X385470112Y-285914852D01*
X385470112Y-285914852D02*
X385408207Y-285976757D01*
X385408207Y-285976757D02*
X385346303Y-286100566D01*
X385346303Y-286100566D02*
X385346303Y-286348185D01*
X385346303Y-286348185D02*
X385408207Y-286471995D01*
X385408207Y-286471995D02*
X385470112Y-286533900D01*
X385470112Y-286533900D02*
X385593922Y-286595804D01*
X385593922Y-286595804D02*
X385841541Y-286595804D01*
X385841541Y-286595804D02*
X385965350Y-286533900D01*
X385965350Y-286533900D02*
X386027255Y-286471995D01*
X386027255Y-286471995D02*
X386089160Y-286348185D01*
X386089160Y-286348185D02*
X386089160Y-286100566D01*
X386089160Y-286100566D02*
X386027255Y-285976757D01*
X386027255Y-285976757D02*
X385965350Y-285914852D01*
X385965350Y-285914852D02*
X385841541Y-285852947D01*
D10*
D11*
X10000000Y-60000000D02*
X12000000Y-60000000D01*
D10*
D11*
X10000000Y-110000000D02*
X12000000Y-110000000D01*
D10*
D11*
X10000000Y-160000000D02*
X12000000Y-160000000D01*
D10*
D11*
X10000000Y-210000000D02*
X12000000Y-210000000D01*
D10*
D11*
X10000000Y-260000000D02*
X12000000Y-260000000D01*
D10*
D11*
X10690476Y-35222176D02*
X11309523Y-35222176D01*
X10566666Y-35593604D02*
X10999999Y-34293604D01*
X10999999Y-34293604D02*
X11433333Y-35593604D01*
D10*
D11*
X11092857Y-84912652D02*
X11278571Y-84974557D01*
X11278571Y-84974557D02*
X11340476Y-85036461D01*
X11340476Y-85036461D02*
X11402380Y-85160271D01*
X11402380Y-85160271D02*
X11402380Y-85345985D01*
X11402380Y-85345985D02*
X11340476Y-85469795D01*
X11340476Y-85469795D02*
X11278571Y-85531700D01*
X11278571Y-85531700D02*
X11154761Y-85593604D01*
X11154761Y-85593604D02*
X10659523Y-85593604D01*
X10659523Y-85593604D02*
X10659523Y-84293604D01*
X10659523Y-84293604D02*
X11092857Y-84293604D01*
X11092857Y-84293604D02*
X11216666Y-84355509D01*
X11216666Y-84355509D02*
X11278571Y-84417414D01*
X11278571Y-84417414D02*
X11340476Y-84541223D01*
X11340476Y-84541223D02*
X11340476Y-84665033D01*
X11340476Y-84665033D02*
X11278571Y-84788842D01*
X11278571Y-84788842D02*
X11216666Y-84850747D01*
X11216666Y-84850747D02*
X11092857Y-84912652D01*
X11092857Y-84912652D02*
X10659523Y-84912652D01*
D10*
D11*
X11402380Y-135469795D02*
X11340476Y-135531700D01*
X11340476Y-135531700D02*
X11154761Y-135593604D01*
X11154761Y-135593604D02*
X11030952Y-135593604D01*
X11030952Y-135593604D02*
X10845238Y-135531700D01*
X10845238Y-135531700D02*
X10721428Y-135407890D01*
X10721428Y-135407890D02*
X10659523Y-135284080D01*
X10659523Y-135284080D02*
X10597619Y-135036461D01*
X10597619Y-135036461D02*
X10597619Y-134850747D01*
X10597619Y-134850747D02*
X10659523Y-134603128D01*
X10659523Y-134603128D02*
X10721428Y-134479319D01*
X10721428Y-134479319D02*
X10845238Y-134355509D01*
X10845238Y-134355509D02*
X11030952Y-134293604D01*
X11030952Y-134293604D02*
X11154761Y-134293604D01*
X11154761Y-134293604D02*
X11340476Y-134355509D01*
X11340476Y-134355509D02*
X11402380Y-134417414D01*
D10*
D11*
X10659523Y-185593604D02*
X10659523Y-184293604D01*
X10659523Y-184293604D02*
X10969047Y-184293604D01*
X10969047Y-184293604D02*
X11154761Y-184355509D01*
X11154761Y-184355509D02*
X11278571Y-184479319D01*
X11278571Y-184479319D02*
X11340476Y-184603128D01*
X11340476Y-184603128D02*
X11402380Y-184850747D01*
X11402380Y-184850747D02*
X11402380Y-185036461D01*
X11402380Y-185036461D02*
X11340476Y-185284080D01*
X11340476Y-185284080D02*
X11278571Y-185407890D01*
X11278571Y-185407890D02*
X11154761Y-185531700D01*
X11154761Y-185531700D02*
X10969047Y-185593604D01*
X10969047Y-185593604D02*
X10659523Y-185593604D01*
D10*
D11*
X10721428Y-234912652D02*
X11154762Y-234912652D01*
X11340476Y-235593604D02*
X10721428Y-235593604D01*
X10721428Y-235593604D02*
X10721428Y-234293604D01*
X10721428Y-234293604D02*
X11340476Y-234293604D01*
D10*
D11*
X11185714Y-284912652D02*
X10752380Y-284912652D01*
X10752380Y-285593604D02*
X10752380Y-284293604D01*
X10752380Y-284293604D02*
X11371428Y-284293604D01*
D10*
D11*
X409989000Y-60000000D02*
X407989000Y-60000000D01*
D10*
D11*
X409989000Y-110000000D02*
X407989000Y-110000000D01*
D10*
D11*
X409989000Y-160000000D02*
X407989000Y-160000000D01*
D10*
D11*
X409989000Y-210000000D02*
X407989000Y-210000000D01*
D10*
D11*
X409989000Y-260000000D02*
X407989000Y-260000000D01*
D10*
D11*
X408679476Y-35222176D02*
X409298523Y-35222176D01*
X408555666Y-35593604D02*
X408988999Y-34293604D01*
X408988999Y-34293604D02*
X409422333Y-35593604D01*
D10*
D11*
X409081857Y-84912652D02*
X409267571Y-84974557D01*
X409267571Y-84974557D02*
X409329476Y-85036461D01*
X409329476Y-85036461D02*
X409391380Y-85160271D01*
X409391380Y-85160271D02*
X409391380Y-85345985D01*
X409391380Y-85345985D02*
X409329476Y-85469795D01*
X409329476Y-85469795D02*
X409267571Y-85531700D01*
X409267571Y-85531700D02*
X409143761Y-85593604D01*
X409143761Y-85593604D02*
X408648523Y-85593604D01*
X408648523Y-85593604D02*
X408648523Y-84293604D01*
X408648523Y-84293604D02*
X409081857Y-84293604D01*
X409081857Y-84293604D02*
X409205666Y-84355509D01*
X409205666Y-84355509D02*
X409267571Y-84417414D01*
X409267571Y-84417414D02*
X409329476Y-84541223D01*
X409329476Y-84541223D02*
X409329476Y-84665033D01*
X409329476Y-84665033D02*
X409267571Y-84788842D01*
X409267571Y-84788842D02*
X409205666Y-84850747D01*
X409205666Y-84850747D02*
X409081857Y-84912652D01*
X409081857Y-84912652D02*
X408648523Y-84912652D01*
D10*
D11*
X409391380Y-135469795D02*
X409329476Y-135531700D01*
X409329476Y-135531700D02*
X409143761Y-135593604D01*
X409143761Y-135593604D02*
X409019952Y-135593604D01*
X409019952Y-135593604D02*
X408834238Y-135531700D01*
X408834238Y-135531700D02*
X408710428Y-135407890D01*
X408710428Y-135407890D02*
X408648523Y-135284080D01*
X408648523Y-135284080D02*
X408586619Y-135036461D01*
X408586619Y-135036461D02*
X408586619Y-134850747D01*
X408586619Y-134850747D02*
X408648523Y-134603128D01*
X408648523Y-134603128D02*
X408710428Y-134479319D01*
X408710428Y-134479319D02*
X408834238Y-134355509D01*
X408834238Y-134355509D02*
X409019952Y-134293604D01*
X409019952Y-134293604D02*
X409143761Y-134293604D01*
X409143761Y-134293604D02*
X409329476Y-134355509D01*
X409329476Y-134355509D02*
X409391380Y-134417414D01*
D10*
D11*
X408648523Y-185593604D02*
X408648523Y-184293604D01*
X408648523Y-184293604D02*
X408958047Y-184293604D01*
X408958047Y-184293604D02*
X409143761Y-184355509D01*
X409143761Y-184355509D02*
X409267571Y-184479319D01*
X409267571Y-184479319D02*
X409329476Y-184603128D01*
X409329476Y-184603128D02*
X409391380Y-184850747D01*
X409391380Y-184850747D02*
X409391380Y-185036461D01*
X409391380Y-185036461D02*
X409329476Y-185284080D01*
X409329476Y-185284080D02*
X409267571Y-185407890D01*
X409267571Y-185407890D02*
X409143761Y-185531700D01*
X409143761Y-185531700D02*
X408958047Y-185593604D01*
X408958047Y-185593604D02*
X408648523Y-185593604D01*
D10*
D11*
X408710428Y-234912652D02*
X409143762Y-234912652D01*
X409329476Y-235593604D02*
X408710428Y-235593604D01*
X408710428Y-235593604D02*
X408710428Y-234293604D01*
X408710428Y-234293604D02*
X409329476Y-234293604D01*
D10*
D11*
X409174714Y-284912652D02*
X408741380Y-284912652D01*
X408741380Y-285593604D02*
X408741380Y-284293604D01*
X408741380Y-284293604D02*
X409360428Y-284293604D01*
D10*
D11*
X323444826Y-280788328D02*
X323444826Y-279288328D01*
X323444826Y-279288328D02*
X323801969Y-279288328D01*
X323801969Y-279288328D02*
X324016255Y-279359757D01*
X324016255Y-279359757D02*
X324159112Y-279502614D01*
X324159112Y-279502614D02*
X324230541Y-279645471D01*
X324230541Y-279645471D02*
X324301969Y-279931185D01*
X324301969Y-279931185D02*
X324301969Y-280145471D01*
X324301969Y-280145471D02*
X324230541Y-280431185D01*
X324230541Y-280431185D02*
X324159112Y-280574042D01*
X324159112Y-280574042D02*
X324016255Y-280716900D01*
X324016255Y-280716900D02*
X323801969Y-280788328D01*
X323801969Y-280788328D02*
X323444826Y-280788328D01*
X325587684Y-280788328D02*
X325587684Y-280002614D01*
X325587684Y-280002614D02*
X325516255Y-279859757D01*
X325516255Y-279859757D02*
X325373398Y-279788328D01*
X325373398Y-279788328D02*
X325087684Y-279788328D01*
X325087684Y-279788328D02*
X324944826Y-279859757D01*
X325587684Y-280716900D02*
X325444826Y-280788328D01*
X325444826Y-280788328D02*
X325087684Y-280788328D01*
X325087684Y-280788328D02*
X324944826Y-280716900D01*
X324944826Y-280716900D02*
X324873398Y-280574042D01*
X324873398Y-280574042D02*
X324873398Y-280431185D01*
X324873398Y-280431185D02*
X324944826Y-280288328D01*
X324944826Y-280288328D02*
X325087684Y-280216900D01*
X325087684Y-280216900D02*
X325444826Y-280216900D01*
X325444826Y-280216900D02*
X325587684Y-280145471D01*
X326087684Y-279788328D02*
X326659112Y-279788328D01*
X326301969Y-279288328D02*
X326301969Y-280574042D01*
X326301969Y-280574042D02*
X326373398Y-280716900D01*
X326373398Y-280716900D02*
X326516255Y-280788328D01*
X326516255Y-280788328D02*
X326659112Y-280788328D01*
X327730541Y-280716900D02*
X327587684Y-280788328D01*
X327587684Y-280788328D02*
X327301970Y-280788328D01*
X327301970Y-280788328D02*
X327159112Y-280716900D01*
X327159112Y-280716900D02*
X327087684Y-280574042D01*
X327087684Y-280574042D02*
X327087684Y-280002614D01*
X327087684Y-280002614D02*
X327159112Y-279859757D01*
X327159112Y-279859757D02*
X327301970Y-279788328D01*
X327301970Y-279788328D02*
X327587684Y-279788328D01*
X327587684Y-279788328D02*
X327730541Y-279859757D01*
X327730541Y-279859757D02*
X327801970Y-280002614D01*
X327801970Y-280002614D02*
X327801970Y-280145471D01*
X327801970Y-280145471D02*
X327087684Y-280288328D01*
X328444826Y-280645471D02*
X328516255Y-280716900D01*
X328516255Y-280716900D02*
X328444826Y-280788328D01*
X328444826Y-280788328D02*
X328373398Y-280716900D01*
X328373398Y-280716900D02*
X328444826Y-280645471D01*
X328444826Y-280645471D02*
X328444826Y-280788328D01*
X328444826Y-279859757D02*
X328516255Y-279931185D01*
X328516255Y-279931185D02*
X328444826Y-280002614D01*
X328444826Y-280002614D02*
X328373398Y-279931185D01*
X328373398Y-279931185D02*
X328444826Y-279859757D01*
X328444826Y-279859757D02*
X328444826Y-280002614D01*
X330230541Y-279431185D02*
X330301969Y-279359757D01*
X330301969Y-279359757D02*
X330444827Y-279288328D01*
X330444827Y-279288328D02*
X330801969Y-279288328D01*
X330801969Y-279288328D02*
X330944827Y-279359757D01*
X330944827Y-279359757D02*
X331016255Y-279431185D01*
X331016255Y-279431185D02*
X331087684Y-279574042D01*
X331087684Y-279574042D02*
X331087684Y-279716900D01*
X331087684Y-279716900D02*
X331016255Y-279931185D01*
X331016255Y-279931185D02*
X330159112Y-280788328D01*
X330159112Y-280788328D02*
X331087684Y-280788328D01*
X332801969Y-279216900D02*
X331516255Y-281145471D01*
X333944827Y-279788328D02*
X333944827Y-280788328D01*
X333587684Y-279216900D02*
X333230541Y-280288328D01*
X333230541Y-280288328D02*
X334159112Y-280288328D01*
X335801969Y-279216900D02*
X334516255Y-281145471D01*
X336230541Y-279431185D02*
X336301969Y-279359757D01*
X336301969Y-279359757D02*
X336444827Y-279288328D01*
X336444827Y-279288328D02*
X336801969Y-279288328D01*
X336801969Y-279288328D02*
X336944827Y-279359757D01*
X336944827Y-279359757D02*
X337016255Y-279431185D01*
X337016255Y-279431185D02*
X337087684Y-279574042D01*
X337087684Y-279574042D02*
X337087684Y-279716900D01*
X337087684Y-279716900D02*
X337016255Y-279931185D01*
X337016255Y-279931185D02*
X336159112Y-280788328D01*
X336159112Y-280788328D02*
X337087684Y-280788328D01*
X338016255Y-279288328D02*
X338159112Y-279288328D01*
X338159112Y-279288328D02*
X338301969Y-279359757D01*
X338301969Y-279359757D02*
X338373398Y-279431185D01*
X338373398Y-279431185D02*
X338444826Y-279574042D01*
X338444826Y-279574042D02*
X338516255Y-279859757D01*
X338516255Y-279859757D02*
X338516255Y-280216900D01*
X338516255Y-280216900D02*
X338444826Y-280502614D01*
X338444826Y-280502614D02*
X338373398Y-280645471D01*
X338373398Y-280645471D02*
X338301969Y-280716900D01*
X338301969Y-280716900D02*
X338159112Y-280788328D01*
X338159112Y-280788328D02*
X338016255Y-280788328D01*
X338016255Y-280788328D02*
X337873398Y-280716900D01*
X337873398Y-280716900D02*
X337801969Y-280645471D01*
X337801969Y-280645471D02*
X337730540Y-280502614D01*
X337730540Y-280502614D02*
X337659112Y-280216900D01*
X337659112Y-280216900D02*
X337659112Y-279859757D01*
X337659112Y-279859757D02*
X337730540Y-279574042D01*
X337730540Y-279574042D02*
X337801969Y-279431185D01*
X337801969Y-279431185D02*
X337873398Y-279359757D01*
X337873398Y-279359757D02*
X338016255Y-279288328D01*
X339087683Y-279431185D02*
X339159111Y-279359757D01*
X339159111Y-279359757D02*
X339301969Y-279288328D01*
X339301969Y-279288328D02*
X339659111Y-279288328D01*
X339659111Y-279288328D02*
X339801969Y-279359757D01*
X339801969Y-279359757D02*
X339873397Y-279431185D01*
X339873397Y-279431185D02*
X339944826Y-279574042D01*
X339944826Y-279574042D02*
X339944826Y-279716900D01*
X339944826Y-279716900D02*
X339873397Y-279931185D01*
X339873397Y-279931185D02*
X339016254Y-280788328D01*
X339016254Y-280788328D02*
X339944826Y-280788328D01*
X341230540Y-279788328D02*
X341230540Y-280788328D01*
X340873397Y-279216900D02*
X340516254Y-280288328D01*
X340516254Y-280288328D02*
X341444825Y-280288328D01*
D10*
D11*
X299989000Y-281502200D02*
X407989000Y-281502200D01*
D10*
D11*
X301444826Y-283588328D02*
X301444826Y-282088328D01*
X302301969Y-283588328D02*
X301659112Y-282731185D01*
X302301969Y-282088328D02*
X301444826Y-282945471D01*
X302944826Y-283588328D02*
X302944826Y-282588328D01*
X302944826Y-282088328D02*
X302873398Y-282159757D01*
X302873398Y-282159757D02*
X302944826Y-282231185D01*
X302944826Y-282231185D02*
X303016255Y-282159757D01*
X303016255Y-282159757D02*
X302944826Y-282088328D01*
X302944826Y-282088328D02*
X302944826Y-282231185D01*
X304516255Y-283445471D02*
X304444827Y-283516900D01*
X304444827Y-283516900D02*
X304230541Y-283588328D01*
X304230541Y-283588328D02*
X304087684Y-283588328D01*
X304087684Y-283588328D02*
X303873398Y-283516900D01*
X303873398Y-283516900D02*
X303730541Y-283374042D01*
X303730541Y-283374042D02*
X303659112Y-283231185D01*
X303659112Y-283231185D02*
X303587684Y-282945471D01*
X303587684Y-282945471D02*
X303587684Y-282731185D01*
X303587684Y-282731185D02*
X303659112Y-282445471D01*
X303659112Y-282445471D02*
X303730541Y-282302614D01*
X303730541Y-282302614D02*
X303873398Y-282159757D01*
X303873398Y-282159757D02*
X304087684Y-282088328D01*
X304087684Y-282088328D02*
X304230541Y-282088328D01*
X304230541Y-282088328D02*
X304444827Y-282159757D01*
X304444827Y-282159757D02*
X304516255Y-282231185D01*
X305801970Y-283588328D02*
X305801970Y-282802614D01*
X305801970Y-282802614D02*
X305730541Y-282659757D01*
X305730541Y-282659757D02*
X305587684Y-282588328D01*
X305587684Y-282588328D02*
X305301970Y-282588328D01*
X305301970Y-282588328D02*
X305159112Y-282659757D01*
X305801970Y-283516900D02*
X305659112Y-283588328D01*
X305659112Y-283588328D02*
X305301970Y-283588328D01*
X305301970Y-283588328D02*
X305159112Y-283516900D01*
X305159112Y-283516900D02*
X305087684Y-283374042D01*
X305087684Y-283374042D02*
X305087684Y-283231185D01*
X305087684Y-283231185D02*
X305159112Y-283088328D01*
X305159112Y-283088328D02*
X305301970Y-283016900D01*
X305301970Y-283016900D02*
X305659112Y-283016900D01*
X305659112Y-283016900D02*
X305801970Y-282945471D01*
X307159113Y-283588328D02*
X307159113Y-282088328D01*
X307159113Y-283516900D02*
X307016255Y-283588328D01*
X307016255Y-283588328D02*
X306730541Y-283588328D01*
X306730541Y-283588328D02*
X306587684Y-283516900D01*
X306587684Y-283516900D02*
X306516255Y-283445471D01*
X306516255Y-283445471D02*
X306444827Y-283302614D01*
X306444827Y-283302614D02*
X306444827Y-282874042D01*
X306444827Y-282874042D02*
X306516255Y-282731185D01*
X306516255Y-282731185D02*
X306587684Y-282659757D01*
X306587684Y-282659757D02*
X306730541Y-282588328D01*
X306730541Y-282588328D02*
X307016255Y-282588328D01*
X307016255Y-282588328D02*
X307159113Y-282659757D01*
X309016255Y-282802614D02*
X309516255Y-282802614D01*
X309730541Y-283588328D02*
X309016255Y-283588328D01*
X309016255Y-283588328D02*
X309016255Y-282088328D01*
X309016255Y-282088328D02*
X309730541Y-282088328D01*
X310373398Y-283445471D02*
X310444827Y-283516900D01*
X310444827Y-283516900D02*
X310373398Y-283588328D01*
X310373398Y-283588328D02*
X310301970Y-283516900D01*
X310301970Y-283516900D02*
X310373398Y-283445471D01*
X310373398Y-283445471D02*
X310373398Y-283588328D01*
X311087684Y-283588328D02*
X311087684Y-282088328D01*
X311087684Y-282088328D02*
X311444827Y-282088328D01*
X311444827Y-282088328D02*
X311659113Y-282159757D01*
X311659113Y-282159757D02*
X311801970Y-282302614D01*
X311801970Y-282302614D02*
X311873399Y-282445471D01*
X311873399Y-282445471D02*
X311944827Y-282731185D01*
X311944827Y-282731185D02*
X311944827Y-282945471D01*
X311944827Y-282945471D02*
X311873399Y-283231185D01*
X311873399Y-283231185D02*
X311801970Y-283374042D01*
X311801970Y-283374042D02*
X311659113Y-283516900D01*
X311659113Y-283516900D02*
X311444827Y-283588328D01*
X311444827Y-283588328D02*
X311087684Y-283588328D01*
X312587684Y-283445471D02*
X312659113Y-283516900D01*
X312659113Y-283516900D02*
X312587684Y-283588328D01*
X312587684Y-283588328D02*
X312516256Y-283516900D01*
X312516256Y-283516900D02*
X312587684Y-283445471D01*
X312587684Y-283445471D02*
X312587684Y-283588328D01*
X313230542Y-283159757D02*
X313944828Y-283159757D01*
X313087685Y-283588328D02*
X313587685Y-282088328D01*
X313587685Y-282088328D02*
X314087685Y-283588328D01*
X314587684Y-283445471D02*
X314659113Y-283516900D01*
X314659113Y-283516900D02*
X314587684Y-283588328D01*
X314587684Y-283588328D02*
X314516256Y-283516900D01*
X314516256Y-283516900D02*
X314587684Y-283445471D01*
X314587684Y-283445471D02*
X314587684Y-283588328D01*
X317587684Y-283588328D02*
X317587684Y-282088328D01*
X317730542Y-283016900D02*
X318159113Y-283588328D01*
X318159113Y-282588328D02*
X317587684Y-283159757D01*
X318801970Y-283588328D02*
X318801970Y-282588328D01*
X318801970Y-282088328D02*
X318730542Y-282159757D01*
X318730542Y-282159757D02*
X318801970Y-282231185D01*
X318801970Y-282231185D02*
X318873399Y-282159757D01*
X318873399Y-282159757D02*
X318801970Y-282088328D01*
X318801970Y-282088328D02*
X318801970Y-282231185D01*
X320159114Y-283516900D02*
X320016256Y-283588328D01*
X320016256Y-283588328D02*
X319730542Y-283588328D01*
X319730542Y-283588328D02*
X319587685Y-283516900D01*
X319587685Y-283516900D02*
X319516256Y-283445471D01*
X319516256Y-283445471D02*
X319444828Y-283302614D01*
X319444828Y-283302614D02*
X319444828Y-282874042D01*
X319444828Y-282874042D02*
X319516256Y-282731185D01*
X319516256Y-282731185D02*
X319587685Y-282659757D01*
X319587685Y-282659757D02*
X319730542Y-282588328D01*
X319730542Y-282588328D02*
X320016256Y-282588328D01*
X320016256Y-282588328D02*
X320159114Y-282659757D01*
X321444828Y-283588328D02*
X321444828Y-282802614D01*
X321444828Y-282802614D02*
X321373399Y-282659757D01*
X321373399Y-282659757D02*
X321230542Y-282588328D01*
X321230542Y-282588328D02*
X320944828Y-282588328D01*
X320944828Y-282588328D02*
X320801970Y-282659757D01*
X321444828Y-283516900D02*
X321301970Y-283588328D01*
X321301970Y-283588328D02*
X320944828Y-283588328D01*
X320944828Y-283588328D02*
X320801970Y-283516900D01*
X320801970Y-283516900D02*
X320730542Y-283374042D01*
X320730542Y-283374042D02*
X320730542Y-283231185D01*
X320730542Y-283231185D02*
X320801970Y-283088328D01*
X320801970Y-283088328D02*
X320944828Y-283016900D01*
X320944828Y-283016900D02*
X321301970Y-283016900D01*
X321301970Y-283016900D02*
X321444828Y-282945471D01*
X322801971Y-283588328D02*
X322801971Y-282088328D01*
X322801971Y-283516900D02*
X322659113Y-283588328D01*
X322659113Y-283588328D02*
X322373399Y-283588328D01*
X322373399Y-283588328D02*
X322230542Y-283516900D01*
X322230542Y-283516900D02*
X322159113Y-283445471D01*
X322159113Y-283445471D02*
X322087685Y-283302614D01*
X322087685Y-283302614D02*
X322087685Y-282874042D01*
X322087685Y-282874042D02*
X322159113Y-282731185D01*
X322159113Y-282731185D02*
X322230542Y-282659757D01*
X322230542Y-282659757D02*
X322373399Y-282588328D01*
X322373399Y-282588328D02*
X322659113Y-282588328D01*
X322659113Y-282588328D02*
X322801971Y-282659757D01*
X324516256Y-282088328D02*
X325516256Y-282088328D01*
X325516256Y-282088328D02*
X324873399Y-283588328D01*
X326087684Y-283445471D02*
X326159113Y-283516900D01*
X326159113Y-283516900D02*
X326087684Y-283588328D01*
X326087684Y-283588328D02*
X326016256Y-283516900D01*
X326016256Y-283516900D02*
X326087684Y-283445471D01*
X326087684Y-283445471D02*
X326087684Y-283588328D01*
X327087685Y-282088328D02*
X327230542Y-282088328D01*
X327230542Y-282088328D02*
X327373399Y-282159757D01*
X327373399Y-282159757D02*
X327444828Y-282231185D01*
X327444828Y-282231185D02*
X327516256Y-282374042D01*
X327516256Y-282374042D02*
X327587685Y-282659757D01*
X327587685Y-282659757D02*
X327587685Y-283016900D01*
X327587685Y-283016900D02*
X327516256Y-283302614D01*
X327516256Y-283302614D02*
X327444828Y-283445471D01*
X327444828Y-283445471D02*
X327373399Y-283516900D01*
X327373399Y-283516900D02*
X327230542Y-283588328D01*
X327230542Y-283588328D02*
X327087685Y-283588328D01*
X327087685Y-283588328D02*
X326944828Y-283516900D01*
X326944828Y-283516900D02*
X326873399Y-283445471D01*
X326873399Y-283445471D02*
X326801970Y-283302614D01*
X326801970Y-283302614D02*
X326730542Y-283016900D01*
X326730542Y-283016900D02*
X326730542Y-282659757D01*
X326730542Y-282659757D02*
X326801970Y-282374042D01*
X326801970Y-282374042D02*
X326873399Y-282231185D01*
X326873399Y-282231185D02*
X326944828Y-282159757D01*
X326944828Y-282159757D02*
X327087685Y-282088328D01*
X328230541Y-283445471D02*
X328301970Y-283516900D01*
X328301970Y-283516900D02*
X328230541Y-283588328D01*
X328230541Y-283588328D02*
X328159113Y-283516900D01*
X328159113Y-283516900D02*
X328230541Y-283445471D01*
X328230541Y-283445471D02*
X328230541Y-283588328D01*
X329730542Y-283588328D02*
X328873399Y-283588328D01*
X329301970Y-283588328D02*
X329301970Y-282088328D01*
X329301970Y-282088328D02*
X329159113Y-282302614D01*
X329159113Y-282302614D02*
X329016256Y-282445471D01*
X329016256Y-282445471D02*
X328873399Y-282516900D01*
X330659113Y-282088328D02*
X330801970Y-282088328D01*
X330801970Y-282088328D02*
X330944827Y-282159757D01*
X330944827Y-282159757D02*
X331016256Y-282231185D01*
X331016256Y-282231185D02*
X331087684Y-282374042D01*
X331087684Y-282374042D02*
X331159113Y-282659757D01*
X331159113Y-282659757D02*
X331159113Y-283016900D01*
X331159113Y-283016900D02*
X331087684Y-283302614D01*
X331087684Y-283302614D02*
X331016256Y-283445471D01*
X331016256Y-283445471D02*
X330944827Y-283516900D01*
X330944827Y-283516900D02*
X330801970Y-283588328D01*
X330801970Y-283588328D02*
X330659113Y-283588328D01*
X330659113Y-283588328D02*
X330516256Y-283516900D01*
X330516256Y-283516900D02*
X330444827Y-283445471D01*
X330444827Y-283445471D02*
X330373398Y-283302614D01*
X330373398Y-283302614D02*
X330301970Y-283016900D01*
X330301970Y-283016900D02*
X330301970Y-282659757D01*
X330301970Y-282659757D02*
X330373398Y-282374042D01*
X330373398Y-282374042D02*
X330444827Y-282231185D01*
X330444827Y-282231185D02*
X330516256Y-282159757D01*
X330516256Y-282159757D02*
X330659113Y-282088328D01*
D10*
D11*
X299989000Y-278502200D02*
X407989000Y-278502200D01*
D10*
D12*
X387400653Y-280780528D02*
X386900653Y-280066242D01*
X386543510Y-280780528D02*
X386543510Y-279280528D01*
X386543510Y-279280528D02*
X387114939Y-279280528D01*
X387114939Y-279280528D02*
X387257796Y-279351957D01*
X387257796Y-279351957D02*
X387329225Y-279423385D01*
X387329225Y-279423385D02*
X387400653Y-279566242D01*
X387400653Y-279566242D02*
X387400653Y-279780528D01*
X387400653Y-279780528D02*
X387329225Y-279923385D01*
X387329225Y-279923385D02*
X387257796Y-279994814D01*
X387257796Y-279994814D02*
X387114939Y-280066242D01*
X387114939Y-280066242D02*
X386543510Y-280066242D01*
X388614939Y-280709100D02*
X388472082Y-280780528D01*
X388472082Y-280780528D02*
X388186368Y-280780528D01*
X388186368Y-280780528D02*
X388043510Y-280709100D01*
X388043510Y-280709100D02*
X387972082Y-280566242D01*
X387972082Y-280566242D02*
X387972082Y-279994814D01*
X387972082Y-279994814D02*
X388043510Y-279851957D01*
X388043510Y-279851957D02*
X388186368Y-279780528D01*
X388186368Y-279780528D02*
X388472082Y-279780528D01*
X388472082Y-279780528D02*
X388614939Y-279851957D01*
X388614939Y-279851957D02*
X388686368Y-279994814D01*
X388686368Y-279994814D02*
X388686368Y-280137671D01*
X388686368Y-280137671D02*
X387972082Y-280280528D01*
X389186367Y-279780528D02*
X389543510Y-280780528D01*
X389543510Y-280780528D02*
X389900653Y-279780528D01*
X390472081Y-280637671D02*
X390543510Y-280709100D01*
X390543510Y-280709100D02*
X390472081Y-280780528D01*
X390472081Y-280780528D02*
X390400653Y-280709100D01*
X390400653Y-280709100D02*
X390472081Y-280637671D01*
X390472081Y-280637671D02*
X390472081Y-280780528D01*
X390472081Y-279851957D02*
X390543510Y-279923385D01*
X390543510Y-279923385D02*
X390472081Y-279994814D01*
X390472081Y-279994814D02*
X390400653Y-279923385D01*
X390400653Y-279923385D02*
X390472081Y-279851957D01*
X390472081Y-279851957D02*
X390472081Y-279994814D01*
X393186367Y-280780528D02*
X392686367Y-280066242D01*
X392329224Y-280780528D02*
X392329224Y-279280528D01*
X392329224Y-279280528D02*
X392900653Y-279280528D01*
X392900653Y-279280528D02*
X393043510Y-279351957D01*
X393043510Y-279351957D02*
X393114939Y-279423385D01*
X393114939Y-279423385D02*
X393186367Y-279566242D01*
X393186367Y-279566242D02*
X393186367Y-279780528D01*
X393186367Y-279780528D02*
X393114939Y-279923385D01*
X393114939Y-279923385D02*
X393043510Y-279994814D01*
X393043510Y-279994814D02*
X392900653Y-280066242D01*
X392900653Y-280066242D02*
X392329224Y-280066242D01*
X393829224Y-279994814D02*
X394329224Y-279994814D01*
X394543510Y-280780528D02*
X393829224Y-280780528D01*
X393829224Y-280780528D02*
X393829224Y-279280528D01*
X393829224Y-279280528D02*
X394543510Y-279280528D01*
X394972082Y-279280528D02*
X395472082Y-280780528D01*
X395472082Y-280780528D02*
X395972082Y-279280528D01*
X396400653Y-280351957D02*
X397114939Y-280351957D01*
X396257796Y-280780528D02*
X396757796Y-279280528D01*
X396757796Y-279280528D02*
X397257796Y-280780528D01*
D10*
D11*
X301373398Y-280716900D02*
X301587684Y-280788328D01*
X301587684Y-280788328D02*
X301944826Y-280788328D01*
X301944826Y-280788328D02*
X302087684Y-280716900D01*
X302087684Y-280716900D02*
X302159112Y-280645471D01*
X302159112Y-280645471D02*
X302230541Y-280502614D01*
X302230541Y-280502614D02*
X302230541Y-280359757D01*
X302230541Y-280359757D02*
X302159112Y-280216900D01*
X302159112Y-280216900D02*
X302087684Y-280145471D01*
X302087684Y-280145471D02*
X301944826Y-280074042D01*
X301944826Y-280074042D02*
X301659112Y-280002614D01*
X301659112Y-280002614D02*
X301516255Y-279931185D01*
X301516255Y-279931185D02*
X301444826Y-279859757D01*
X301444826Y-279859757D02*
X301373398Y-279716900D01*
X301373398Y-279716900D02*
X301373398Y-279574042D01*
X301373398Y-279574042D02*
X301444826Y-279431185D01*
X301444826Y-279431185D02*
X301516255Y-279359757D01*
X301516255Y-279359757D02*
X301659112Y-279288328D01*
X301659112Y-279288328D02*
X302016255Y-279288328D01*
X302016255Y-279288328D02*
X302230541Y-279359757D01*
X302873397Y-280788328D02*
X302873397Y-279788328D01*
X302873397Y-279288328D02*
X302801969Y-279359757D01*
X302801969Y-279359757D02*
X302873397Y-279431185D01*
X302873397Y-279431185D02*
X302944826Y-279359757D01*
X302944826Y-279359757D02*
X302873397Y-279288328D01*
X302873397Y-279288328D02*
X302873397Y-279431185D01*
X303444826Y-279788328D02*
X304230541Y-279788328D01*
X304230541Y-279788328D02*
X303444826Y-280788328D01*
X303444826Y-280788328D02*
X304230541Y-280788328D01*
X305373398Y-280716900D02*
X305230541Y-280788328D01*
X305230541Y-280788328D02*
X304944827Y-280788328D01*
X304944827Y-280788328D02*
X304801969Y-280716900D01*
X304801969Y-280716900D02*
X304730541Y-280574042D01*
X304730541Y-280574042D02*
X304730541Y-280002614D01*
X304730541Y-280002614D02*
X304801969Y-279859757D01*
X304801969Y-279859757D02*
X304944827Y-279788328D01*
X304944827Y-279788328D02*
X305230541Y-279788328D01*
X305230541Y-279788328D02*
X305373398Y-279859757D01*
X305373398Y-279859757D02*
X305444827Y-280002614D01*
X305444827Y-280002614D02*
X305444827Y-280145471D01*
X305444827Y-280145471D02*
X304730541Y-280288328D01*
X306087683Y-280645471D02*
X306159112Y-280716900D01*
X306159112Y-280716900D02*
X306087683Y-280788328D01*
X306087683Y-280788328D02*
X306016255Y-280716900D01*
X306016255Y-280716900D02*
X306087683Y-280645471D01*
X306087683Y-280645471D02*
X306087683Y-280788328D01*
X306087683Y-279859757D02*
X306159112Y-279931185D01*
X306159112Y-279931185D02*
X306087683Y-280002614D01*
X306087683Y-280002614D02*
X306016255Y-279931185D01*
X306016255Y-279931185D02*
X306087683Y-279859757D01*
X306087683Y-279859757D02*
X306087683Y-280002614D01*
X307873398Y-280359757D02*
X308587684Y-280359757D01*
X307730541Y-280788328D02*
X308230541Y-279288328D01*
X308230541Y-279288328D02*
X308730541Y-280788328D01*
X309087683Y-279288328D02*
X310016255Y-279288328D01*
X310016255Y-279288328D02*
X309516255Y-279859757D01*
X309516255Y-279859757D02*
X309730540Y-279859757D01*
X309730540Y-279859757D02*
X309873398Y-279931185D01*
X309873398Y-279931185D02*
X309944826Y-280002614D01*
X309944826Y-280002614D02*
X310016255Y-280145471D01*
X310016255Y-280145471D02*
X310016255Y-280502614D01*
X310016255Y-280502614D02*
X309944826Y-280645471D01*
X309944826Y-280645471D02*
X309873398Y-280716900D01*
X309873398Y-280716900D02*
X309730540Y-280788328D01*
X309730540Y-280788328D02*
X309301969Y-280788328D01*
X309301969Y-280788328D02*
X309159112Y-280716900D01*
X309159112Y-280716900D02*
X309087683Y-280645471D01*
D10*
D11*
X386444826Y-283588328D02*
X386444826Y-282088328D01*
X387801970Y-283588328D02*
X387801970Y-282088328D01*
X387801970Y-283516900D02*
X387659112Y-283588328D01*
X387659112Y-283588328D02*
X387373398Y-283588328D01*
X387373398Y-283588328D02*
X387230541Y-283516900D01*
X387230541Y-283516900D02*
X387159112Y-283445471D01*
X387159112Y-283445471D02*
X387087684Y-283302614D01*
X387087684Y-283302614D02*
X387087684Y-282874042D01*
X387087684Y-282874042D02*
X387159112Y-282731185D01*
X387159112Y-282731185D02*
X387230541Y-282659757D01*
X387230541Y-282659757D02*
X387373398Y-282588328D01*
X387373398Y-282588328D02*
X387659112Y-282588328D01*
X387659112Y-282588328D02*
X387801970Y-282659757D01*
X388516255Y-283445471D02*
X388587684Y-283516900D01*
X388587684Y-283516900D02*
X388516255Y-283588328D01*
X388516255Y-283588328D02*
X388444827Y-283516900D01*
X388444827Y-283516900D02*
X388516255Y-283445471D01*
X388516255Y-283445471D02*
X388516255Y-283588328D01*
X388516255Y-282659757D02*
X388587684Y-282731185D01*
X388587684Y-282731185D02*
X388516255Y-282802614D01*
X388516255Y-282802614D02*
X388444827Y-282731185D01*
X388444827Y-282731185D02*
X388516255Y-282659757D01*
X388516255Y-282659757D02*
X388516255Y-282802614D01*
X391159113Y-283588328D02*
X390301970Y-283588328D01*
X390730541Y-283588328D02*
X390730541Y-282088328D01*
X390730541Y-282088328D02*
X390587684Y-282302614D01*
X390587684Y-282302614D02*
X390444827Y-282445471D01*
X390444827Y-282445471D02*
X390301970Y-282516900D01*
X392873398Y-282016900D02*
X391587684Y-283945471D01*
X394159113Y-283588328D02*
X393301970Y-283588328D01*
X393730541Y-283588328D02*
X393730541Y-282088328D01*
X393730541Y-282088328D02*
X393587684Y-282302614D01*
X393587684Y-282302614D02*
X393444827Y-282445471D01*
X393444827Y-282445471D02*
X393301970Y-282516900D01*
D10*
D11*
X299989000Y-274502200D02*
X407989000Y-274502200D01*
D10*
D13*
X301680728Y-275206638D02*
X302823585Y-275206638D01*
X302002157Y-277206638D02*
X302252157Y-275206638D01*
X303240252Y-277206638D02*
X303406919Y-275873304D01*
X303490252Y-275206638D02*
X303383109Y-275301876D01*
X303383109Y-275301876D02*
X303466443Y-275397114D01*
X303466443Y-275397114D02*
X303573586Y-275301876D01*
X303573586Y-275301876D02*
X303490252Y-275206638D01*
X303490252Y-275206638D02*
X303466443Y-275397114D01*
X304073586Y-275873304D02*
X304835490Y-275873304D01*
X304442633Y-275206638D02*
X304228348Y-276920923D01*
X304228348Y-276920923D02*
X304299776Y-277111400D01*
X304299776Y-277111400D02*
X304478348Y-277206638D01*
X304478348Y-277206638D02*
X304668824Y-277206638D01*
X305621205Y-277206638D02*
X305442633Y-277111400D01*
X305442633Y-277111400D02*
X305371205Y-276920923D01*
X305371205Y-276920923D02*
X305585490Y-275206638D01*
X307156919Y-277111400D02*
X306954538Y-277206638D01*
X306954538Y-277206638D02*
X306573585Y-277206638D01*
X306573585Y-277206638D02*
X306395014Y-277111400D01*
X306395014Y-277111400D02*
X306323585Y-276920923D01*
X306323585Y-276920923D02*
X306418824Y-276159019D01*
X306418824Y-276159019D02*
X306537871Y-275968542D01*
X306537871Y-275968542D02*
X306740252Y-275873304D01*
X306740252Y-275873304D02*
X307121204Y-275873304D01*
X307121204Y-275873304D02*
X307299776Y-275968542D01*
X307299776Y-275968542D02*
X307371204Y-276159019D01*
X307371204Y-276159019D02*
X307347395Y-276349495D01*
X307347395Y-276349495D02*
X306371204Y-276539971D01*
X308121205Y-277016161D02*
X308204538Y-277111400D01*
X308204538Y-277111400D02*
X308097395Y-277206638D01*
X308097395Y-277206638D02*
X308014062Y-277111400D01*
X308014062Y-277111400D02*
X308121205Y-277016161D01*
X308121205Y-277016161D02*
X308097395Y-277206638D01*
X308252157Y-275968542D02*
X308335490Y-276063780D01*
X308335490Y-276063780D02*
X308228348Y-276159019D01*
X308228348Y-276159019D02*
X308145014Y-276063780D01*
X308145014Y-276063780D02*
X308252157Y-275968542D01*
X308252157Y-275968542D02*
X308228348Y-276159019D01*
X311049777Y-277968542D02*
X310966443Y-277873304D01*
X310966443Y-277873304D02*
X310811681Y-277587590D01*
X310811681Y-277587590D02*
X310740253Y-277397114D01*
X310740253Y-277397114D02*
X310680729Y-277111400D01*
X310680729Y-277111400D02*
X310645015Y-276635209D01*
X310645015Y-276635209D02*
X310692634Y-276254257D01*
X310692634Y-276254257D02*
X310847396Y-275778066D01*
X310847396Y-275778066D02*
X310978348Y-275492352D01*
X310978348Y-275492352D02*
X311097396Y-275301876D01*
X311097396Y-275301876D02*
X311323586Y-275016161D01*
X311323586Y-275016161D02*
X311430729Y-274920923D01*
X311906919Y-277206638D02*
X312156919Y-275206638D01*
X312061681Y-275968542D02*
X312264062Y-275873304D01*
X312264062Y-275873304D02*
X312645014Y-275873304D01*
X312645014Y-275873304D02*
X312823586Y-275968542D01*
X312823586Y-275968542D02*
X312906919Y-276063780D01*
X312906919Y-276063780D02*
X312978348Y-276254257D01*
X312978348Y-276254257D02*
X312906919Y-276825685D01*
X312906919Y-276825685D02*
X312787872Y-277016161D01*
X312787872Y-277016161D02*
X312680729Y-277111400D01*
X312680729Y-277111400D02*
X312478348Y-277206638D01*
X312478348Y-277206638D02*
X312097395Y-277206638D01*
X312097395Y-277206638D02*
X311918824Y-277111400D01*
X313692634Y-275873304D02*
X314002158Y-277206638D01*
X314645015Y-275873304D02*
X314002158Y-277206638D01*
X314002158Y-277206638D02*
X313752158Y-277682828D01*
X313752158Y-277682828D02*
X313645015Y-277778066D01*
X313645015Y-277778066D02*
X313442634Y-277873304D01*
X315121206Y-275873304D02*
X315883110Y-275873304D01*
X315490253Y-275206638D02*
X315275968Y-276920923D01*
X315275968Y-276920923D02*
X315347396Y-277111400D01*
X315347396Y-277111400D02*
X315525968Y-277206638D01*
X315525968Y-277206638D02*
X315716444Y-277206638D01*
X317156920Y-277111400D02*
X316954539Y-277206638D01*
X316954539Y-277206638D02*
X316573586Y-277206638D01*
X316573586Y-277206638D02*
X316395015Y-277111400D01*
X316395015Y-277111400D02*
X316323586Y-276920923D01*
X316323586Y-276920923D02*
X316418825Y-276159019D01*
X316418825Y-276159019D02*
X316537872Y-275968542D01*
X316537872Y-275968542D02*
X316740253Y-275873304D01*
X316740253Y-275873304D02*
X317121205Y-275873304D01*
X317121205Y-275873304D02*
X317299777Y-275968542D01*
X317299777Y-275968542D02*
X317371205Y-276159019D01*
X317371205Y-276159019D02*
X317347396Y-276349495D01*
X317347396Y-276349495D02*
X316371205Y-276539971D01*
X317811682Y-277968542D02*
X317918825Y-277873304D01*
X317918825Y-277873304D02*
X318145015Y-277587590D01*
X318145015Y-277587590D02*
X318264063Y-277397114D01*
X318264063Y-277397114D02*
X318395015Y-277111400D01*
X318395015Y-277111400D02*
X318549777Y-276635209D01*
X318549777Y-276635209D02*
X318597396Y-276254257D01*
X318597396Y-276254257D02*
X318561682Y-275778066D01*
X318561682Y-275778066D02*
X318502158Y-275492352D01*
X318502158Y-275492352D02*
X318430730Y-275301876D01*
X318430730Y-275301876D02*
X318275968Y-275016161D01*
X318275968Y-275016161D02*
X318192634Y-274920923D01*
X319454539Y-277016161D02*
X319537872Y-277111400D01*
X319537872Y-277111400D02*
X319430729Y-277206638D01*
X319430729Y-277206638D02*
X319347396Y-277111400D01*
X319347396Y-277111400D02*
X319454539Y-277016161D01*
X319454539Y-277016161D02*
X319430729Y-277206638D01*
X320264063Y-275873304D02*
X321025967Y-275873304D01*
X320633110Y-275206638D02*
X320418825Y-276920923D01*
X320418825Y-276920923D02*
X320490253Y-277111400D01*
X320490253Y-277111400D02*
X320668825Y-277206638D01*
X320668825Y-277206638D02*
X320859301Y-277206638D01*
X321525967Y-277206638D02*
X321775967Y-275206638D01*
X322383110Y-277206638D02*
X322514062Y-276159019D01*
X322514062Y-276159019D02*
X322442634Y-275968542D01*
X322442634Y-275968542D02*
X322264062Y-275873304D01*
X322264062Y-275873304D02*
X321978348Y-275873304D01*
X321978348Y-275873304D02*
X321775967Y-275968542D01*
X321775967Y-275968542D02*
X321668824Y-276063780D01*
X323335491Y-277206638D02*
X323502158Y-275873304D01*
X323585491Y-275206638D02*
X323478348Y-275301876D01*
X323478348Y-275301876D02*
X323561682Y-275397114D01*
X323561682Y-275397114D02*
X323668825Y-275301876D01*
X323668825Y-275301876D02*
X323585491Y-275206638D01*
X323585491Y-275206638D02*
X323561682Y-275397114D01*
X324204539Y-277111400D02*
X324383110Y-277206638D01*
X324383110Y-277206638D02*
X324764063Y-277206638D01*
X324764063Y-277206638D02*
X324966444Y-277111400D01*
X324966444Y-277111400D02*
X325085491Y-276920923D01*
X325085491Y-276920923D02*
X325097396Y-276825685D01*
X325097396Y-276825685D02*
X325025967Y-276635209D01*
X325025967Y-276635209D02*
X324847396Y-276539971D01*
X324847396Y-276539971D02*
X324561682Y-276539971D01*
X324561682Y-276539971D02*
X324383110Y-276444733D01*
X324383110Y-276444733D02*
X324311682Y-276254257D01*
X324311682Y-276254257D02*
X324323587Y-276159019D01*
X324323587Y-276159019D02*
X324442634Y-275968542D01*
X324442634Y-275968542D02*
X324645015Y-275873304D01*
X324645015Y-275873304D02*
X324930729Y-275873304D01*
X324930729Y-275873304D02*
X325109301Y-275968542D01*
X325930730Y-277016161D02*
X326014063Y-277111400D01*
X326014063Y-277111400D02*
X325906920Y-277206638D01*
X325906920Y-277206638D02*
X325823587Y-277111400D01*
X325823587Y-277111400D02*
X325930730Y-277016161D01*
X325930730Y-277016161D02*
X325906920Y-277206638D01*
X326859301Y-277206638D02*
X327109301Y-275206638D01*
X327014063Y-275968542D02*
X327216444Y-275873304D01*
X327216444Y-275873304D02*
X327597396Y-275873304D01*
X327597396Y-275873304D02*
X327775968Y-275968542D01*
X327775968Y-275968542D02*
X327859301Y-276063780D01*
X327859301Y-276063780D02*
X327930730Y-276254257D01*
X327930730Y-276254257D02*
X327859301Y-276825685D01*
X327859301Y-276825685D02*
X327740254Y-277016161D01*
X327740254Y-277016161D02*
X327633111Y-277111400D01*
X327633111Y-277111400D02*
X327430730Y-277206638D01*
X327430730Y-277206638D02*
X327049777Y-277206638D01*
X327049777Y-277206638D02*
X326871206Y-277111400D01*
X329442635Y-277111400D02*
X329240254Y-277206638D01*
X329240254Y-277206638D02*
X328859301Y-277206638D01*
X328859301Y-277206638D02*
X328680730Y-277111400D01*
X328680730Y-277111400D02*
X328609301Y-276920923D01*
X328609301Y-276920923D02*
X328704540Y-276159019D01*
X328704540Y-276159019D02*
X328823587Y-275968542D01*
X328823587Y-275968542D02*
X329025968Y-275873304D01*
X329025968Y-275873304D02*
X329406920Y-275873304D01*
X329406920Y-275873304D02*
X329585492Y-275968542D01*
X329585492Y-275968542D02*
X329656920Y-276159019D01*
X329656920Y-276159019D02*
X329633111Y-276349495D01*
X329633111Y-276349495D02*
X328656920Y-276539971D01*
X331240254Y-277206638D02*
X331371206Y-276159019D01*
X331371206Y-276159019D02*
X331299778Y-275968542D01*
X331299778Y-275968542D02*
X331121206Y-275873304D01*
X331121206Y-275873304D02*
X330740254Y-275873304D01*
X330740254Y-275873304D02*
X330537873Y-275968542D01*
X331252159Y-277111400D02*
X331049778Y-277206638D01*
X331049778Y-277206638D02*
X330573587Y-277206638D01*
X330573587Y-277206638D02*
X330395016Y-277111400D01*
X330395016Y-277111400D02*
X330323587Y-276920923D01*
X330323587Y-276920923D02*
X330347397Y-276730447D01*
X330347397Y-276730447D02*
X330466445Y-276539971D01*
X330466445Y-276539971D02*
X330668826Y-276444733D01*
X330668826Y-276444733D02*
X331145016Y-276444733D01*
X331145016Y-276444733D02*
X331347397Y-276349495D01*
X332073588Y-275873304D02*
X332835492Y-275873304D01*
X332442635Y-275206638D02*
X332228350Y-276920923D01*
X332228350Y-276920923D02*
X332299778Y-277111400D01*
X332299778Y-277111400D02*
X332478350Y-277206638D01*
X332478350Y-277206638D02*
X332668826Y-277206638D01*
D10*
D11*
X301944826Y-272602614D02*
X301444826Y-272602614D01*
X301444826Y-273388328D02*
X301444826Y-271888328D01*
X301444826Y-271888328D02*
X302159112Y-271888328D01*
X302730540Y-273388328D02*
X302730540Y-272388328D01*
X302730540Y-271888328D02*
X302659112Y-271959757D01*
X302659112Y-271959757D02*
X302730540Y-272031185D01*
X302730540Y-272031185D02*
X302801969Y-271959757D01*
X302801969Y-271959757D02*
X302730540Y-271888328D01*
X302730540Y-271888328D02*
X302730540Y-272031185D01*
X303659112Y-273388328D02*
X303516255Y-273316900D01*
X303516255Y-273316900D02*
X303444826Y-273174042D01*
X303444826Y-273174042D02*
X303444826Y-271888328D01*
X304801969Y-273316900D02*
X304659112Y-273388328D01*
X304659112Y-273388328D02*
X304373398Y-273388328D01*
X304373398Y-273388328D02*
X304230540Y-273316900D01*
X304230540Y-273316900D02*
X304159112Y-273174042D01*
X304159112Y-273174042D02*
X304159112Y-272602614D01*
X304159112Y-272602614D02*
X304230540Y-272459757D01*
X304230540Y-272459757D02*
X304373398Y-272388328D01*
X304373398Y-272388328D02*
X304659112Y-272388328D01*
X304659112Y-272388328D02*
X304801969Y-272459757D01*
X304801969Y-272459757D02*
X304873398Y-272602614D01*
X304873398Y-272602614D02*
X304873398Y-272745471D01*
X304873398Y-272745471D02*
X304159112Y-272888328D01*
X305516254Y-273245471D02*
X305587683Y-273316900D01*
X305587683Y-273316900D02*
X305516254Y-273388328D01*
X305516254Y-273388328D02*
X305444826Y-273316900D01*
X305444826Y-273316900D02*
X305516254Y-273245471D01*
X305516254Y-273245471D02*
X305516254Y-273388328D01*
X305516254Y-272459757D02*
X305587683Y-272531185D01*
X305587683Y-272531185D02*
X305516254Y-272602614D01*
X305516254Y-272602614D02*
X305444826Y-272531185D01*
X305444826Y-272531185D02*
X305516254Y-272459757D01*
X305516254Y-272459757D02*
X305516254Y-272602614D01*
X308230540Y-273245471D02*
X308159112Y-273316900D01*
X308159112Y-273316900D02*
X307944826Y-273388328D01*
X307944826Y-273388328D02*
X307801969Y-273388328D01*
X307801969Y-273388328D02*
X307587683Y-273316900D01*
X307587683Y-273316900D02*
X307444826Y-273174042D01*
X307444826Y-273174042D02*
X307373397Y-273031185D01*
X307373397Y-273031185D02*
X307301969Y-272745471D01*
X307301969Y-272745471D02*
X307301969Y-272531185D01*
X307301969Y-272531185D02*
X307373397Y-272245471D01*
X307373397Y-272245471D02*
X307444826Y-272102614D01*
X307444826Y-272102614D02*
X307587683Y-271959757D01*
X307587683Y-271959757D02*
X307801969Y-271888328D01*
X307801969Y-271888328D02*
X307944826Y-271888328D01*
X307944826Y-271888328D02*
X308159112Y-271959757D01*
X308159112Y-271959757D02*
X308230540Y-272031185D01*
X309087683Y-273388328D02*
X308944826Y-273316900D01*
X308944826Y-273316900D02*
X308873397Y-273245471D01*
X308873397Y-273245471D02*
X308801969Y-273102614D01*
X308801969Y-273102614D02*
X308801969Y-272674042D01*
X308801969Y-272674042D02*
X308873397Y-272531185D01*
X308873397Y-272531185D02*
X308944826Y-272459757D01*
X308944826Y-272459757D02*
X309087683Y-272388328D01*
X309087683Y-272388328D02*
X309301969Y-272388328D01*
X309301969Y-272388328D02*
X309444826Y-272459757D01*
X309444826Y-272459757D02*
X309516255Y-272531185D01*
X309516255Y-272531185D02*
X309587683Y-272674042D01*
X309587683Y-272674042D02*
X309587683Y-273102614D01*
X309587683Y-273102614D02*
X309516255Y-273245471D01*
X309516255Y-273245471D02*
X309444826Y-273316900D01*
X309444826Y-273316900D02*
X309301969Y-273388328D01*
X309301969Y-273388328D02*
X309087683Y-273388328D01*
X310230540Y-272388328D02*
X310230540Y-273388328D01*
X310230540Y-272531185D02*
X310301969Y-272459757D01*
X310301969Y-272459757D02*
X310444826Y-272388328D01*
X310444826Y-272388328D02*
X310659112Y-272388328D01*
X310659112Y-272388328D02*
X310801969Y-272459757D01*
X310801969Y-272459757D02*
X310873398Y-272602614D01*
X310873398Y-272602614D02*
X310873398Y-273388328D01*
X311373398Y-272388328D02*
X311944826Y-272388328D01*
X311587683Y-271888328D02*
X311587683Y-273174042D01*
X311587683Y-273174042D02*
X311659112Y-273316900D01*
X311659112Y-273316900D02*
X311801969Y-273388328D01*
X311801969Y-273388328D02*
X311944826Y-273388328D01*
X313087684Y-273388328D02*
X313087684Y-272602614D01*
X313087684Y-272602614D02*
X313016255Y-272459757D01*
X313016255Y-272459757D02*
X312873398Y-272388328D01*
X312873398Y-272388328D02*
X312587684Y-272388328D01*
X312587684Y-272388328D02*
X312444826Y-272459757D01*
X313087684Y-273316900D02*
X312944826Y-273388328D01*
X312944826Y-273388328D02*
X312587684Y-273388328D01*
X312587684Y-273388328D02*
X312444826Y-273316900D01*
X312444826Y-273316900D02*
X312373398Y-273174042D01*
X312373398Y-273174042D02*
X312373398Y-273031185D01*
X312373398Y-273031185D02*
X312444826Y-272888328D01*
X312444826Y-272888328D02*
X312587684Y-272816900D01*
X312587684Y-272816900D02*
X312944826Y-272816900D01*
X312944826Y-272816900D02*
X313087684Y-272745471D01*
X314444827Y-273316900D02*
X314301969Y-273388328D01*
X314301969Y-273388328D02*
X314016255Y-273388328D01*
X314016255Y-273388328D02*
X313873398Y-273316900D01*
X313873398Y-273316900D02*
X313801969Y-273245471D01*
X313801969Y-273245471D02*
X313730541Y-273102614D01*
X313730541Y-273102614D02*
X313730541Y-272674042D01*
X313730541Y-272674042D02*
X313801969Y-272531185D01*
X313801969Y-272531185D02*
X313873398Y-272459757D01*
X313873398Y-272459757D02*
X314016255Y-272388328D01*
X314016255Y-272388328D02*
X314301969Y-272388328D01*
X314301969Y-272388328D02*
X314444827Y-272459757D01*
X314873398Y-272388328D02*
X315444826Y-272388328D01*
X315087683Y-271888328D02*
X315087683Y-273174042D01*
X315087683Y-273174042D02*
X315159112Y-273316900D01*
X315159112Y-273316900D02*
X315301969Y-273388328D01*
X315301969Y-273388328D02*
X315444826Y-273388328D01*
X316159112Y-273388328D02*
X316016255Y-273316900D01*
X316016255Y-273316900D02*
X315944826Y-273174042D01*
X315944826Y-273174042D02*
X315944826Y-271888328D01*
X317301969Y-273316900D02*
X317159112Y-273388328D01*
X317159112Y-273388328D02*
X316873398Y-273388328D01*
X316873398Y-273388328D02*
X316730540Y-273316900D01*
X316730540Y-273316900D02*
X316659112Y-273174042D01*
X316659112Y-273174042D02*
X316659112Y-272602614D01*
X316659112Y-272602614D02*
X316730540Y-272459757D01*
X316730540Y-272459757D02*
X316873398Y-272388328D01*
X316873398Y-272388328D02*
X317159112Y-272388328D01*
X317159112Y-272388328D02*
X317301969Y-272459757D01*
X317301969Y-272459757D02*
X317373398Y-272602614D01*
X317373398Y-272602614D02*
X317373398Y-272745471D01*
X317373398Y-272745471D02*
X316659112Y-272888328D01*
X317944826Y-273316900D02*
X318087683Y-273388328D01*
X318087683Y-273388328D02*
X318373397Y-273388328D01*
X318373397Y-273388328D02*
X318516254Y-273316900D01*
X318516254Y-273316900D02*
X318587683Y-273174042D01*
X318587683Y-273174042D02*
X318587683Y-273102614D01*
X318587683Y-273102614D02*
X318516254Y-272959757D01*
X318516254Y-272959757D02*
X318373397Y-272888328D01*
X318373397Y-272888328D02*
X318159112Y-272888328D01*
X318159112Y-272888328D02*
X318016254Y-272816900D01*
X318016254Y-272816900D02*
X317944826Y-272674042D01*
X317944826Y-272674042D02*
X317944826Y-272602614D01*
X317944826Y-272602614D02*
X318016254Y-272459757D01*
X318016254Y-272459757D02*
X318159112Y-272388328D01*
X318159112Y-272388328D02*
X318373397Y-272388328D01*
X318373397Y-272388328D02*
X318516254Y-272459757D01*
X319159112Y-273316900D02*
X319301969Y-273388328D01*
X319301969Y-273388328D02*
X319587683Y-273388328D01*
X319587683Y-273388328D02*
X319730540Y-273316900D01*
X319730540Y-273316900D02*
X319801969Y-273174042D01*
X319801969Y-273174042D02*
X319801969Y-273102614D01*
X319801969Y-273102614D02*
X319730540Y-272959757D01*
X319730540Y-272959757D02*
X319587683Y-272888328D01*
X319587683Y-272888328D02*
X319373398Y-272888328D01*
X319373398Y-272888328D02*
X319230540Y-272816900D01*
X319230540Y-272816900D02*
X319159112Y-272674042D01*
X319159112Y-272674042D02*
X319159112Y-272602614D01*
X319159112Y-272602614D02*
X319230540Y-272459757D01*
X319230540Y-272459757D02*
X319373398Y-272388328D01*
X319373398Y-272388328D02*
X319587683Y-272388328D01*
X319587683Y-272388328D02*
X319730540Y-272459757D01*
X320444826Y-273388328D02*
X320444826Y-271888328D01*
X320444826Y-271888328D02*
X321016255Y-271888328D01*
X321016255Y-271888328D02*
X321159112Y-271959757D01*
X321159112Y-271959757D02*
X321230541Y-272031185D01*
X321230541Y-272031185D02*
X321301969Y-272174042D01*
X321301969Y-272174042D02*
X321301969Y-272388328D01*
X321301969Y-272388328D02*
X321230541Y-272531185D01*
X321230541Y-272531185D02*
X321159112Y-272602614D01*
X321159112Y-272602614D02*
X321016255Y-272674042D01*
X321016255Y-272674042D02*
X320444826Y-272674042D01*
X321944826Y-273388328D02*
X321944826Y-272388328D01*
X321944826Y-271888328D02*
X321873398Y-271959757D01*
X321873398Y-271959757D02*
X321944826Y-272031185D01*
X321944826Y-272031185D02*
X322016255Y-271959757D01*
X322016255Y-271959757D02*
X321944826Y-271888328D01*
X321944826Y-271888328D02*
X321944826Y-272031185D01*
X322659112Y-273388328D02*
X322659112Y-271888328D01*
X322659112Y-271888328D02*
X323230541Y-271888328D01*
X323230541Y-271888328D02*
X323373398Y-271959757D01*
X323373398Y-271959757D02*
X323444827Y-272031185D01*
X323444827Y-272031185D02*
X323516255Y-272174042D01*
X323516255Y-272174042D02*
X323516255Y-272388328D01*
X323516255Y-272388328D02*
X323444827Y-272531185D01*
X323444827Y-272531185D02*
X323373398Y-272602614D01*
X323373398Y-272602614D02*
X323230541Y-272674042D01*
X323230541Y-272674042D02*
X322659112Y-272674042D01*
X324373398Y-273388328D02*
X324230541Y-273316900D01*
X324230541Y-273316900D02*
X324159112Y-273245471D01*
X324159112Y-273245471D02*
X324087684Y-273102614D01*
X324087684Y-273102614D02*
X324087684Y-272674042D01*
X324087684Y-272674042D02*
X324159112Y-272531185D01*
X324159112Y-272531185D02*
X324230541Y-272459757D01*
X324230541Y-272459757D02*
X324373398Y-272388328D01*
X324373398Y-272388328D02*
X324587684Y-272388328D01*
X324587684Y-272388328D02*
X324730541Y-272459757D01*
X324730541Y-272459757D02*
X324801970Y-272531185D01*
X324801970Y-272531185D02*
X324873398Y-272674042D01*
X324873398Y-272674042D02*
X324873398Y-273102614D01*
X324873398Y-273102614D02*
X324801970Y-273245471D01*
X324801970Y-273245471D02*
X324730541Y-273316900D01*
X324730541Y-273316900D02*
X324587684Y-273388328D01*
X324587684Y-273388328D02*
X324373398Y-273388328D01*
X325373398Y-272388328D02*
X325659113Y-273388328D01*
X325659113Y-273388328D02*
X325944827Y-272674042D01*
X325944827Y-272674042D02*
X326230541Y-273388328D01*
X326230541Y-273388328D02*
X326516255Y-272388328D01*
X327659113Y-273316900D02*
X327516256Y-273388328D01*
X327516256Y-273388328D02*
X327230542Y-273388328D01*
X327230542Y-273388328D02*
X327087684Y-273316900D01*
X327087684Y-273316900D02*
X327016256Y-273174042D01*
X327016256Y-273174042D02*
X327016256Y-272602614D01*
X327016256Y-272602614D02*
X327087684Y-272459757D01*
X327087684Y-272459757D02*
X327230542Y-272388328D01*
X327230542Y-272388328D02*
X327516256Y-272388328D01*
X327516256Y-272388328D02*
X327659113Y-272459757D01*
X327659113Y-272459757D02*
X327730542Y-272602614D01*
X327730542Y-272602614D02*
X327730542Y-272745471D01*
X327730542Y-272745471D02*
X327016256Y-272888328D01*
X328373398Y-273388328D02*
X328373398Y-272388328D01*
X328373398Y-272674042D02*
X328444827Y-272531185D01*
X328444827Y-272531185D02*
X328516256Y-272459757D01*
X328516256Y-272459757D02*
X328659113Y-272388328D01*
X328659113Y-272388328D02*
X328801970Y-272388328D01*
X329873398Y-273316900D02*
X329730541Y-273388328D01*
X329730541Y-273388328D02*
X329444827Y-273388328D01*
X329444827Y-273388328D02*
X329301969Y-273316900D01*
X329301969Y-273316900D02*
X329230541Y-273174042D01*
X329230541Y-273174042D02*
X329230541Y-272602614D01*
X329230541Y-272602614D02*
X329301969Y-272459757D01*
X329301969Y-272459757D02*
X329444827Y-272388328D01*
X329444827Y-272388328D02*
X329730541Y-272388328D01*
X329730541Y-272388328D02*
X329873398Y-272459757D01*
X329873398Y-272459757D02*
X329944827Y-272602614D01*
X329944827Y-272602614D02*
X329944827Y-272745471D01*
X329944827Y-272745471D02*
X329230541Y-272888328D01*
X331230541Y-273388328D02*
X331230541Y-271888328D01*
X331230541Y-273316900D02*
X331087683Y-273388328D01*
X331087683Y-273388328D02*
X330801969Y-273388328D01*
X330801969Y-273388328D02*
X330659112Y-273316900D01*
X330659112Y-273316900D02*
X330587683Y-273245471D01*
X330587683Y-273245471D02*
X330516255Y-273102614D01*
X330516255Y-273102614D02*
X330516255Y-272674042D01*
X330516255Y-272674042D02*
X330587683Y-272531185D01*
X330587683Y-272531185D02*
X330659112Y-272459757D01*
X330659112Y-272459757D02*
X330801969Y-272388328D01*
X330801969Y-272388328D02*
X331087683Y-272388328D01*
X331087683Y-272388328D02*
X331230541Y-272459757D01*
X331944826Y-273388328D02*
X331944826Y-271888328D01*
X331944826Y-271888328D02*
X332301969Y-271888328D01*
X332301969Y-271888328D02*
X332516255Y-271959757D01*
X332516255Y-271959757D02*
X332659112Y-272102614D01*
X332659112Y-272102614D02*
X332730541Y-272245471D01*
X332730541Y-272245471D02*
X332801969Y-272531185D01*
X332801969Y-272531185D02*
X332801969Y-272745471D01*
X332801969Y-272745471D02*
X332730541Y-273031185D01*
X332730541Y-273031185D02*
X332659112Y-273174042D01*
X332659112Y-273174042D02*
X332516255Y-273316900D01*
X332516255Y-273316900D02*
X332301969Y-273388328D01*
X332301969Y-273388328D02*
X331944826Y-273388328D01*
X333444826Y-273388328D02*
X333444826Y-272388328D01*
X333444826Y-272674042D02*
X333516255Y-272531185D01*
X333516255Y-272531185D02*
X333587684Y-272459757D01*
X333587684Y-272459757D02*
X333730541Y-272388328D01*
X333730541Y-272388328D02*
X333873398Y-272388328D01*
X335016255Y-272388328D02*
X335016255Y-273388328D01*
X334373397Y-272388328D02*
X334373397Y-273174042D01*
X334373397Y-273174042D02*
X334444826Y-273316900D01*
X334444826Y-273316900D02*
X334587683Y-273388328D01*
X334587683Y-273388328D02*
X334801969Y-273388328D01*
X334801969Y-273388328D02*
X334944826Y-273316900D01*
X334944826Y-273316900D02*
X335016255Y-273245471D01*
X335730540Y-273388328D02*
X335730540Y-272388328D01*
X335730540Y-272531185D02*
X335801969Y-272459757D01*
X335801969Y-272459757D02*
X335944826Y-272388328D01*
X335944826Y-272388328D02*
X336159112Y-272388328D01*
X336159112Y-272388328D02*
X336301969Y-272459757D01*
X336301969Y-272459757D02*
X336373398Y-272602614D01*
X336373398Y-272602614D02*
X336373398Y-273388328D01*
X336373398Y-272602614D02*
X336444826Y-272459757D01*
X336444826Y-272459757D02*
X336587683Y-272388328D01*
X336587683Y-272388328D02*
X336801969Y-272388328D01*
X336801969Y-272388328D02*
X336944826Y-272459757D01*
X336944826Y-272459757D02*
X337016255Y-272602614D01*
X337016255Y-272602614D02*
X337016255Y-273388328D01*
X337730540Y-273388328D02*
X337730540Y-271888328D01*
X337873398Y-272816900D02*
X338301969Y-273388328D01*
X338301969Y-272388328D02*
X337730540Y-272959757D01*
X338944826Y-273388328D02*
X338944826Y-272388328D01*
X338944826Y-271888328D02*
X338873398Y-271959757D01*
X338873398Y-271959757D02*
X338944826Y-272031185D01*
X338944826Y-272031185D02*
X339016255Y-271959757D01*
X339016255Y-271959757D02*
X338944826Y-271888328D01*
X338944826Y-271888328D02*
X338944826Y-272031185D01*
X339444827Y-272388328D02*
X340016255Y-272388328D01*
X339659112Y-271888328D02*
X339659112Y-273174042D01*
X339659112Y-273174042D02*
X339730541Y-273316900D01*
X339730541Y-273316900D02*
X339873398Y-273388328D01*
X339873398Y-273388328D02*
X340016255Y-273388328D01*
X340516255Y-273245471D02*
X340587684Y-273316900D01*
X340587684Y-273316900D02*
X340516255Y-273388328D01*
X340516255Y-273388328D02*
X340444827Y-273316900D01*
X340444827Y-273316900D02*
X340516255Y-273245471D01*
X340516255Y-273245471D02*
X340516255Y-273388328D01*
X341230541Y-273388328D02*
X341230541Y-271888328D01*
X341373399Y-272816900D02*
X341801970Y-273388328D01*
X341801970Y-272388328D02*
X341230541Y-272959757D01*
X342444827Y-273388328D02*
X342444827Y-272388328D01*
X342444827Y-271888328D02*
X342373399Y-271959757D01*
X342373399Y-271959757D02*
X342444827Y-272031185D01*
X342444827Y-272031185D02*
X342516256Y-271959757D01*
X342516256Y-271959757D02*
X342444827Y-271888328D01*
X342444827Y-271888328D02*
X342444827Y-272031185D01*
X343801971Y-273316900D02*
X343659113Y-273388328D01*
X343659113Y-273388328D02*
X343373399Y-273388328D01*
X343373399Y-273388328D02*
X343230542Y-273316900D01*
X343230542Y-273316900D02*
X343159113Y-273245471D01*
X343159113Y-273245471D02*
X343087685Y-273102614D01*
X343087685Y-273102614D02*
X343087685Y-272674042D01*
X343087685Y-272674042D02*
X343159113Y-272531185D01*
X343159113Y-272531185D02*
X343230542Y-272459757D01*
X343230542Y-272459757D02*
X343373399Y-272388328D01*
X343373399Y-272388328D02*
X343659113Y-272388328D01*
X343659113Y-272388328D02*
X343801971Y-272459757D01*
X345087685Y-273388328D02*
X345087685Y-272602614D01*
X345087685Y-272602614D02*
X345016256Y-272459757D01*
X345016256Y-272459757D02*
X344873399Y-272388328D01*
X344873399Y-272388328D02*
X344587685Y-272388328D01*
X344587685Y-272388328D02*
X344444827Y-272459757D01*
X345087685Y-273316900D02*
X344944827Y-273388328D01*
X344944827Y-273388328D02*
X344587685Y-273388328D01*
X344587685Y-273388328D02*
X344444827Y-273316900D01*
X344444827Y-273316900D02*
X344373399Y-273174042D01*
X344373399Y-273174042D02*
X344373399Y-273031185D01*
X344373399Y-273031185D02*
X344444827Y-272888328D01*
X344444827Y-272888328D02*
X344587685Y-272816900D01*
X344587685Y-272816900D02*
X344944827Y-272816900D01*
X344944827Y-272816900D02*
X345087685Y-272745471D01*
X346444828Y-273388328D02*
X346444828Y-271888328D01*
X346444828Y-273316900D02*
X346301970Y-273388328D01*
X346301970Y-273388328D02*
X346016256Y-273388328D01*
X346016256Y-273388328D02*
X345873399Y-273316900D01*
X345873399Y-273316900D02*
X345801970Y-273245471D01*
X345801970Y-273245471D02*
X345730542Y-273102614D01*
X345730542Y-273102614D02*
X345730542Y-272674042D01*
X345730542Y-272674042D02*
X345801970Y-272531185D01*
X345801970Y-272531185D02*
X345873399Y-272459757D01*
X345873399Y-272459757D02*
X346016256Y-272388328D01*
X346016256Y-272388328D02*
X346301970Y-272388328D01*
X346301970Y-272388328D02*
X346444828Y-272459757D01*
X346801971Y-273531185D02*
X347944828Y-273531185D01*
X348301970Y-272388328D02*
X348301970Y-273888328D01*
X348301970Y-272459757D02*
X348444828Y-272388328D01*
X348444828Y-272388328D02*
X348730542Y-272388328D01*
X348730542Y-272388328D02*
X348873399Y-272459757D01*
X348873399Y-272459757D02*
X348944828Y-272531185D01*
X348944828Y-272531185D02*
X349016256Y-272674042D01*
X349016256Y-272674042D02*
X349016256Y-273102614D01*
X349016256Y-273102614D02*
X348944828Y-273245471D01*
X348944828Y-273245471D02*
X348873399Y-273316900D01*
X348873399Y-273316900D02*
X348730542Y-273388328D01*
X348730542Y-273388328D02*
X348444828Y-273388328D01*
X348444828Y-273388328D02*
X348301970Y-273316900D01*
X350301971Y-273316900D02*
X350159113Y-273388328D01*
X350159113Y-273388328D02*
X349873399Y-273388328D01*
X349873399Y-273388328D02*
X349730542Y-273316900D01*
X349730542Y-273316900D02*
X349659113Y-273245471D01*
X349659113Y-273245471D02*
X349587685Y-273102614D01*
X349587685Y-273102614D02*
X349587685Y-272674042D01*
X349587685Y-272674042D02*
X349659113Y-272531185D01*
X349659113Y-272531185D02*
X349730542Y-272459757D01*
X349730542Y-272459757D02*
X349873399Y-272388328D01*
X349873399Y-272388328D02*
X350159113Y-272388328D01*
X350159113Y-272388328D02*
X350301971Y-272459757D01*
X350944827Y-273388328D02*
X350944827Y-271888328D01*
X350944827Y-272459757D02*
X351087685Y-272388328D01*
X351087685Y-272388328D02*
X351373399Y-272388328D01*
X351373399Y-272388328D02*
X351516256Y-272459757D01*
X351516256Y-272459757D02*
X351587685Y-272531185D01*
X351587685Y-272531185D02*
X351659113Y-272674042D01*
X351659113Y-272674042D02*
X351659113Y-273102614D01*
X351659113Y-273102614D02*
X351587685Y-273245471D01*
X351587685Y-273245471D02*
X351516256Y-273316900D01*
X351516256Y-273316900D02*
X351373399Y-273388328D01*
X351373399Y-273388328D02*
X351087685Y-273388328D01*
X351087685Y-273388328D02*
X350944827Y-273316900D01*
D10*
D11*
X299989000Y-268502200D02*
X407989000Y-268502200D01*
D10*
D11*
X301373398Y-270616900D02*
X301587684Y-270688328D01*
X301587684Y-270688328D02*
X301944826Y-270688328D01*
X301944826Y-270688328D02*
X302087684Y-270616900D01*
X302087684Y-270616900D02*
X302159112Y-270545471D01*
X302159112Y-270545471D02*
X302230541Y-270402614D01*
X302230541Y-270402614D02*
X302230541Y-270259757D01*
X302230541Y-270259757D02*
X302159112Y-270116900D01*
X302159112Y-270116900D02*
X302087684Y-270045471D01*
X302087684Y-270045471D02*
X301944826Y-269974042D01*
X301944826Y-269974042D02*
X301659112Y-269902614D01*
X301659112Y-269902614D02*
X301516255Y-269831185D01*
X301516255Y-269831185D02*
X301444826Y-269759757D01*
X301444826Y-269759757D02*
X301373398Y-269616900D01*
X301373398Y-269616900D02*
X301373398Y-269474042D01*
X301373398Y-269474042D02*
X301444826Y-269331185D01*
X301444826Y-269331185D02*
X301516255Y-269259757D01*
X301516255Y-269259757D02*
X301659112Y-269188328D01*
X301659112Y-269188328D02*
X302016255Y-269188328D01*
X302016255Y-269188328D02*
X302230541Y-269259757D01*
X302873397Y-270688328D02*
X302873397Y-269188328D01*
X303516255Y-270688328D02*
X303516255Y-269902614D01*
X303516255Y-269902614D02*
X303444826Y-269759757D01*
X303444826Y-269759757D02*
X303301969Y-269688328D01*
X303301969Y-269688328D02*
X303087683Y-269688328D01*
X303087683Y-269688328D02*
X302944826Y-269759757D01*
X302944826Y-269759757D02*
X302873397Y-269831185D01*
X304801969Y-270616900D02*
X304659112Y-270688328D01*
X304659112Y-270688328D02*
X304373398Y-270688328D01*
X304373398Y-270688328D02*
X304230540Y-270616900D01*
X304230540Y-270616900D02*
X304159112Y-270474042D01*
X304159112Y-270474042D02*
X304159112Y-269902614D01*
X304159112Y-269902614D02*
X304230540Y-269759757D01*
X304230540Y-269759757D02*
X304373398Y-269688328D01*
X304373398Y-269688328D02*
X304659112Y-269688328D01*
X304659112Y-269688328D02*
X304801969Y-269759757D01*
X304801969Y-269759757D02*
X304873398Y-269902614D01*
X304873398Y-269902614D02*
X304873398Y-270045471D01*
X304873398Y-270045471D02*
X304159112Y-270188328D01*
X306087683Y-270616900D02*
X305944826Y-270688328D01*
X305944826Y-270688328D02*
X305659112Y-270688328D01*
X305659112Y-270688328D02*
X305516254Y-270616900D01*
X305516254Y-270616900D02*
X305444826Y-270474042D01*
X305444826Y-270474042D02*
X305444826Y-269902614D01*
X305444826Y-269902614D02*
X305516254Y-269759757D01*
X305516254Y-269759757D02*
X305659112Y-269688328D01*
X305659112Y-269688328D02*
X305944826Y-269688328D01*
X305944826Y-269688328D02*
X306087683Y-269759757D01*
X306087683Y-269759757D02*
X306159112Y-269902614D01*
X306159112Y-269902614D02*
X306159112Y-270045471D01*
X306159112Y-270045471D02*
X305444826Y-270188328D01*
X306587683Y-269688328D02*
X307159111Y-269688328D01*
X306801968Y-269188328D02*
X306801968Y-270474042D01*
X306801968Y-270474042D02*
X306873397Y-270616900D01*
X306873397Y-270616900D02*
X307016254Y-270688328D01*
X307016254Y-270688328D02*
X307159111Y-270688328D01*
X307659111Y-270545471D02*
X307730540Y-270616900D01*
X307730540Y-270616900D02*
X307659111Y-270688328D01*
X307659111Y-270688328D02*
X307587683Y-270616900D01*
X307587683Y-270616900D02*
X307659111Y-270545471D01*
X307659111Y-270545471D02*
X307659111Y-270688328D01*
X307659111Y-269759757D02*
X307730540Y-269831185D01*
X307730540Y-269831185D02*
X307659111Y-269902614D01*
X307659111Y-269902614D02*
X307587683Y-269831185D01*
X307587683Y-269831185D02*
X307659111Y-269759757D01*
X307659111Y-269759757D02*
X307659111Y-269902614D01*
D10*
D12*
D10*
D11*
D10*
D11*
D10*
D11*
D10*
D11*
D10*
D11*
X319989000Y-278502200D02*
X319989000Y-281502200D01*
D10*
D11*
X383989000Y-278502200D02*
X383989000Y-285002200D01*
G36*
X75892398Y-149224996D02*
G01*
X75795025Y-149132949D01*
X75700744Y-149040297D01*
X75609553Y-148947039D01*
X75521454Y-148853174D01*
X75436446Y-148758704D01*
X75354529Y-148663629D01*
X75275704Y-148567947D01*
X75199969Y-148471659D01*
X75127326Y-148374766D01*
X75057774Y-148277267D01*
X74991314Y-148179162D01*
X74927944Y-148080451D01*
X74867666Y-147981134D01*
X74810478Y-147881212D01*
X74756383Y-147780684D01*
X74705378Y-147679549D01*
X74657464Y-147577809D01*
X74612642Y-147475464D01*
X74570911Y-147372512D01*
X74532271Y-147268954D01*
X74496722Y-147164791D01*
X74464264Y-147060022D01*
X74434898Y-146954647D01*
X74408623Y-146848666D01*
X74385439Y-146742079D01*
X74365346Y-146634886D01*
X74348344Y-146527088D01*
X74334434Y-146418684D01*
X74323615Y-146309674D01*
X74315887Y-146200058D01*
X74311250Y-146089836D01*
X74309704Y-145979009D01*
X74310033Y-145926964D01*
X74311021Y-145874938D01*
X74312667Y-145822932D01*
X74314971Y-145770944D01*
X74317933Y-145718976D01*
X74321554Y-145667026D01*
X74325833Y-145615096D01*
X74330770Y-145563185D01*
X74336366Y-145511293D01*
X74342620Y-145459420D01*
X74349532Y-145407566D01*
X74357103Y-145355731D01*
X74365332Y-145303916D01*
X74374219Y-145252119D01*
X74383764Y-145200341D01*
X74393968Y-145148583D01*
X74404902Y-145096681D01*
X74416637Y-145044780D01*
X74429173Y-144992878D01*
X74442511Y-144940976D01*
X74456651Y-144889075D01*
X74471592Y-144837173D01*
X74487334Y-144785272D01*
X74503877Y-144733370D01*
X74521222Y-144681468D01*
X74539369Y-144629567D01*
X74558317Y-144577665D01*
X74578066Y-144525764D01*
X74598617Y-144473862D01*
X74619969Y-144421960D01*
X74642123Y-144370059D01*
X74665078Y-144318157D01*
X74688906Y-144266103D01*
X74713678Y-144214049D01*
X74739395Y-144161994D01*
X74766057Y-144109940D01*
X74793663Y-144057886D01*
X74822214Y-144005832D01*
X74851709Y-143953777D01*
X74882148Y-143901723D01*
X74913533Y-143849669D01*
X74945862Y-143797615D01*
X74979135Y-143745560D01*
X75013353Y-143693506D01*
X75048515Y-143641452D01*
X75084622Y-143589398D01*
X75121673Y-143537343D01*
X75159669Y-143485289D01*
X75198653Y-143433263D01*
X75238667Y-143381295D01*
X75279711Y-143329384D01*
X75321786Y-143277530D01*
X75364891Y-143225733D01*
X75409026Y-143173994D01*
X75454192Y-143122312D01*
X75500388Y-143070687D01*
X75547615Y-143019119D01*
X75595872Y-142967609D01*
X75645159Y-142916156D01*
X75695477Y-142864760D01*
X75746825Y-142813421D01*
X75799204Y-142762139D01*
X75852613Y-142710915D01*
X75907053Y-142659748D01*
X76253877Y-143013900D01*
X76171832Y-143096534D01*
X76092391Y-143179723D01*
X76015555Y-143263468D01*
X75941323Y-143347769D01*
X75869696Y-143432625D01*
X75800673Y-143518038D01*
X75734255Y-143604006D01*
X75670442Y-143690529D01*
X75609234Y-143777609D01*
X75550630Y-143865244D01*
X75494630Y-143953435D01*
X75441236Y-144042182D01*
X75390446Y-144131484D01*
X75342260Y-144221343D01*
X75296679Y-144311757D01*
X75253703Y-144402726D01*
X75213331Y-144494252D01*
X75175564Y-144586333D01*
X75140402Y-144678970D01*
X75107844Y-144772163D01*
X75077891Y-144865911D01*
X75050542Y-144960215D01*
X75025799Y-145055075D01*
X75003659Y-145150491D01*
X74984125Y-145246462D01*
X74967195Y-145342990D01*
X74952869Y-145440073D01*
X74941148Y-145537711D01*
X74932032Y-145635906D01*
X74925521Y-145734656D01*
X74921614Y-145833962D01*
X74920311Y-145933824D01*
X74920641Y-145983605D01*
X74921628Y-146033267D01*
X74923274Y-146082809D01*
X74925578Y-146132233D01*
X74928540Y-146181537D01*
X74932161Y-146230722D01*
X74936440Y-146279787D01*
X74941377Y-146328734D01*
X74946973Y-146377561D01*
X74953227Y-146426269D01*
X74960139Y-146474857D01*
X74967710Y-146523327D01*
X74975939Y-146571677D01*
X74984826Y-146619908D01*
X74994371Y-146668019D01*
X75004575Y-146716011D01*
X75015437Y-146763884D01*
X75026958Y-146811638D01*
X75039137Y-146859273D01*
X75051974Y-146906788D01*
X75065469Y-146954184D01*
X75079623Y-147001461D01*
X75094435Y-147048618D01*
X75109905Y-147095656D01*
X75126034Y-147142575D01*
X75142820Y-147189375D01*
X75160266Y-147236055D01*
X75178369Y-147282617D01*
X75197131Y-147329059D01*
X75216551Y-147375381D01*
X75236630Y-147421585D01*
X75257367Y-147467669D01*
X75278747Y-147513612D01*
X75300758Y-147559393D01*
X75323398Y-147605012D01*
X75346668Y-147650469D01*
X75370567Y-147695764D01*
X75395097Y-147740896D01*
X75420256Y-147785867D01*
X75446044Y-147830675D01*
X75472462Y-147875321D01*
X75499510Y-147919804D01*
X75527188Y-147964126D01*
X75555495Y-148008285D01*
X75584433Y-148052282D01*
X75613999Y-148096117D01*
X75644196Y-148139790D01*
X75675022Y-148183300D01*
X75706478Y-148226649D01*
X75738563Y-148269835D01*
X75771278Y-148312859D01*
X75804623Y-148355720D01*
X75838598Y-148398420D01*
X75873202Y-148440957D01*
X75908436Y-148483333D01*
X75944300Y-148525546D01*
X75980793Y-148567596D01*
X76017916Y-148609485D01*
X76055669Y-148651211D01*
X76094051Y-148692776D01*
X76133063Y-148734178D01*
X76172705Y-148775417D01*
X76212976Y-148816495D01*
X76253877Y-148857411D01*
X75892398Y-149224996D01*
G37*
G36*
X93755099Y-142659748D02*
G01*
X93852471Y-142751815D01*
X93946753Y-142844528D01*
X94037943Y-142937888D01*
X94126042Y-143031894D01*
X94211050Y-143126547D01*
X94292967Y-143221846D01*
X94371793Y-143317791D01*
X94447527Y-143414382D01*
X94520170Y-143511620D01*
X94589722Y-143609505D01*
X94656183Y-143708035D01*
X94719553Y-143807213D01*
X94779831Y-143907036D01*
X94837018Y-144007506D01*
X94891114Y-144108622D01*
X94942119Y-144210385D01*
X94990032Y-144312794D01*
X95034855Y-144415850D01*
X95076586Y-144519551D01*
X95115226Y-144623900D01*
X95150775Y-144728894D01*
X95183232Y-144834535D01*
X95212599Y-144940823D01*
X95238874Y-145047756D01*
X95262058Y-145155337D01*
X95282151Y-145263563D01*
X95299152Y-145372436D01*
X95313063Y-145481955D01*
X95323882Y-145592121D01*
X95331610Y-145702933D01*
X95336247Y-145814392D01*
X95337792Y-145926496D01*
X95337127Y-145996352D01*
X95335130Y-146066702D01*
X95331803Y-146137546D01*
X95327145Y-146208883D01*
X95321156Y-146280714D01*
X95313835Y-146353039D01*
X95305184Y-146425857D01*
X95298678Y-146474677D01*
X95291579Y-146523717D01*
X95283889Y-146572975D01*
X95275608Y-146622454D01*
X95266735Y-146672151D01*
X95262077Y-146697083D01*
X95252198Y-146747071D01*
X95241488Y-146797203D01*
X95229949Y-146847478D01*
X95217579Y-146897896D01*
X95204379Y-146948457D01*
X95190350Y-146999161D01*
X95175490Y-147050009D01*
X95159800Y-147100999D01*
X95143280Y-147152133D01*
X95125931Y-147203409D01*
X95107751Y-147254829D01*
X95088741Y-147306392D01*
X95068901Y-147358098D01*
X95048231Y-147409947D01*
X95026731Y-147461940D01*
X95004401Y-147514075D01*
X94981164Y-147566329D01*
X94956945Y-147618679D01*
X94931743Y-147671125D01*
X94905559Y-147723666D01*
X94878391Y-147776302D01*
X94850242Y-147829034D01*
X94821109Y-147881861D01*
X94790994Y-147934783D01*
X94759896Y-147987801D01*
X94727815Y-148040914D01*
X94694751Y-148094123D01*
X94660705Y-148147427D01*
X94625676Y-148200827D01*
X94589665Y-148254322D01*
X94552671Y-148307912D01*
X94514694Y-148361598D01*
X94475749Y-148415345D01*
X94435544Y-148469122D01*
X94394080Y-148522927D01*
X94351356Y-148576760D01*
X94307374Y-148630622D01*
X94262131Y-148684513D01*
X94215630Y-148738433D01*
X94167869Y-148792381D01*
X94118849Y-148846358D01*
X94068569Y-148900363D01*
X94017030Y-148954397D01*
X93964232Y-149008459D01*
X93910174Y-149062551D01*
X93854857Y-149116670D01*
X93798280Y-149170819D01*
X93740444Y-149224996D01*
X93393619Y-148870844D01*
X93435189Y-148829267D01*
X93476094Y-148787577D01*
X93516333Y-148745776D01*
X93555907Y-148703862D01*
X93594815Y-148661836D01*
X93633058Y-148619698D01*
X93670636Y-148577448D01*
X93707548Y-148535086D01*
X93743794Y-148492612D01*
X93779375Y-148450026D01*
X93814291Y-148407327D01*
X93848541Y-148364517D01*
X93882125Y-148321594D01*
X93915044Y-148278560D01*
X93947298Y-148235413D01*
X93978886Y-148192154D01*
X94009809Y-148148783D01*
X94040066Y-148105300D01*
X94069658Y-148061705D01*
X94098584Y-148017997D01*
X94126845Y-147974178D01*
X94154440Y-147930247D01*
X94181370Y-147886203D01*
X94207635Y-147842047D01*
X94233234Y-147797779D01*
X94258167Y-147753399D01*
X94282435Y-147708907D01*
X94306038Y-147664303D01*
X94328975Y-147619587D01*
X94351247Y-147574759D01*
X94372853Y-147529818D01*
X94393794Y-147484766D01*
X94414080Y-147439589D01*
X94433722Y-147394277D01*
X94452720Y-147348828D01*
X94471074Y-147303244D01*
X94488784Y-147257523D01*
X94505850Y-147211667D01*
X94538050Y-147119546D01*
X94567674Y-147026882D01*
X94594722Y-146933674D01*
X94619194Y-146839922D01*
X94641090Y-146745626D01*
X94660410Y-146650786D01*
X94677154Y-146555403D01*
X94691321Y-146459475D01*
X94702913Y-146363004D01*
X94711929Y-146265989D01*
X94718369Y-146168430D01*
X94720623Y-146119447D01*
X94722233Y-146070328D01*
X94723199Y-146021072D01*
X94723521Y-145971681D01*
X94722223Y-145869651D01*
X94718327Y-145768268D01*
X94711833Y-145667531D01*
X94702742Y-145567440D01*
X94691053Y-145467996D01*
X94676767Y-145369198D01*
X94659884Y-145271047D01*
X94640403Y-145173541D01*
X94618324Y-145076683D01*
X94593648Y-144980470D01*
X94566375Y-144884904D01*
X94536504Y-144789985D01*
X94504036Y-144695712D01*
X94468970Y-144602085D01*
X94431307Y-144509104D01*
X94391046Y-144416770D01*
X94348188Y-144325083D01*
X94302732Y-144234041D01*
X94254679Y-144143646D01*
X94204028Y-144053898D01*
X94150780Y-143964796D01*
X94094935Y-143876340D01*
X94036492Y-143788531D01*
X93975451Y-143701368D01*
X93911814Y-143614851D01*
X93845578Y-143528981D01*
X93776745Y-143443757D01*
X93705315Y-143359180D01*
X93631287Y-143275249D01*
X93554662Y-143191964D01*
X93475439Y-143109326D01*
X93393619Y-143027334D01*
X93755099Y-142659748D01*
G37*
G36*
X113629139Y-146665331D02*
G01*
X113679787Y-146667493D01*
X113729150Y-146673980D01*
X113777227Y-146684790D01*
X113824018Y-146699926D01*
X113850179Y-146710516D01*
X113894783Y-146731921D01*
X113942468Y-146760390D01*
X113986641Y-146793134D01*
X114027304Y-146830152D01*
X114032140Y-146835080D01*
X114069081Y-146876448D01*
X114101749Y-146921175D01*
X114130142Y-146969261D01*
X114151480Y-147014090D01*
X114154261Y-147020704D01*
X114171867Y-147067412D01*
X114185149Y-147115639D01*
X114194107Y-147165386D01*
X114198740Y-147216652D01*
X114199446Y-147246629D01*
X114197284Y-147297753D01*
X114190797Y-147347475D01*
X114179987Y-147395794D01*
X114164851Y-147442710D01*
X114154261Y-147468890D01*
X114133391Y-147513077D01*
X114105532Y-147560570D01*
X114073399Y-147604859D01*
X114036991Y-147645941D01*
X114032140Y-147650851D01*
X113991916Y-147687335D01*
X113948181Y-147719849D01*
X113900936Y-147748395D01*
X113856715Y-147770117D01*
X113850179Y-147772972D01*
X113804122Y-147790579D01*
X113756780Y-147803860D01*
X113708152Y-147812818D01*
X113658238Y-147817451D01*
X113629139Y-147818157D01*
X113577539Y-147815995D01*
X113527459Y-147809509D01*
X113478898Y-147798698D01*
X113431856Y-147783563D01*
X113405657Y-147772972D01*
X113355892Y-147748395D01*
X113309181Y-147719849D01*
X113265523Y-147687335D01*
X113224917Y-147650851D01*
X113188433Y-147610169D01*
X113155919Y-147566282D01*
X113127373Y-147519189D01*
X113105651Y-147475353D01*
X113102796Y-147468890D01*
X113085665Y-147422775D01*
X113072742Y-147375257D01*
X113064027Y-147326337D01*
X113059519Y-147276014D01*
X113058832Y-147246629D01*
X113060936Y-147194495D01*
X113067247Y-147143880D01*
X113077766Y-147094785D01*
X113092492Y-147047208D01*
X113102796Y-147020704D01*
X113124083Y-146975507D01*
X113148410Y-146932882D01*
X113179933Y-146887315D01*
X113215424Y-146845107D01*
X113224917Y-146835080D01*
X113265523Y-146797527D01*
X113309181Y-146764249D01*
X113355892Y-146735245D01*
X113405657Y-146710516D01*
X113451830Y-146692910D01*
X113499523Y-146679628D01*
X113548736Y-146670670D01*
X113599467Y-146666037D01*
X113629139Y-146665331D01*
G37*
G36*
X131803249Y-148443419D02*
G01*
X131857936Y-148444284D01*
X131912085Y-148443061D01*
X131965698Y-148439752D01*
X132018775Y-148434355D01*
X132071314Y-148426872D01*
X132123317Y-148417301D01*
X132143968Y-148412889D01*
X132194504Y-148400575D01*
X132243072Y-148386532D01*
X132289673Y-148370760D01*
X132342996Y-148349551D01*
X132393486Y-148325852D01*
X132433396Y-148304200D01*
X132478805Y-148275936D01*
X132520694Y-148245181D01*
X132559062Y-148211937D01*
X132593909Y-148176202D01*
X132625236Y-148137977D01*
X132634896Y-148124682D01*
X132664399Y-148076680D01*
X132686655Y-148025640D01*
X132701665Y-147971560D01*
X132708763Y-147922788D01*
X132710612Y-147880439D01*
X132708851Y-147829577D01*
X132702348Y-147774797D01*
X132691053Y-147724925D01*
X132672277Y-147673939D01*
X132660542Y-147650851D01*
X132634744Y-147606582D01*
X132607419Y-147564145D01*
X132578568Y-147523539D01*
X132548190Y-147484766D01*
X132514713Y-147441306D01*
X132486415Y-147401216D01*
X132459491Y-147359752D01*
X132437060Y-147322344D01*
X132415154Y-147275404D01*
X132401121Y-147228445D01*
X132391879Y-147175994D01*
X132387772Y-147126664D01*
X132386990Y-147091535D01*
X132390164Y-147040438D01*
X132399688Y-146987898D01*
X132413856Y-146938883D01*
X132434154Y-146890702D01*
X132459938Y-146845384D01*
X132491208Y-146802927D01*
X132498120Y-146794780D01*
X132532821Y-146759617D01*
X132572352Y-146728319D01*
X132616713Y-146700885D01*
X132643445Y-146687313D01*
X132689393Y-146669147D01*
X132739310Y-146656172D01*
X132793196Y-146648387D01*
X132843602Y-146645832D01*
X132851051Y-146645792D01*
X132903002Y-146648187D01*
X132954134Y-146655375D01*
X133004448Y-146667355D01*
X133053944Y-146684126D01*
X133081861Y-146695861D01*
X133129670Y-146719804D01*
X133174792Y-146748889D01*
X133217226Y-146783116D01*
X133256971Y-146822486D01*
X133278476Y-146847292D01*
X133308873Y-146887563D01*
X133336865Y-146931441D01*
X133362454Y-146978925D01*
X133385638Y-147030016D01*
X133406417Y-147084713D01*
X133412810Y-147103747D01*
X133427234Y-147152822D01*
X133439214Y-147204640D01*
X133448748Y-147259201D01*
X133455838Y-147316505D01*
X133460484Y-147376552D01*
X133462439Y-147426565D01*
X133462879Y-147465226D01*
X133461956Y-147518156D01*
X133459187Y-147570699D01*
X133454572Y-147622856D01*
X133448110Y-147674626D01*
X133439803Y-147726010D01*
X133429649Y-147777008D01*
X133417649Y-147827619D01*
X133403803Y-147877844D01*
X133388111Y-147927682D01*
X133370573Y-147977134D01*
X133357855Y-148009888D01*
X133337261Y-148058352D01*
X133314864Y-148105744D01*
X133290664Y-148152062D01*
X133264661Y-148197306D01*
X133236855Y-148241477D01*
X133207245Y-148284575D01*
X133175832Y-148326600D01*
X133142616Y-148367551D01*
X133107597Y-148407429D01*
X133070774Y-148446233D01*
X133045224Y-148471507D01*
X133005386Y-148508569D01*
X132963722Y-148544193D01*
X132920235Y-148578379D01*
X132874922Y-148611126D01*
X132827785Y-148642435D01*
X132778823Y-148672306D01*
X132728036Y-148700739D01*
X132675425Y-148727733D01*
X132620989Y-148753289D01*
X132564729Y-148777407D01*
X132526208Y-148792686D01*
X132467146Y-148814074D01*
X132406281Y-148833358D01*
X132343613Y-148850539D01*
X132279141Y-148865616D01*
X132212867Y-148878589D01*
X132144789Y-148889458D01*
X132074907Y-148898223D01*
X132003223Y-148904885D01*
X131954432Y-148908158D01*
X131904839Y-148910495D01*
X131854445Y-148911898D01*
X131803249Y-148912365D01*
X131803249Y-148443419D01*
G37*
G36*
X132877918Y-144222903D02*
G01*
X132930888Y-144225574D01*
X132982332Y-144233588D01*
X133032249Y-144246945D01*
X133080639Y-144265645D01*
X133127351Y-144288924D01*
X133171009Y-144316020D01*
X133211615Y-144346932D01*
X133249167Y-144381660D01*
X133283361Y-144419213D01*
X133313891Y-144459818D01*
X133340758Y-144503476D01*
X133363961Y-144550188D01*
X133383195Y-144598502D01*
X133396934Y-144648190D01*
X133405177Y-144699252D01*
X133407925Y-144751688D01*
X133405177Y-144805727D01*
X133396934Y-144857934D01*
X133383195Y-144908309D01*
X133363961Y-144956852D01*
X133340758Y-145002495D01*
X133313891Y-145045390D01*
X133283361Y-145085538D01*
X133249167Y-145122937D01*
X133211615Y-145157055D01*
X133171009Y-145187356D01*
X133127351Y-145213842D01*
X133080639Y-145236510D01*
X133032249Y-145254676D01*
X132982332Y-145267651D01*
X132930888Y-145275437D01*
X132877918Y-145278032D01*
X132823955Y-145275437D01*
X132771978Y-145267651D01*
X132721984Y-145254676D01*
X132673975Y-145236510D01*
X132628332Y-145213842D01*
X132585437Y-145187356D01*
X132545290Y-145157055D01*
X132507890Y-145122937D01*
X132473772Y-145085538D01*
X132443471Y-145045390D01*
X132416986Y-145002495D01*
X132394317Y-144956852D01*
X132376151Y-144908309D01*
X132363176Y-144857934D01*
X132355391Y-144805727D01*
X132352796Y-144751688D01*
X132355391Y-144699252D01*
X132363176Y-144648190D01*
X132376151Y-144598502D01*
X132394317Y-144550188D01*
X132416986Y-144503476D01*
X132443471Y-144459818D01*
X132473772Y-144419213D01*
X132507890Y-144381660D01*
X132545290Y-144346932D01*
X132585437Y-144316020D01*
X132628332Y-144288924D01*
X132673975Y-144265645D01*
X132721984Y-144246945D01*
X132771978Y-144233588D01*
X132823955Y-144225574D01*
X132877918Y-144222903D01*
G37*
D14*
%TO.C,R2*%
X368300000Y-123889000D03*
X368300000Y-125539000D03*
%TD*%
D15*
%TO.C,C5*%
X243840000Y-105270000D03*
X243840000Y-106820000D03*
%TD*%
D16*
%TO.C,D1*%
X351245000Y-183820000D03*
X351245000Y-187020000D03*
X356145000Y-187020000D03*
X356145000Y-183820000D03*
%TD*%
%TO.C,D4*%
X148045000Y-115240000D03*
X148045000Y-118440000D03*
X152945000Y-118440000D03*
X152945000Y-115240000D03*
%TD*%
D14*
%TO.C,R8*%
X290703000Y-123838200D03*
X290703000Y-125488200D03*
%TD*%
D17*
%TO.C,U3*%
X250228000Y-105370000D03*
D18*
X250368000Y-105245000D03*
X251168000Y-105245000D03*
X251968000Y-105245000D03*
X252768000Y-105245000D03*
X253568000Y-105245000D03*
X253568000Y-106045000D03*
X253568000Y-106845000D03*
X252768000Y-106845000D03*
X251968000Y-106845000D03*
X251168000Y-106845000D03*
X250368000Y-106845000D03*
X250368000Y-106045000D03*
%TD*%
D16*
%TO.C,D6*%
X46445000Y-183820000D03*
X46445000Y-187020000D03*
X51345000Y-187020000D03*
X51345000Y-183820000D03*
%TD*%
D14*
%TO.C,R9*%
X322910200Y-123850400D03*
X322910200Y-125500400D03*
%TD*%
D19*
%TO.C,R16*%
X371919000Y-147701000D03*
X370269000Y-147701000D03*
%TD*%
D20*
%TO.C,C11*%
X56515000Y-106820000D03*
X56515000Y-105270000D03*
%TD*%
D14*
%TO.C,R11*%
X313309000Y-123889000D03*
X313309000Y-125539000D03*
%TD*%
D17*
%TO.C,U5*%
X47028000Y-105370000D03*
D18*
X47168000Y-105245000D03*
X47968000Y-105245000D03*
X48768000Y-105245000D03*
X49568000Y-105245000D03*
X50368000Y-105245000D03*
X50368000Y-106045000D03*
X50368000Y-106845000D03*
X49568000Y-106845000D03*
X48768000Y-106845000D03*
X47968000Y-106845000D03*
X47168000Y-106845000D03*
X47168000Y-106045000D03*
%TD*%
D15*
%TO.C,C9*%
X40894000Y-105270000D03*
X40894000Y-106820000D03*
%TD*%
D14*
%TO.C,R14*%
X272491200Y-123889000D03*
X272491200Y-125539000D03*
%TD*%
%TO.C,R3*%
X363982000Y-123889000D03*
X363982000Y-125539000D03*
%TD*%
%TO.C,R4*%
X372745000Y-123889000D03*
X372745000Y-125539000D03*
%TD*%
D20*
%TO.C,C7*%
X259715000Y-106820000D03*
X259715000Y-105270000D03*
%TD*%
D19*
%TO.C,R15*%
X371919000Y-135636000D03*
X370269000Y-135636000D03*
%TD*%
D20*
%TO.C,C8*%
X158369000Y-106820000D03*
X158369000Y-105270000D03*
%TD*%
D14*
%TO.C,R10*%
X295148000Y-123838200D03*
X295148000Y-125488200D03*
%TD*%
%TO.C,R1*%
X359410000Y-123889000D03*
X359410000Y-125539000D03*
%TD*%
%TO.C,R13*%
X277012400Y-123838200D03*
X277012400Y-125488200D03*
%TD*%
D16*
%TO.C,D2*%
X351372000Y-115240000D03*
X351372000Y-118440000D03*
X356272000Y-118440000D03*
X356272000Y-115240000D03*
%TD*%
D21*
%TO.C,U7*%
X372044000Y-142636000D03*
X372044000Y-141986000D03*
X372044000Y-141336000D03*
X370144000Y-141336000D03*
X370144000Y-141986000D03*
X370144000Y-142636000D03*
%TD*%
D14*
%TO.C,R6*%
X286258000Y-123838200D03*
X286258000Y-125488200D03*
%TD*%
D16*
%TO.C,D3*%
X249645000Y-115240000D03*
X249645000Y-118440000D03*
X254545000Y-118440000D03*
X254545000Y-115240000D03*
%TD*%
D14*
%TO.C,R17*%
X364299000Y-141415000D03*
X364299000Y-143065000D03*
%TD*%
D20*
%TO.C,C4*%
X361315000Y-106820000D03*
X361315000Y-105270000D03*
%TD*%
D17*
%TO.C,U4*%
X148755000Y-105370000D03*
D18*
X148895000Y-105245000D03*
X149695000Y-105245000D03*
X150495000Y-105245000D03*
X151295000Y-105245000D03*
X152095000Y-105245000D03*
X152095000Y-106045000D03*
X152095000Y-106845000D03*
X151295000Y-106845000D03*
X150495000Y-106845000D03*
X149695000Y-106845000D03*
X148895000Y-106845000D03*
X148895000Y-106045000D03*
%TD*%
D14*
%TO.C,R7*%
X308864000Y-123889000D03*
X308864000Y-125539000D03*
%TD*%
%TO.C,R5*%
X281813000Y-123838200D03*
X281813000Y-125488200D03*
%TD*%
D17*
%TO.C,U2*%
X352082000Y-105370000D03*
D18*
X352222000Y-105245000D03*
X353022000Y-105245000D03*
X353822000Y-105245000D03*
X354622000Y-105245000D03*
X355422000Y-105245000D03*
X355422000Y-106045000D03*
X355422000Y-106845000D03*
X354622000Y-106845000D03*
X353822000Y-106845000D03*
X353022000Y-106845000D03*
X352222000Y-106845000D03*
X352222000Y-106045000D03*
%TD*%
D15*
%TO.C,C6*%
X142494000Y-105270000D03*
X142494000Y-106820000D03*
%TD*%
D14*
%TO.C,R12*%
X318465200Y-123850400D03*
X318465200Y-125500400D03*
%TD*%
D15*
%TO.C,C2*%
X346075000Y-105283000D03*
X346075000Y-106833000D03*
%TD*%
D16*
%TO.C,D5*%
X46445000Y-115240000D03*
X46445000Y-118440000D03*
X51345000Y-118440000D03*
X51345000Y-115240000D03*
%TD*%
M02*
