M48
; DRILL file {KiCad 7.0.10} date Thu Feb  8 00:46:41 2024
; FORMAT={3:3/ absolute / metric / suppress leading zeros}
; #@! TF.CreationDate,2024-02-08T00:46:41+00:00
; #@! TF.GenerationSoftware,Kicad,Pcbnew,7.0.10
; #@! TF.FileFunction,MixedPlating,1,2
FMAT,2
METRIC,TZ
; #@! TA.AperFunction,Plated,PTH,ViaDrill
T1C0.400
; #@! TA.AperFunction,Plated,PTH,ComponentDrill
T2C1.000
; #@! TA.AperFunction,Plated,PTH,ComponentDrill
T3C4.300
%
G90
G05
T1
X35814Y-140081
X37211Y-107315
X37211Y-140081
X37211Y-141351
X38100Y-108077
X38100Y-150876
X38862Y-178054
X39243Y-106807
X42044Y-151760
X43307Y-102362
X43339Y-107050
X43496Y-162560
X44323Y-160147
X45212Y-157607
X48768Y-103632
X52991Y-105272
X54610Y-177292
X55499Y-139192
X56649Y-109311
X56903Y-123331
X59182Y-116840
X61214Y-177038
X61976Y-122428
X63500Y-176022
X63825Y-123515
X66294Y-116840
X133833Y-138770
X133858Y-103138
X135255Y-102757
X135255Y-150933
X140589Y-106807
X143739Y-151760
X145034Y-107075
X150495Y-103505
X154686Y-105297
X157201Y-138781
X158344Y-109336
X158598Y-123331
X161925Y-119761
X167386Y-119761
X235331Y-138781
X235356Y-103149
X236753Y-102768
X236855Y-150933
X242189Y-106807
X245237Y-151760
X246532Y-107086
X251968Y-103378
X256184Y-105308
X258699Y-139827
X259842Y-109347
X260096Y-123331
X272491Y-151760
X272542Y-128270
X276987Y-128270
X277012Y-150933
X281813Y-128270
X281813Y-138227
X286258Y-128270
X286258Y-136779
X290703Y-128270
X290703Y-137541
X295148Y-128270
X295148Y-136541
X308737Y-140462
X308864Y-128270
X313309Y-128270
X313309Y-138781
X318516Y-128143
X319151Y-140989
X322834Y-139319
X322961Y-128270
X337185Y-103124
X337185Y-112127
X338582Y-102743
X338582Y-150933
X344043Y-106807
X346075Y-150933
X346075Y-161798
X347091Y-151760
X347091Y-164084
X347980Y-180086
X348234Y-161798
X348361Y-107061
X349250Y-159969
X350012Y-137033
X350139Y-157480
X353695Y-115316
X353822Y-103632
X358013Y-105283
X358902Y-120904
X359410Y-127508
X359410Y-139889
X359410Y-159893
X361061Y-123331
X361188Y-108966
X363982Y-127762
X364845Y-130534
X365379Y-116967
X366673Y-173833
X367535Y-174517
X367537Y-177070
X367538Y-147193
X367919Y-120269
X368173Y-127762
X370205Y-139319
X370840Y-121158
X370840Y-125603
X372491Y-128713
X372745Y-116586
X373380Y-135636
X373507Y-129540
X373761Y-117221
X374523Y-130048
X374650Y-117983
X375539Y-130683
X375666Y-118745
X375793Y-150933
X376174Y-142799
X376555Y-131334
X376682Y-119504
X376869Y-147253
X377631Y-123638
X377698Y-122428
T2
X36322Y-99568
X37948Y-157531
X37948Y-160071
X37948Y-162611
X37948Y-165151
X37948Y-167691
X37948Y-170231
X38862Y-99568
X41402Y-99568
X43942Y-99568
X46482Y-99568
X49022Y-99568
X128778Y-99568
X131318Y-99568
X133858Y-99568
X136398Y-99568
X138938Y-99568
X141478Y-99568
X230226Y-99593
X232766Y-99593
X235306Y-99593
X237846Y-99593
X240386Y-99593
X242926Y-99593
X332080Y-99593
X334620Y-99593
X337160Y-99593
X339700Y-99593
X342240Y-99593
X342798Y-157429
X342798Y-159969
X342798Y-162509
X342798Y-165049
X342798Y-167589
X342798Y-170129
X344780Y-99593
X381635Y-100838
X381635Y-103378
X381635Y-105918
X381635Y-108458
X381635Y-110998
X381635Y-113538
X381635Y-116078
X381635Y-118618
X381635Y-121158
X381635Y-123698
X381635Y-126238
X381635Y-128778
X381635Y-131318
X381635Y-133858
X381635Y-136398
X381635Y-138938
X381635Y-141478
X381635Y-144018
X381635Y-146558
X381635Y-149098
X384175Y-100838
X384175Y-103378
X384175Y-105918
X384175Y-108458
X384175Y-110998
X384175Y-113538
X384175Y-116078
X384175Y-118618
X384175Y-121158
X384175Y-123698
X384175Y-126238
X384175Y-128778
X384175Y-131318
X384175Y-133858
X384175Y-136398
X384175Y-138938
X384175Y-141478
X384175Y-144018
X384175Y-146558
X384175Y-149098
T3
X60071Y-187071
X70815Y-104013
X201219Y-145999
X201295Y-104140
X310490Y-104038
X364998Y-187452
M30
