M48
; DRILL file {KiCad 7.0.10} date Mon Feb  5 00:39:42 2024
; FORMAT={-:-/ absolute / metric / decimal}
; #@! TF.CreationDate,2024-02-05T00:39:42+00:00
; #@! TF.GenerationSoftware,Kicad,Pcbnew,7.0.10
; #@! TF.FileFunction,Plated,1,2,PTH
FMAT,2
METRIC
; #@! TA.AperFunction,Plated,PTH,ViaDrill
T1C0.400
; #@! TA.AperFunction,Plated,PTH,ComponentDrill
T2C1.000
; #@! TA.AperFunction,Plated,PTH,ComponentDrill
T3C4.300
%
G90
G05
T1
X35.814Y-140.081
X37.211Y-107.315
X37.211Y-140.081
X37.211Y-141.351
X38.1Y-108.077
X38.1Y-150.876
X38.862Y-178.054
X39.243Y-106.807
X42.044Y-151.76
X43.307Y-102.362
X43.339Y-107.05
X43.496Y-162.56
X44.323Y-160.147
X45.212Y-157.607
X48.768Y-103.632
X52.991Y-105.272
X54.61Y-177.292
X55.499Y-139.192
X56.649Y-109.311
X56.903Y-123.331
X59.182Y-116.84
X61.214Y-177.038
X61.976Y-122.428
X63.5Y-176.022
X63.825Y-123.515
X66.294Y-116.84
X133.833Y-138.77
X133.858Y-103.138
X135.255Y-102.757
X135.255Y-150.933
X140.589Y-106.807
X143.739Y-151.76
X145.034Y-107.075
X150.495Y-103.505
X154.686Y-105.297
X157.201Y-138.781
X158.344Y-109.336
X158.598Y-123.331
X161.925Y-119.761
X167.386Y-119.761
X235.331Y-138.781
X235.356Y-103.149
X236.753Y-102.768
X236.855Y-150.933
X242.189Y-106.807
X245.237Y-151.76
X246.532Y-107.086
X251.968Y-103.378
X256.184Y-105.308
X258.699Y-139.827
X259.842Y-109.347
X260.096Y-123.331
X272.491Y-151.76
X272.542Y-128.27
X276.987Y-128.27
X277.012Y-150.933
X281.813Y-128.27
X281.813Y-138.227
X286.258Y-128.27
X286.258Y-136.779
X290.703Y-128.27
X290.703Y-137.541
X295.148Y-128.27
X295.148Y-136.541
X308.737Y-140.462
X308.864Y-128.27
X313.309Y-128.27
X313.309Y-138.781
X318.516Y-128.143
X319.151Y-140.989
X322.834Y-139.319
X322.961Y-128.27
X337.185Y-103.124
X337.185Y-112.127
X338.582Y-102.743
X338.582Y-150.933
X344.043Y-106.807
X346.075Y-150.933
X346.075Y-161.798
X347.091Y-151.76
X347.091Y-164.084
X347.98Y-180.086
X348.234Y-161.798
X348.361Y-107.061
X349.25Y-159.969
X350.012Y-137.033
X350.139Y-157.48
X353.695Y-115.316
X353.822Y-103.632
X358.013Y-105.283
X358.902Y-120.904
X359.41Y-127.508
X359.41Y-139.889
X359.41Y-159.893
X361.061Y-123.331
X361.188Y-108.966
X363.982Y-127.762
X364.845Y-130.534
X365.379Y-116.967
X366.673Y-173.833
X367.535Y-174.517
X367.537Y-177.07
X367.538Y-147.193
X367.919Y-120.269
X368.173Y-127.762
X370.205Y-139.319
X370.84Y-121.158
X370.84Y-125.603
X372.491Y-128.713
X372.745Y-116.586
X373.38Y-135.636
X373.507Y-129.54
X373.761Y-117.221
X374.523Y-130.048
X374.65Y-117.983
X375.539Y-130.683
X375.666Y-118.745
X375.793Y-150.933
X376.174Y-142.799
X376.555Y-131.334
X376.682Y-119.504
X376.869Y-147.253
X377.631Y-123.638
X377.698Y-122.428
T2
X36.322Y-99.568
X37.948Y-157.531
X37.948Y-160.071
X37.948Y-162.611
X37.948Y-165.151
X37.948Y-167.691
X37.948Y-170.231
X38.862Y-99.568
X41.402Y-99.568
X43.942Y-99.568
X46.482Y-99.568
X49.022Y-99.568
X128.778Y-99.568
X131.318Y-99.568
X133.858Y-99.568
X136.398Y-99.568
X138.938Y-99.568
X141.478Y-99.568
X230.226Y-99.593
X232.766Y-99.593
X235.306Y-99.593
X237.846Y-99.593
X240.386Y-99.593
X242.926Y-99.593
X332.08Y-99.593
X334.62Y-99.593
X337.16Y-99.593
X339.7Y-99.593
X342.24Y-99.593
X342.798Y-157.429
X342.798Y-159.969
X342.798Y-162.509
X342.798Y-165.049
X342.798Y-167.589
X342.798Y-170.129
X344.78Y-99.593
X381.635Y-100.838
X381.635Y-103.378
X381.635Y-105.918
X381.635Y-108.458
X381.635Y-110.998
X381.635Y-113.538
X381.635Y-116.078
X381.635Y-118.618
X381.635Y-121.158
X381.635Y-123.698
X381.635Y-126.238
X381.635Y-128.778
X381.635Y-131.318
X381.635Y-133.858
X381.635Y-136.398
X381.635Y-138.938
X381.635Y-141.478
X381.635Y-144.018
X381.635Y-146.558
X381.635Y-149.098
X384.175Y-100.838
X384.175Y-103.378
X384.175Y-105.918
X384.175Y-108.458
X384.175Y-110.998
X384.175Y-113.538
X384.175Y-116.078
X384.175Y-118.618
X384.175Y-121.158
X384.175Y-123.698
X384.175Y-126.238
X384.175Y-128.778
X384.175Y-131.318
X384.175Y-133.858
X384.175Y-136.398
X384.175Y-138.938
X384.175Y-141.478
X384.175Y-144.018
X384.175Y-146.558
X384.175Y-149.098
T3
X60.071Y-187.071
X70.815Y-104.013
X201.219Y-145.999
X201.295Y-104.14
X310.49Y-104.038
X364.998Y-187.452
M30
